<svg id="グループ_6" data-name="グループ 6" xmlns="http://www.w3.org/2000/svg" width="408.575" height="293.967" viewBox="0 0 408.575 293.967">
	<line id="線_1" data-name="線 1" x2="65.72" transform="translate(0 293.467)" fill="none" stroke="#3f3d56" stroke-miterlimit="10" stroke-width="1"/>
	<rect id="長方形_34" data-name="長方形 34" width="291.783" height="197.557" rx="19.398" transform="translate(96.205 50.578)" fill="#f2f2f2"/>
	<rect id="長方形_35" data-name="長方形 35" width="291.783" height="197.557" rx="19.398" transform="translate(87.297 38.107)" fill="none" stroke="#3f3d56" stroke-miterlimit="10" stroke-width="1"/>
	<line id="線_2" data-name="線 2" x2="291.783" transform="translate(87.297 57.047)" fill="none" stroke="#3f3d56" stroke-miterlimit="10" stroke-width="1"/>
	<rect id="長方形_36" data-name="長方形 36" width="79.577" height="12.273" rx="6.137" transform="translate(261.694 101.452)" fill="#6c63ff" opacity="0.3"/>
	<rect id="長方形_37" data-name="長方形 37" width="110.062" height="9.898" rx="4.949" transform="translate(246.452 135.5)" fill="#6c63ff" opacity="0.3"/>
	<rect id="長方形_38" data-name="長方形 38" width="110.062" height="9.898" rx="4.949" transform="translate(246.452 162.422)" fill="#6c63ff" opacity="0.3"/>
	<rect id="長方形_39" data-name="長方形 39" width="110.062" height="9.898" rx="4.949" transform="translate(246.452 189.343)" fill="#6c63ff" opacity="0.3"/>
	<rect id="長方形_40" data-name="長方形 40" width="79.577" height="12.273" rx="6.137" transform="translate(265.653 97.493)" fill="none" stroke="#3f3d56" stroke-miterlimit="10" stroke-width="1"/>
	<rect id="長方形_41" data-name="長方形 41" width="110.062" height="9.898" rx="4.949" transform="translate(250.411 131.541)" fill="none" stroke="#3f3d56" stroke-miterlimit="10" stroke-width="1"/>
	<rect id="長方形_42" data-name="長方形 42" width="110.062" height="9.898" rx="4.949" transform="translate(250.411 158.463)" fill="none" stroke="#3f3d56" stroke-miterlimit="10" stroke-width="1"/>
	<rect id="長方形_43" data-name="長方形 43" width="110.062" height="9.898" rx="4.949" transform="translate(250.411 185.384)" fill="none" stroke="#3f3d56" stroke-miterlimit="10" stroke-width="1"/>
	<circle id="楕円形_11" data-name="楕円形 11" cx="5.939" cy="5.939" r="5.939" transform="translate(103.53 44.046)" fill="#6c63ff" opacity="0.3"/>
	<circle id="楕円形_12" data-name="楕円形 12" cx="5.939" cy="5.939" r="5.939" transform="translate(120.158 44.046)" fill="#6c63ff" opacity="0.3"/>
	<circle id="楕円形_13" data-name="楕円形 13" cx="5.939" cy="5.939" r="5.939" transform="translate(136.786 44.046)" fill="#6c63ff" opacity="0.3"/>
	<circle id="楕円形_14" data-name="楕円形 14" cx="5.939" cy="5.939" r="5.939" transform="translate(105.905 41.67)" fill="none" stroke="#3f3d56" stroke-miterlimit="10" stroke-width="1"/>
	<circle id="楕円形_15" data-name="楕円形 15" cx="5.939" cy="5.939" r="5.939" transform="translate(122.533 41.67)" fill="none" stroke="#3f3d56" stroke-miterlimit="10" stroke-width="1"/>
	<circle id="楕円形_16" data-name="楕円形 16" cx="5.939" cy="5.939" r="5.939" transform="translate(139.161 41.67)" fill="none" stroke="#3f3d56" stroke-miterlimit="10" stroke-width="1"/>
	<path id="パス_58" data-name="パス 58" d="M514.692,593.361a59.034,59.034,0,0,1-.924-15.187s-5.027-22.086-8.983-24.147h0c-.061.078-1.98,2.595-2.224,10.382a32.021,32.021,0,0,1-3.048,13.1s.906,9.861.388,15.847Z" transform="translate(-335.206 -366.011)" fill="#6c63ff"/>
	<path id="パス_59" data-name="パス 59" d="M476.651,298.379H385.411A9.411,9.411,0,0,0,376,307.79V429.515a9.411,9.411,0,0,0,9.411,9.411h32.011c-1.069-4.434-2.4-11.359-1.052-16.174v0c.063-.225.13-.446.2-.661a25.139,25.139,0,0,0,.907-9.642,20.035,20.035,0,0,0,0-8.406c-.989-4.615-1.681-9.147-1.681-9.147a59.114,59.114,0,0,1-.069-9.836c.011-.082.023-.16.034-.24l-.262-.06s1.4-6.346,1.9-10.384c.117-.953.27-2.162.437-3.45a8.3,8.3,0,0,1-1.343-.341c-4.45-1.566-5.851-15.74-5.851-15.74v-4.491s-1.483-6.881,3.708-9.93a60.394,60.394,0,0,1,7.137-3.8c.038-.027.075-.052.114-.082a4.379,4.379,0,0,0,1.3-1.676q.01-.17,0-.337c-.084-1.61-1.205-3.074-2.269-4.352l-2.721-3.269a3.2,3.2,0,0,1-.7-1.134,2.612,2.612,0,0,1-.074-.714q0-.133,0-.266.022-1.219.066-2.437c.025-.71.2-1.6.9-1.751.361-.076.84.056,1.031-.26a.62.62,0,0,0,.046-.42c0,.01,0,.022-.006.032l-.007-.04a8.885,8.885,0,0,1-.258-1.737,2.314,2.314,0,0,1,.112-.78c.4-1.178,1.789-1.661,3.013-1.883s2.6-.413,3.368-1.392a10.66,10.66,0,0,1,.669-.94,2.624,2.624,0,0,1,1.253-.632,6.928,6.928,0,0,1,4.555.4,4.014,4.014,0,0,0,1.837.593c.675-.043,1.252-.518,1.918-.634a2.729,2.729,0,0,1,2.636,1.575,3.9,3.9,0,0,1,.488,1.989,2.736,2.736,0,0,1-.7,1.877c-.463.492-1.155.829-1.347,1.477-.078.264-.06.547-.129.813-.009.033-.023.064-.034.1.013.017.027.032.039.049a8.405,8.405,0,0,1-4.091,13.073c0,.083-.006.167-.006.251a3.632,3.632,0,0,0,1.124,2.8l7.343,3.011s4.421-.536,6.016,6.061a11.415,11.415,0,0,1,.273,3.348,9.989,9.989,0,0,0,1.21,5.012c1.813,3.626,1.4,11.949-2.307,12.773-3.513.781-4.879.453-5.014.416l-.008.146c.058,1.562.614,15.032,2.632,16.662.558.451.451.755-.006.96h0s0,.087.012.242c.061.985.372,4.737,1.723,6.872,1.566,2.472,1.4,16.73,1.4,16.73l1.07,8.406s-.659,5.192,0,6.1c.374.514.828,8.474,1.15,15.27h27.527a9.411,9.411,0,0,0,9.411-9.411V307.79A9.411,9.411,0,0,0,476.651,298.379Z" transform="translate(-260.593 -211.576)" fill="#6c63ff"/>
	<rect id="長方形_44" data-name="長方形 44" width="110.062" height="140.547" rx="23.772" transform="translate(105.905 76.114)" fill="none" stroke="#3f3d56" stroke-miterlimit="10" stroke-width="1"/>
	<path id="パス_60" data-name="パス 60" d="M178.185,400.058s-3.691-1.092-4.483.1,1.079,9.8,1.079,9.8l8.134.494-2.839-7.168Z" transform="translate(-138.268 -272.723)" fill="#2f2e41"/>
	<path id="パス_61" data-name="パス 61" d="M103.968,579.347s7.4,16.249,1.7,15.738-7.912-15.738-7.912-15.738Z" transform="translate(-92.509 -381.307)" fill="#a0616a"/>
	<path id="パス_62" data-name="パス 62" d="M234.236,572.777s-3.247,17.557,2.16,15.682,3.866-17.186,3.866-17.186Z" transform="translate(-174.371 -376.429)" fill="#a0616a"/>
	<path id="パス_63" data-name="パス 63" d="M156.943,385.923s-.085,8.167,3.063,8.592-1.787,4.764-1.787,4.764l-5.615,1.106-8.082-.6-3.573-4.594s6.3-2.978,3.573-12.25Z" transform="translate(-118.6 -262.662)" fill="#a0616a"/>
	<path id="パス_64" data-name="パス 64" d="M156.943,385.923s-.085,8.167,3.063,8.592-1.787,4.764-1.787,4.764l-5.615,1.106-8.082-.6-3.573-4.594s6.3-2.978,3.573-12.25Z" transform="translate(-118.6 -262.662)" opacity="0.1"/>
	<path id="パス_65" data-name="パス 65" d="M162.145,564.927s4,8.592.851,35.56c0,0,.936,9.528.17,11.315s-7.061,26.032-7.061,26.032-8.082,1.787-9.188-3.573c0,0,1.106-7.657,1.021-8.848s1.787-14.207,1.787-14.207L145.9,586.025,143,608.74s0,6.551-.936,8,0,30.541,0,30.541,2.637,4.424-1.361,4.509-7.572-.085-7.912-2.893-.51-5.615-1.361-7.316-1.957-21.183-1.7-27.989-5.615-41.771-3.743-45.429S162.145,564.927,162.145,564.927Z" transform="translate(-109.34 -372.586)" fill="#2f2e41"/>
	<circle id="楕円形_17" data-name="楕円形 17" cx="10.209" cy="10.209" r="10.209" transform="translate(23.795 105.907)" fill="#a0616a"/>
	<path id="パス_66" data-name="パス 66" d="M136.554,409.9s6.21,4.594,15.228.936c0,0,2.978-1.446,2.722-3.658s6.21,17.78,6.21,17.78l6.551,34.795-.34,14.207s-2.893-1.446-11.91,1.787-23.735-3.658-23.735-3.658l.51-36.5.51-21.268,1.361-4.679S134.342,408.372,136.554,409.9Z" transform="translate(-112.759 -277.199)" fill="#f2f2f2"/>
	<path id="パス_67" data-name="パス 67" d="M182.063,399.882s1.5-.244,2.949,2.053,4.849,3.743,4.849,3.743,8.252.51,9.443,4.934,4.169,10.464,5.615,21.608,4.339,28.925,4.764,30.371-.6,5.87.6,7.231-8.422,1.361-8.422,1.361-.851-6.976-1.446-6.976-.425,4.679.17,8.082-4.339,0-4.339,0-3.828-15.568-7.486-29.605-5.785-21.779-5.1-24.926,2.552-12.165,1.191-13.016S182.063,399.882,182.063,399.882Z" transform="translate(-143.437 -272.888)" fill="#2f2e41"/>
	<path id="パス_68" data-name="パス 68" d="M113.912,399.874a92.676,92.676,0,0,0-7.837,5.208c-5.615,4-9.443,7.061-9.443,7.061s-2.212,1.7-3.573,11.825-4.424,36.326-3.233,39.644,1.616,5.275,1.191,7.231,8.933,1.872,9.1,1.446-.255-8.167.17-8.337,2.722,4.594,3.148,8.592,5.36,7.146,6.466,7.146,6.806-23.055,6.891-38.793-1.872-29.01-3.318-30.881S113.912,399.874,113.912,399.874Z" transform="translate(-87.555 -272.888)" fill="#2f2e41"/>
	<path id="パス_69" data-name="パス 69" d="M177.319,736.441a2.4,2.4,0,0,1,3.063-1.276,4.135,4.135,0,0,0,4-1.531s1.276-.17.425,1.446-1.531,2.722-1.531,2.722,5.1,11.655,1.787,14.462a7.114,7.114,0,0,1-7.146,1.106s-3.743-2.637-3.573-9.613a15.542,15.542,0,0,0-2.212-5.785c-2.042-3.573-3.573-9.018-1.106-10.039a13.359,13.359,0,0,1,3.1-1.059s-1.154,5.28,1.828,7.125Z" transform="translate(-135.999 -470.427)" fill="#3f3d56"/>
	<path id="パス_70" data-name="パス 70" d="M145.116,777.382s-2.042-3.828,1.361-4.254,7.061-.681,6.891,1.106-.6,4.509-.6,4.509l.6,1.957s.17,4.849.766,5.445,3.828,5.7-3.063,5.7-8.933-.766-8.337-2.382.766-9.613.766-9.613Z" transform="translate(-119.619 -498.182)" fill="#3f3d56"/>
	<path id="パス_71" data-name="パス 71" d="M140.889,340.033s4.764,1.276,7.231,1.787,2.212-.936,2.212-.936,3.233.425,3.063.085,1.361-2.127-.425-4.169-1.276-3.573-1.276-3.573h-1.531l-.425-.6h-2.382s-1.787-.681-6.466,0-11.059.851-11.57,3.658-3.148,6.3-2.212,7.912,6.3,8.252,6.806,11.059,2.894,3.431,2.808,1.673-2.468-7.883-.426-8.139S141.825,343.351,140.889,340.033Z" transform="translate(-110.119 -232.085)" fill="#2f2e41"/>
	<path id="パス_72" data-name="パス 72" d="M1006.374,86.584a9.1,9.1,0,0,0-7.843,5.484c-1.961,4.741.564,10.309,4.354,13.766s8.66,5.433,13.084,8.03c5.942,3.488,11.282,8.331,14.255,14.547s3.29,13.916-.205,19.855c-3.244,5.512-9.143,8.811-14.768,11.853" transform="translate(-636.249 -83.631)" fill="none" stroke="#3f3d56" stroke-miterlimit="10" stroke-width="1"/>
	<ellipse id="楕円形_18" data-name="楕円形 18" cx="7.5" cy="3.5" rx="7.5" ry="3.5" transform="translate(367.575)" fill="#6c63ff"/>
	<ellipse id="楕円形_19" data-name="楕円形 19" cx="7" cy="3" rx="7" ry="3" transform="translate(373.575 23)" fill="#6c63ff"/>
	<ellipse id="楕円形_20" data-name="楕円形 20" cx="7" cy="4" rx="7" ry="4" transform="translate(361.575 25)" fill="#6c63ff"/>
	<ellipse id="楕円形_21" data-name="楕円形 21" cx="7" cy="3.5" rx="7" ry="3.5" transform="translate(380.575 44)" fill="#6c63ff"/>
	<ellipse id="楕円形_22" data-name="楕円形 22" cx="7" cy="3.5" rx="7" ry="3.5" transform="translate(394.575 44)" fill="#6c63ff"/>
  </svg>
  