<svg id="グループ_26" data-name="グループ 26" xmlns="http://www.w3.org/2000/svg" width="320.256" height="268.947" viewBox="0 0 320.256 268.947">
  <path id="パス_325" data-name="パス 325" d="M348.133,822.911c0,5.245-32.449,9.494-72.546,9.522h-.365a427.921,427.921,0,0,1-50.441-2.642c-.561-.074-1.113-.145-1.654-.219-2.227-.294-4.308-.612-6.225-.941-9.161-1.6-14.59-3.575-14.59-5.719,0-1.737,3.551-3.359,9.757-4.763,3.277-.741,7.291-1.415,11.917-2.011q1.276-.17,2.618-.321a436.932,436.932,0,0,1,48.619-2.426c3.63,0,7.2.035,10.69.1C321.109,814.166,348.133,818.125,348.133,822.911Z" transform="translate(-158.214 -563.485)" fill="#3f3d56"/>
  <rect id="長方形_101" data-name="長方形 101" width="107.99" height="55.345" transform="translate(211.929 142.749)" fill="#f2f2f2"/>
  <rect id="長方形_102" data-name="長方形 102" width="107.99" height="55.345" transform="translate(77.617 0.337)" fill="#f2f2f2"/>
  <path id="パス_326" data-name="パス 326" d="M407.689,141.02H299.025V85H407.689Zm-107.99-.675H407.014V85.675H299.7Z" transform="translate(-221.745 -85)" fill="#6c63ff"/>
  <rect id="長方形_103" data-name="長方形 103" width="107.99" height="55.345" transform="translate(211.929 0.337)" fill="#f2f2f2"/>
  <rect id="長方形_104" data-name="長方形 104" width="107.99" height="55.345" transform="translate(77.617 71.543)" fill="#f2f2f2"/>
  <rect id="長方形_105" data-name="長方形 105" width="107.99" height="55.345" transform="translate(211.929 71.543)" fill="#f2f2f2"/>
  <rect id="長方形_106" data-name="長方形 106" width="107.99" height="55.345" transform="translate(77.617 142.749)" fill="#f2f2f2"/>
  <circle id="楕円形_51" data-name="楕円形 51" cx="13.836" cy="13.836" r="13.836" transform="translate(0 14.174)" fill="#f2f2f2"/>
  <path id="パス_327" data-name="パス 327" d="M200.73,126.311a13.836,13.836,0,1,0,13.836,13.836,13.836,13.836,0,0,0-13.836-13.836Zm6,18.977-1.193,1.193-4.972-4.972-4.972,4.972-1.193-1.193,4.972-4.972-5.647-5.647,1.193-1.193,5.647,5.647,5.647-5.647,1.193,1.193-5.647,5.647Z" transform="translate(-148.085 -112.138)" fill="#f2f2f2"/>
  <path id="パス_328" data-name="パス 328" d="M24.073,64.208,17.71,55.786l1.346-1.018,5.111,6.765L38.5,45.105l1.271,1.109Z" transform="translate(-11.634 -29.63)" fill="#6c63ff"/>
  <path id="パス_329" data-name="パス 329" d="M418.758,601q-6.582-1.115-12.66-1.915l1.6-3.106c-.54-.188-2.913,1.591-2.913,1.591l2.1-9.016c-2.717.328-4.1,9.533-4.1,9.533l-3.035-3.112,1.469,3.5a280.237,280.237,0,0,0-32.121-2.022l1.371-2.658c-.54-.188-2.913,1.591-2.913,1.591l2.1-9.016c-2.717.328-4.1,9.533-4.1,9.533l-3.035-3.112,1.556,3.706a180.431,180.431,0,0,0-18.465,1.254c1.387-4.141,6.1-8.08,6.1-8.08-3.6,1.07-5.485,2.863-6.471,4.535a72.612,72.612,0,0,1,4.2-25.088s-7.436,16.182-6.487,27.044l.114,1.929c-6.3.9-8.785,3.024-8.785,3.024Z" transform="translate(-244.908 -403.021)" fill="#3f3d56"/>
  <circle id="楕円形_52" data-name="楕円形 52" cx="11.935" cy="11.935" r="11.935" transform="translate(110.104 75.755)" fill="#ff6584"/>
  <path id="パス_330" data-name="パス 330" d="M726.317,460.228l-1.4-1.12,7.836-7h19.869v6.157l-12.873,8.675Z" transform="translate(-476.205 -296.996)" fill="#3f3d56"/>
  <path id="パス_331" data-name="パス 331" d="M784.669,456.037v-3.785h-2.638v.927l-.985-1.067-6.437,7-2.519,1.679-3.905,28.532,5.89,5.89h13.687V459.388Z" transform="translate(-504.628 -296.996)" fill="#ccc"/>
  <rect id="長方形_107" data-name="長方形 107" width="21.269" height="36.101" transform="translate(248.713 162.112)" fill="#f2f2f2"/>
  <rect id="長方形_108" data-name="長方形 108" width="3.918" height="8.815" transform="translate(256.969 189.398)" fill="#ccc"/>
  <path id="パス_332" data-name="パス 332" d="M733.53,556.694v-1.4h-1.679v1.4h1.679Z" transform="translate(-480.759 -364.778)" fill="#3f3d56"/>
  <path id="パス_333" data-name="パス 333" d="M733.391,562.636h-1.54v1.4h1.679v-1.4Z" transform="translate(-480.759 -369.6)" fill="#3f3d56"/>
  <rect id="長方形_109" data-name="長方形 109" width="1.679" height="1.399" transform="translate(253.891 190.517)" fill="#3f3d56"/>
  <rect id="長方形_110" data-name="長方形 110" width="1.679" height="1.399" transform="translate(253.891 193.036)" fill="#3f3d56"/>
  <path id="パス_334" data-name="パス 334" d="M766.973,556.694v-1.4h-1.679v1.4h1.679Z" transform="translate(-502.728 -364.778)" fill="#3f3d56"/>
  <path id="パス_335" data-name="パス 335" d="M766.833,562.636h-1.539v1.4h1.679v-1.4Z" transform="translate(-502.728 -369.6)" fill="#3f3d56"/>
  <rect id="長方形_111" data-name="長方形 111" width="1.679" height="1.399" transform="translate(265.365 190.517)" fill="#3f3d56"/>
  <rect id="長方形_112" data-name="長方形 112" width="1.679" height="1.399" transform="translate(265.365 193.036)" fill="#3f3d56"/>
  <path id="パス_336" data-name="パス 336" d="M801.231,475.126v-1.4h-1.679v1.4h1.679Z" transform="translate(-525.232 -311.195)" fill="#3f3d56"/>
  <path id="パス_337" data-name="パス 337" d="M801.091,481.069h-1.539v1.4h1.679v-1.4Z" transform="translate(-525.232 -316.018)" fill="#3f3d56"/>
  <rect id="長方形_113" data-name="長方形 113" width="1.679" height="1.399" transform="translate(277.118 162.532)" fill="#3f3d56"/>
  <rect id="長方形_114" data-name="長方形 114" width="1.679" height="1.399" transform="translate(277.118 165.051)" fill="#3f3d56"/>
  <path id="パス_338" data-name="パス 338" d="M801.231,497.965v-1.4h-1.679v1.4h1.679Z" transform="translate(-525.232 -326.198)" fill="#3f3d56"/>
  <path id="パス_339" data-name="パス 339" d="M801.091,503.907h-1.539v1.4h1.679v-1.4Z" transform="translate(-525.232 -331.021)" fill="#3f3d56"/>
  <rect id="長方形_115" data-name="長方形 115" width="1.679" height="1.399" transform="translate(277.118 170.368)" fill="#3f3d56"/>
  <rect id="長方形_116" data-name="長方形 116" width="1.679" height="1.399" transform="translate(277.118 172.886)" fill="#3f3d56"/>
  <path id="パス_340" data-name="パス 340" d="M801.231,520.8v-1.4h-1.679v1.4h1.679Z" transform="translate(-525.232 -341.201)" fill="#3f3d56"/>
  <path id="パス_341" data-name="パス 341" d="M801.091,526.746h-1.539v1.4h1.679v-1.4Z" transform="translate(-525.232 -346.024)" fill="#3f3d56"/>
  <rect id="長方形_117" data-name="長方形 117" width="1.679" height="1.399" transform="translate(277.118 178.204)" fill="#3f3d56"/>
  <rect id="長方形_118" data-name="長方形 118" width="1.679" height="1.399" transform="translate(277.118 180.722)" fill="#3f3d56"/>
  <path id="パス_342" data-name="パス 342" d="M801.231,543.643v-1.4h-1.679v1.4h1.679Z" transform="translate(-525.232 -356.205)" fill="#3f3d56"/>
  <path id="パス_343" data-name="パス 343" d="M801.091,549.585h-1.539v1.4h1.679v-1.4Z" transform="translate(-525.232 -361.027)" fill="#3f3d56"/>
  <rect id="長方形_119" data-name="長方形 119" width="1.679" height="1.399" transform="translate(277.118 186.039)" fill="#3f3d56"/>
  <rect id="長方形_120" data-name="長方形 120" width="1.679" height="1.399" transform="translate(277.118 188.558)" fill="#3f3d56"/>
  <rect id="長方形_121" data-name="長方形 121" width="16.231" height="3.358" transform="translate(251.092 163.931)" fill="#3f3d56"/>
  <rect id="長方形_122" data-name="長方形 122" width="16.231" height="3.358" transform="translate(251.092 170.648)" fill="#3f3d56"/>
  <rect id="長方形_123" data-name="長方形 123" width="16.231" height="3.358" transform="translate(251.092 177.364)" fill="#3f3d56"/>
  <rect id="長方形_124" data-name="長方形 124" width="16.231" height="3.358" transform="translate(251.092 184.08)" fill="#3f3d56"/>
  <path id="パス_344" data-name="パス 344" d="M341.794,463.209h14.245v-3.438H363.9v3.438h14.736v15.227H363.9v19.157h-7.859V478.437H341.794l-7.368-8.35Z" transform="translate(-219.687 -302.027)" fill="#3f3d56"/>
  <path id="パス_345" data-name="パス 345" d="M422.584,390.222h-.675a33.072,33.072,0,1,0-66.144,0h-.675a33.747,33.747,0,0,1,67.493,0Z" transform="translate(-258.574 -263.334)" fill="#3f3d56"/>
  <rect id="長方形_125" data-name="長方形 125" width="0.862" height="34.068" transform="matrix(1, -0.002, 0.002, 1, 113.326, 92.974)" fill="#3f3d56"/>
  <path id="パス_346" data-name="パス 346" d="M397.555,327.4c.077,11.913-8.286,21.624-8.286,21.624s-8.488-9.6-8.566-21.515,8.286-21.624,8.286-21.624S397.478,315.489,397.555,327.4Z" transform="translate(-275.4 -230.102)" fill="#6c63ff"/>
  <path id="パス_347" data-name="パス 347" d="M397.555,327.4c.077,11.913-8.286,21.624-8.286,21.624s-8.488-9.6-8.566-21.515,8.286-21.624,8.286-21.624S397.478,315.489,397.555,327.4Z" transform="translate(-275.4 -230.102)" opacity="0.1"/>
  <rect id="長方形_126" data-name="長方形 126" width="0.862" height="34.068" transform="matrix(1, -0.002, 0.002, 1, 102.113, 92.995)" fill="#3f3d56"/>
  <path id="パス_348" data-name="パス 348" d="M364.875,327.463c.077,11.913-8.286,21.624-8.286,21.624s-8.488-9.6-8.566-21.515,8.286-21.624,8.286-21.624S364.8,315.55,364.875,327.463Z" transform="translate(-253.932 -230.142)" fill="#6c63ff"/>
  <rect id="長方形_127" data-name="長方形 127" width="0.683" height="26.971" transform="translate(159.724 100.142)" fill="#3f3d56"/>
  <path id="パス_349" data-name="パス 349" d="M534.136,354.262c.044,9.431-6.592,17.107-6.592,17.107s-6.706-7.615-6.749-17.045,6.592-17.107,6.592-17.107S534.093,344.831,534.136,354.262Z" transform="translate(-367.427 -250.683)" fill="#6c63ff"/>
  <circle id="楕円形_53" data-name="楕円形 53" cx="23.47" cy="23.47" r="23.47" transform="translate(240.919 76.589)" fill="#3f3d56"/>
  <path id="パス_350" data-name="パス 350" d="M743.172,266.171V276H728.89l-2.639,3.166.3-3.166h-1.284v-9.825Z" transform="translate(-476.435 -174.85)" fill="#6c63ff"/>
  <rect id="長方形_128" data-name="長方形 128" width="6.441" height="6.441" transform="translate(260.296 94.705)" opacity="0.1"/>
  <path id="パス_351" data-name="パス 351" d="M762.813,280.171h17.9V290h-1.284l.3,3.166L777.1,290H762.813Z" transform="translate(-501.098 -184.047)" fill="#6c63ff"/>
  <ellipse id="楕円形_54" data-name="楕円形 54" cx="3.93" cy="0.383" rx="3.93" ry="0.383" transform="translate(245.995 105.129)" opacity="0.1"/>
  <ellipse id="楕円形_55" data-name="楕円形 55" cx="4.476" cy="0.437" rx="4.476" ry="0.437" transform="translate(274.16 110.206)" opacity="0.1"/>
  <path id="パス_352" data-name="パス 352" d="M832.24,106.031H816.731a3.3,3.3,0,0,0-3.216,2.572l-7.836,34.759a2.665,2.665,0,0,0,2.468,3.247l15.943.786a3.52,3.52,0,0,0,3.637-2.889l4.445-24.575.331.094.851-4.658-.341-.085,1.241-6.86a2.03,2.03,0,0,0-2.014-2.391Z" transform="translate(-554.527 -98.816)" fill="#3f3d56"/>
  <path id="パス_353" data-name="パス 353" d="M821.777,108.216h-1.81a2.278,2.278,0,0,0-2.226,1.793l-7.522,34.475a1.412,1.412,0,0,0,1.287,1.71l15.892,1.042a1.828,1.828,0,0,0,1.919-1.5l6.419-35.633a1.6,1.6,0,0,0-1.576-1.885h-1.717a.756.756,0,0,0-.73.559h0a.667.667,0,0,1-.644.494h-8.153a1.141,1.141,0,0,1-1.137-1.053Z" transform="translate(-557.531 -100.25)" fill="#6c63ff"/>
  <circle id="楕円形_56" data-name="楕円形 56" cx="22.459" cy="22.459" r="22.459" transform="translate(111.328 5.602)" fill="#6c63ff"/>
  <path id="パス_354" data-name="パス 354" d="M441.384,153.857c-4.312,0-13.835-4.429-22.3-9.616-10.509-6.437-20.715-14.85-18.931-17.763.5-.823,1.754-1.039,3.822-.659l-.148.807c-1.6-.295-2.685-.192-2.974.28-.422.689.508,2.688,4.383,6.233a97.256,97.256,0,0,0,14.277,10.4,97.289,97.289,0,0,0,15.753,7.992c4.919,1.841,7.123,1.761,7.544,1.073.29-.473-.113-1.486-1.1-2.78l.652-.5c1.28,1.671,1.657,2.884,1.152,3.708A2.325,2.325,0,0,1,441.384,153.857Z" transform="translate(-288.04 -111.695)" fill="#3f3d56"/>
  <circle id="楕円形_57" data-name="楕円形 57" cx="4.594" cy="4.594" r="4.594" transform="translate(126.421 11.923)" fill="#fff"/>
  <circle id="楕円形_58" data-name="楕円形 58" cx="3.063" cy="3.063" r="3.063" transform="translate(129.283 38.638)" fill="#fff"/>
  <circle id="楕円形_59" data-name="楕円形 59" cx="3.063" cy="3.063" r="3.063" transform="translate(139.83 28.138)" fill="#fff"/>
  <path id="パス_355" data-name="パス 355" d="M799.164,556.1H690.5v-56.02H799.164Zm-107.99-.675H798.49v-54.67H691.175Z" transform="translate(-478.908 -357.671)" fill="#6c63ff"/>
  <path id="パス_356" data-name="パス 356" d="M797.2,349.544H688.533v-56.02H797.2Zm-107.99-.675H796.522V294.2H689.208Z" transform="translate(-477.616 -221.982)" fill="#6c63ff"/>
  <path id="パス_357" data-name="パス 357" d="M297.124,779.2c1.842,6.81,8.153,11.028,8.153,11.028s3.323-6.824,1.481-13.634-8.153-11.028-8.153-11.028S295.281,772.387,297.124,779.2Z" transform="translate(-220.13 -532.068)" fill="#3f3d56"/>
  <path id="パス_358" data-name="パス 358" d="M281.889,790.822c5.055,4.921,5.673,12.486,5.673,12.486s-7.579-.414-12.634-5.335-5.673-12.486-5.673-12.486S276.833,785.9,281.889,790.822Z" transform="translate(-202.188 -545.156)" fill="#6c63ff"/>
  <path id="パス_359" data-name="パス 359" d="M345.2,527.615l-5.388.6a72.484,72.484,0,0,0,0,25.143c2.395,14.367,5.388,28.734,5.388,28.734s2.395,46.693,3.592,47.292,11.973,4.19,12.571.6.6-85.6.6-85.6l8.381,39.51s1.2,49.687,3.592,49.687,10.177-.6,10.177-4.789,1.8-59.265,1.8-59.265-.6-40.707-2.993-41.9S345.2,527.615,345.2,527.615Z" transform="translate(-247.841 -375.408)" fill="#2f2e41"/>
  <path id="パス_360" data-name="パス 360" d="M355.77,819.509s-5.388-.6-6.585,0-2.993,4.789,0,7.184,10.775,5.986,13.17,5.986a12.384,12.384,0,0,0,4.789-1.2l-1.2-10.177Z" transform="translate(-253.62 -567.33)" fill="#2f2e41"/>
  <path id="パス_361" data-name="パス 361" d="M441.307,820.485l.6,8.381s7.782,1.2,8.381,0,6.585-4.19,7.184-4.789,1.2-7.184-2.395-7.782-4.789,1.2-4.789,1.2Z" transform="translate(-315.211 -565.313)" fill="#2f2e41"/>
  <path id="パス_362" data-name="パス 362" d="M468.25,230.912s13.088-8.416,12.785-14.2-8.193-24.014-8.193-24.014-6.172-12.833-8.626-7.588,3.225,10.827,3.225,10.827l3.665,17.884-9.961,9.5Z" transform="translate(-328.243 -149.937)" fill="#a0616a"/>
  <circle id="楕円形_60" data-name="楕円形 60" cx="10.775" cy="10.775" r="10.775" transform="translate(96.763 47.446)" fill="#a0616a"/>
  <path id="パス_363" data-name="パス 363" d="M371.514,266.646l1.8,11.374,13.17-2.395s-.6-11.374-.6-12.571S371.514,266.646,371.514,266.646Z" transform="translate(-269.364 -201.839)" fill="#a0616a"/>
  <path id="パス_364" data-name="パス 364" d="M338.823,301.99s14.966-3.592,16.762-2.395,10.775,2.395,10.775,2.395l10.177,15.564-2.993,19.755s-.6,31.728.6,37.115,7.782,5.986-5.986,7.184-16.163-.6-25.741,1.8-17.36-1.2-14.966-3.592,6.585-40.707,1.8-44.3-6.585-22.149-6.585-22.149S338.823,304.983,338.823,301.99Z" transform="translate(-237.271 -225.809)" fill="#3f3d56"/>
  <path id="パス_365" data-name="パス 365" d="M444.8,301.961l1.8-1.8,3.592-3.592s11.673,5.088,11.075,6.884-4.49,12.272-4.49,12.272l-5.388,1.8Z" transform="translate(-317.504 -223.984)" fill="#3f3d56"/>
  <path id="パス_366" data-name="パス 366" d="M365.337,211.32l-.11-.863a6.787,6.787,0,0,0-2.157.339,3.542,3.542,0,0,1,.133-1.551,6.9,6.9,0,0,0-2,.868l-.435-1.575-5.984,2.949c-2.148,1.059-4.413,2.222-5.641,4.278-1.369,2.292-1.131,5.238-.195,7.739a62.869,62.869,0,0,0,3.738,7.075,17.674,17.674,0,0,0,1.7,2.891c2.259,2.816,6.656,3.385,9.841,1.685a5.7,5.7,0,0,0,2.727-2.806,18.236,18.236,0,0,0,.545-2.324c.394-1.609.851-4.931,2.158-5.949.575-.448,1.715,1.037,2.192.485,1.225-1.418.968-3.6.207-5.316a38.788,38.788,0,0,0-2.553-4.981A23.6,23.6,0,0,0,365.337,211.32Z" transform="translate(-254.038 -166.152)" fill="#2f2e41"/>
  <path id="パス_367" data-name="パス 367" d="M270.375,382.069s-14.367,13.769-12.571,20.952,16.163,28.136,16.163,28.136,13.769,7.184,15.564,0-9.578-5.388-9.578-5.388l-8.979-21.551,10.177-14.367Z" transform="translate(-194.564 -280.147)" fill="#a0616a"/>
  <path id="パス_368" data-name="パス 368" d="M305.773,341.391l-7.184-1.2s-5.388,5.986-7.184,8.381-5.388,8.381-5.388,8.381l12.571,8.979,9.578-10.177Z" transform="translate(-213.201 -252.639)" fill="#3f3d56"/>
</svg>
