<svg xmlns="http://www.w3.org/2000/svg" width="443.541" height="310.337" viewBox="0 0 443.541 310.337">
  <g id="グループ_18" data-name="グループ 18" transform="translate(0 -0.01)">
    <path id="パス_87" data-name="パス 87" d="M246.615,82.646c-18.03-6.857-37.082-12.584-56.531-11.864-28.6,1.056-56.048,17.146-69.492,40.772-11.406,20.018-12.813,43.48-17.727,65.7-6.047,27.365-17.649,53.381-30.037,78.815-6.652,13.664-13.672,27.623-14.765,42.6-1.514,20.8,9.111,41.517,25.774,55.349s38.792,21.131,61,22.722c11.819.847,24.17.061,34.668-5.085,11.107-5.445,19.2-15.284,30.356-20.652,10.334-4.975,22.423-5.67,34.026-5.024a161.453,161.453,0,0,1,44.421,8.837c16.217,5.695,31.3,13.947,47.457,19.723s34.259,9,50.8,4.181c15.546-4.529,27.82-15.526,38.886-26.662a472.6,472.6,0,0,0,49.592-58.662c9.986-14,19.281-28.761,23.7-45.072,8.444-31.187-3.175-66.37-28.945-87.668-21.352-17.645-50.006-25.3-78.054-29.951-25.578-4.238-55.152-4.5-78.7-15.546C290.59,104.607,270.159,91.605,246.615,82.646Z" transform="translate(-57.92 -70.71)" fill="#6c63ff" opacity="0.1"/>
    <path id="パス_88" data-name="パス 88" d="M632.58,617.422v14.863h4.226l-.818-15.955Z" transform="translate(-373.784 -364.176)" fill="#aaabb0"/>
    <path id="パス_89" data-name="パス 89" d="M477.41,610.092v14.863h4.23L480.822,609Z" transform="translate(-282.096 -359.845)" fill="#aaabb0"/>
    <rect id="長方形_47" data-name="長方形 47" width="5.453" height="26.457" rx="2.727" transform="translate(263.705 225.7)" fill="#aaabb0"/>
    <rect id="長方形_48" data-name="長方形 48" width="5.453" height="32.32" rx="2.727" transform="translate(193.747 219.834)" fill="#aaabb0"/>
    <path id="パス_90" data-name="パス 90" d="M732.84,233.891s5.453-2.32,6.272,0,1.227,22.366,1.227,22.366h-5.183Z" transform="translate(-456.722 -166.517)" fill="#aaabb0"/>
    <path id="パス_91" data-name="パス 91" d="M576,233.891s-5.458-2.32-6.276,0-1.227,22.366-1.227,22.366h5.183Z" transform="translate(-359.616 -166.517)" fill="#aaabb0"/>
    <path id="パス_92" data-name="パス 92" d="M529.728,115.409l-.818,16.639h3.682V115Z" transform="translate(-312.527 -67.946)" fill="#aaabb0"/>
    <path id="パス_93" data-name="パス 93" d="M581.17,249.613l1.092-24s-.409-5.318,12.543-3.682,50.869,4.909,50.869,4.909v22.775Z" transform="translate(-367.102 -159.872)" fill="#33323d"/>
    <path id="パス_94" data-name="パス 94" d="M608.961,597.472l-2.046,36.681s-30,16.639-66.415.818l3.273-38.591Z" transform="translate(-343.071 -381.316)" fill="#33323d"/>
    <path id="パス_95" data-name="パス 95" d="M580.25,164.3l.679,23.728h42.278l-2.455-31.362Z" transform="translate(-342.863 -92.568)" fill="#444053"/>
    <rect id="長方形_49" data-name="長方形 49" width="39.823" height="50.456" transform="translate(201.86 200.471)" fill="#4c4981"/>
    <path id="パス_96" data-name="パス 96" d="M612.818,606.147s5.728-4.5,6.681-3.138-3.4,7.229-5.179,6.546S612.818,606.147,612.818,606.147Z" transform="translate(-385.794 -385.082)" fill="#ffb9b9"/>
    <rect id="長方形_50" data-name="長方形 50" width="261.41" height="130.916" transform="translate(124.579 88.374)" fill="#504f60"/>
    <path id="パス_97" data-name="パス 97" d="M580.187,137.682s-2.046-19.093,0-21.409S616.6,92,648.373,117.77c0,0,3,.139,2.455,6.955a81.827,81.827,0,0,0,.065,12.957S582.507,142.591,580.187,137.682Z" transform="translate(-365.984 -91.172)" fill="#33323d"/>
    <path id="パス_98" data-name="パス 98" d="M580.187,137.682s-2.046-19.093,0-21.409S616.6,92,648.373,117.77c0,0,3,.139,2.455,6.955a81.827,81.827,0,0,0,.065,12.957S582.507,142.591,580.187,137.682Z" transform="translate(-365.984 -91.172)" opacity="0.1"/>
    <path id="パス_99" data-name="パス 99" d="M580.187,143.682s-2.046-19.093,0-21.409S616.6,98,648.373,123.77c0,0,3,.139,2.455,6.955a81.827,81.827,0,0,0,.065,12.957S582.507,148.591,580.187,143.682Z" transform="translate(-365.984 -94.717)" fill="#33323d"/>
    <path id="パス_100" data-name="パス 100" d="M730.013,169.05s2.181,8.182,1.5,9.545-.556,5.183-.556,5.183.147,2.455-.945,2.725-2.046.409-1.162,1.227,0,2.046,0,2.046a6.374,6.374,0,0,0,0,3.138c.479,1.227-2.8,1.739-2.52,3.273s1.195,5.863,0,6,.409,5.453-.667,5.453-1.841,9.545-1.841,9.545-7.569-6.407-12.613-4.635c0,0,.409-5.318,2.046-7.229s1.141-6.816,1.141-6.816l8.117-24.412Z" transform="translate(-443.941 -128.812)" fill="#4c4981"/>
    <path id="パス_101" data-name="パス 101" d="M639.272,403.019c-1.771,1.96-3.682-8.505-3.682-8.505s-5.044,6.955-8.317,2.32c-2.266-3.212-.479-12.31.818-17.592.581-2.348,1.072-3.944,1.072-3.944l7.364-1.227s.025,1.6.188,3.551c.221,2.631.7,5.9,1.718,6.677C640.23,385.652,641.048,401.043,639.272,403.019Z" transform="translate(-393.703 -249.956)" fill="#ae6e79"/>
    <path id="パス_102" data-name="パス 102" d="M619.19,139.867s-12.822-.135-15.955,6.681-3.273,9.14-4.5,10.228S612.1,163.6,612.1,163.6l.683,23.454a7.794,7.794,0,0,1,7.5-1.587c4.635,1.313,10.5,0,10.5,0s-.274-.5,3.547,0,15.955-5.912,15.955-5.912.2-10.261-.069-12.445,8.657-18.238,8.657-18.238,6.955-6.681-.27-9c0,0-2.557-3.854-9.135-3.817S619.19,139.867,619.19,139.867Z" transform="translate(-377.438 -109.312)" opacity="0.1"/>
    <path id="パス_103" data-name="パス 103" d="M619.19,138.867s-12.822-.135-15.955,6.681-3.273,9.14-4.5,10.228S612.1,162.6,612.1,162.6l.683,23.454a7.794,7.794,0,0,1,7.5-1.587c4.635,1.313,10.5,0,10.5,0s-.274-.5,3.547,0,15.955-5.912,15.955-5.912,4.77-7.773,4.5-9.954,9.545-18.684,9.545-18.684,1.5-8.726-5.728-11.046c0,0-2.557-3.854-9.135-3.817S619.19,138.867,619.19,138.867Z" transform="translate(-377.438 -108.721)" fill="#4c4981"/>
    <path id="パス_104" data-name="パス 104" d="M639.544,377.615c-2.811-.876-7.221,1.056-8.624,1.636.581-2.348,1.072-3.944,1.072-3.944l7.364-1.227S639.368,375.684,639.544,377.615Z" transform="translate(-396.499 -249.962)" opacity="0.1"/>
    <path id="パス_105" data-name="パス 105" d="M602.267,185.71h-3.952s-.818,8.321,0,10.776,1.227,2.1.953,3.915,1.911,4.6,1.911,4.6.27,6.857,1.636,9.41-1.5,14-1.5,14a16.471,16.471,0,0,0,3.408,5.318c2.32,2.316,3.547,10.907,2.864,14.18a3.93,3.93,0,0,0,1.911,4.5s1.092,15.276,1.5,15.276,8.317-4.091,10.772-.548l-1.911-14.045L620,225.954s-2.594-3.412-1.227-6.411-1.092-10.093-1.092-10.093l-3.547-15.816Z" transform="translate(-377.018 -138.656)" fill="#4c4981"/>
    <path id="パス_106" data-name="パス 106" d="M536.18,711.922s-5.728-1.227-5.863,0-6.82,13.775,1.5,17.457,30.544,11.59,66.685,1.362c0,0,2.316.818,1.771-4.226s-.544-10.637-.544-10.637-5.458-1.5-9.549-.953S550.5,722.7,536.18,711.922Z" transform="translate(-335.478 -449.267)" fill="#33323d"/>
    <path id="パス_107" data-name="パス 107" d="M536.18,711.922s-5.728-1.227-5.863,0-6.82,13.775,1.5,17.457,30.544,11.59,66.685,1.362c0,0,2.316.818,1.771-4.226s-.544-10.637-.544-10.637-5.458-1.5-9.549-.953S550.5,722.7,536.18,711.922Z" transform="translate(-335.478 -449.267)" opacity="0.1"/>
    <path id="パス_108" data-name="パス 108" d="M536.18,707.922s-5.728-1.227-5.863,0-6.82,13.775,1.5,17.457,30.544,11.59,66.685,1.362c0,0,2.316.818,1.771-4.226s-.544-10.637-.544-10.637-5.458-1.5-9.549-.953S550.5,718.7,536.18,707.922Z" transform="translate(-335.478 -446.903)" fill="#33323d"/>
    <path id="パス_109" data-name="パス 109" d="M628.284,196.508c-.352,2-1.15,3.923-1.272,5.948s.659,4.328,2.528,5.122a8.521,8.521,0,0,1,1.51.614,3.319,3.319,0,0,1,1.166,2.262,12.355,12.355,0,0,1,.143,3.363c-.1,1.129-.344,2.344.213,3.33.978,1.747,3.526,1.489,5.466,1l-.667,5.167a.982.982,0,0,0,1.195,1.362,10.425,10.425,0,0,0,4.864-1.227,4.378,4.378,0,0,0,2.246-4.206c-.319-1.931-2.316-3.465-2.046-5.4.209-1.5,1.677-2.455,2.643-3.608a6.94,6.94,0,0,0,.471-7.708,8.77,8.77,0,0,0-6.742-4.14c-1.51-.151-3.081.033-4.5-.491a3.412,3.412,0,0,1-2.086-2.2" transform="translate(-394.183 -144.553)" fill="#444053"/>
    <path id="パス_110" data-name="パス 110" d="M513.84,621.321l1.428-3.109s7.708-7.18,9.479-7.683,9-2.7,10.093-2.7,21-1.092,21-1.092l2.316,5.458-24.989,5.486-8.424,6.137Z" transform="translate(-327.318 -387.438)" fill="#767d9f"/>
    <path id="パス_111" data-name="パス 111" d="M638.967,421.928l-1.305,10.044-.5,3.866-5.863.818s-.634-1.358-1.53-3.445c-2.721-6.333-7.843-19.392-4.872-21.646,3.948-3,4.909,6.955,4.909,6.955l4.5-2.185Z" transform="translate(-392.407 -271.778)" fill="#ffb9b9"/>
    <rect id="長方形_51" data-name="長方形 51" width="29.607" height="44.728" transform="translate(215.974 168.834)" fill="#fff"/>
    <rect id="長方形_52" data-name="長方形 52" width="29.607" height="44.728" transform="translate(215.974 168.834)" opacity="0.1"/>
    <rect id="長方形_53" data-name="長方形 53" width="29.607" height="44.728" transform="translate(229.599 166.927) rotate(8.41)" fill="#fff"/>
    <rect id="長方形_54" data-name="長方形 54" width="15.239" height="23.021" transform="translate(232.357 171.147) rotate(8.41)" fill="#6c63ff"/>
    <rect id="長方形_55" data-name="長方形 55" width="18.463" height="4.999" transform="translate(227.373 200.401) rotate(8.41)" fill="#6c63ff"/>
    <circle id="楕円形_27" data-name="楕円形 27" cx="17.113" cy="17.113" r="17.113" transform="translate(236.229 21.759)" opacity="0.1"/>
    <circle id="楕円形_28" data-name="楕円形 28" cx="17.113" cy="17.113" r="17.113" transform="translate(236.229 21.349)" fill="#ae6e79"/>
    <path id="パス_112" data-name="パス 112" d="M628.625,134.731a1.948,1.948,0,0,1,.119-1.321c.651-1.354,2.5-1.473,4.005-1.4,3.531.164,7.4.184,10.166-2.046,1.146-.916,2.426-3.22,4.091-2.782,1.481.389,2.1,2.4,3.641,2.843,1.117.323,2.275-.192,3.412-.409a24.642,24.642,0,0,1,4.975-.041,6.121,6.121,0,0,0,4.6-1.518c1.53-1.636,1.281-4.193,1.146-6.435a34.644,34.644,0,0,1,.585-8.649c.556-2.831,1.411-6-.151-8.424-1.489-2.311-4.574-2.946-6.681-4.717-1.972-1.636-3.015-4.259-5.1-5.777-2.622-1.911-6.186-1.636-9.41-1.305l-7,.745a10.453,10.453,0,0,0-5.167,1.485c-2.68,1.939-3.048,5.969-5.584,8.092a22.73,22.73,0,0,1-3.862,2.111,4.638,4.638,0,0,0-2.68,3.273c-.123,1.227.54,2.361.863,3.543.765,2.823-.43,5.728-1.195,8.571s-.912,6.3,1.309,8.182c.45.385.974.679,1.411,1.08,1.5,1.371,1.706,3.682,1.358,5.678" transform="translate(-389.393 -83.586)" fill="#444053"/>
    <ellipse id="楕円形_29" data-name="楕円形 29" cx="0.409" cy="1.023" rx="0.409" ry="1.023" transform="translate(254.328 57.793)" fill="#444053"/>
    <ellipse id="楕円形_30" data-name="楕円形 30" cx="0.409" cy="1.023" rx="0.409" ry="1.023" transform="translate(254.328 62.056)" fill="#444053"/>
    <path id="パス_113" data-name="パス 113" d="M652.651,430.921a7.494,7.494,0,0,0,.9-3.5l-4.877-6.079S650.736,433.127,652.651,430.921Z" transform="translate(-406.987 -277.887)" fill="#ae6e79"/>
    <path id="パス_114" data-name="パス 114" d="M574.316,650.886s-8,12.372-33,11.046c-23.552-1.227-35.049-12.818-34.5-16.909s-1.5-14.049,3.543-16.913c2.925-1.657,6.775-.675,9.491.446a5.359,5.359,0,0,0,5.633-1.01c2.483-2.238,7.114-4.758,14.425-2.774a5.2,5.2,0,0,0,2.864-.053c3.044-.929,10.289-2.541,15.546,1.039a5.318,5.318,0,0,0,5.695.217l.074-.045c2.455-1.5,13.91,12.682,13.91,12.682S578.542,649.523,574.316,650.886Z" transform="translate(-323.155 -397.366)" opacity="0.1"/>
    <path id="パス_115" data-name="パス 115" d="M574.316,651.886s-8,12.371-33,11.046c-23.552-1.227-35.049-12.818-34.5-16.909s-1.5-14.049,3.543-16.913c2.925-1.657,6.775-.675,9.491.446a5.359,5.359,0,0,0,5.633-1.01c2.483-2.238,7.114-4.758,14.425-2.774a5.2,5.2,0,0,0,2.864-.053c3.044-.929,10.289-2.541,15.546,1.039a5.319,5.319,0,0,0,5.695.217l.074-.045c2.455-1.5,13.91,12.682,13.91,12.682S578.542,650.523,574.316,651.886Z" transform="translate(-323.155 -397.957)" fill="#767d9f"/>
    <circle id="楕円形_31" data-name="楕円形 31" cx="16.299" cy="16.299" r="16.299" transform="translate(201.86 226.175)" opacity="0.1"/>
    <circle id="楕円形_32" data-name="楕円形 32" cx="16.299" cy="16.299" r="16.299" transform="translate(201.86 226.584)" fill="#ffb9b9"/>
    <path id="パス_116" data-name="パス 116" d="M560.334,629.382a6.793,6.793,0,0,0-4.23,2.8,11.29,11.29,0,0,1-1.407,2.655c-1.031,1.035-2.77,1.056-4.165,1.636s-2.316,2.626-.949,3.273a3.047,3.047,0,0,0-2.655,2.692,8.006,8.006,0,0,0,.8,3.85c1.563,4.026,3.244,8.227,6.689,11.091,5.613,4.672,14.073,4.455,21.613,3.96a3.535,3.535,0,0,0,1.771-.409,3.284,3.284,0,0,0,1.055-2.483c.569-3.878,2.672-7.4,4.046-11.1s1.939-8.051-.376-11.328C579.116,631.154,566.07,627.828,560.334,629.382Z" transform="translate(-346.847 -400.589)" fill="#b96b6b"/>
    <path id="パス_117" data-name="パス 117" d="M646,461.935l-.5,3.866-5.863.818s-.634-1.358-1.53-3.445l7.8-1.465Z" transform="translate(-400.742 -301.741)" opacity="0.1"/>
    <path id="パス_118" data-name="パス 118" d="M650.678,547.944l3.412-3.956-.683-21.818a35.394,35.394,0,0,0,.683-4.774c.135-2.32-1.706-7.5-1.706-7.5a16.25,16.25,0,0,1,1.158-3c.818-1.636-1.154-5.318-1.154-5.318s-2.937-9.545-1.71-14.319-.3-7.5-.3-7.5-1.2-5.318-1.064-7.5-2.729-4.23-2.729-4.23l-2.181-5.318-8.726,1.636v18.41s.544,17.592,0,21a12.475,12.475,0,0,0,1.088,6.681s-.953,5.044-.135,6.955,2.455,6.546,2.455,6.546a10.638,10.638,0,0,0,.274,4.975,4.665,4.665,0,0,1,0,3.751Z" transform="translate(-399.246 -302.332)" fill="#767d9f"/>
    <g id="グループ_14" data-name="グループ 14" transform="translate(229.517 23.685)" opacity="0.1">
      <path id="パス_119" data-name="パス 119" d="M731.607,132.943a34.636,34.636,0,0,0-.618,7.27,34.8,34.8,0,0,1,.634-6.038,23.366,23.366,0,0,0,.72-5.584A33.957,33.957,0,0,1,731.607,132.943Z" transform="translate(-685.142 -128.59)"/>
      <path id="パス_120" data-name="パス 120" d="M622.16,173.035c-.438-.409-.961-.7-1.411-1.084a5.615,5.615,0,0,1-1.8-4.091,6.257,6.257,0,0,0,1.8,5.318c.45.389.974.683,1.411,1.084a5,5,0,0,1,1.481,3.416A5.618,5.618,0,0,0,622.16,173.035Z" transform="translate(-618.934 -151.794)"/>
      <path id="パス_121" data-name="パス 121" d="M622.044,135.683a7.711,7.711,0,0,0-.221-2.573c-.237-.875-.663-1.731-.818-2.61a2.718,2.718,0,0,1-.045.295c-.119,1.227.544,2.361.863,3.543A6.951,6.951,0,0,1,622.044,135.683Z" transform="translate(-620.122 -129.719)"/>
      <path id="パス_122" data-name="パス 122" d="M670.314,170.9a6.072,6.072,0,0,1-4.6,1.518,24.343,24.343,0,0,0-4.975.045c-1.137.229-2.3.74-3.412.409-1.542-.446-2.16-2.455-3.637-2.843-1.681-.442-2.962,1.861-4.091,2.778-2.761,2.209-6.636,2.189-10.166,2.046-1.5-.07-3.355.049-4,1.407a1.9,1.9,0,0,0-.119,1.321l-5,.785a9.7,9.7,0,0,1-.135,1.227l5.134-.818a1.9,1.9,0,0,1,.119-1.321c.646-1.358,2.5-1.477,4-1.407,3.531.164,7.4.184,10.166-2.046,1.146-.916,2.426-3.22,4.091-2.778,1.477.385,2.095,2.4,3.637,2.843,1.117.319,2.275-.192,3.412-.409a24.344,24.344,0,0,1,4.975-.045,6.121,6.121,0,0,0,4.6-1.518c1.133-1.215,1.3-3.027,1.227-4.795A5.339,5.339,0,0,1,670.314,170.9Z" transform="translate(-625.579 -151.463)"/>
    </g>
    <g id="グループ_15" data-name="グループ 15" transform="translate(232.895 59.037)" opacity="0.1">
      <path id="パス_123" data-name="パス 123" d="M630.676,220.325a8.275,8.275,0,0,0-1.51-.614,3.907,3.907,0,0,1-1.976-2.021,4.377,4.377,0,0,0,2.385,3.248,8.276,8.276,0,0,1,1.51.614,2.267,2.267,0,0,1,.724.847A3.157,3.157,0,0,0,630.676,220.325Z" transform="translate(-627.19 -216.589)"/>
      <path id="パス_124" data-name="パス 124" d="M645.014,247.2c-1.886.479-4.349.728-5.384-.871a2.811,2.811,0,0,0,.327,1.1c.884,1.575,3.044,1.522,4.881,1.133Z" transform="translate(-634.541 -233.513)"/>
      <path id="パス_125" data-name="パス 125" d="M659.927,251.2a4.389,4.389,0,0,1-2.25,4.189,10.689,10.689,0,0,1-4.864,1.227,1.669,1.669,0,0,1-.794-.09.974.974,0,0,0,1.2,1.317,10.426,10.426,0,0,0,4.864-1.227,4.371,4.371,0,0,0,2.246-4.206,4.64,4.64,0,0,0-.405-1.211Z" transform="translate(-641.812 -236.39)"/>
      <path id="パス_126" data-name="パス 126" d="M670.3,215a6.734,6.734,0,0,1-1.227,5.789c-.966,1.17-2.434,2.107-2.643,3.608a3.408,3.408,0,0,0,.409,1.992,2.66,2.66,0,0,1,0-.765c.209-1.5,1.677-2.455,2.643-3.608A6.882,6.882,0,0,0,670.3,215Z" transform="translate(-650.363 -215)"/>
    </g>
    <g id="グループ_16" data-name="グループ 16" transform="translate(200.043 228.227)" opacity="0.1">
      <path id="パス_127" data-name="パス 127" d="M553.469,636.841c1.391-.577,3.13-.6,4.165-1.636a11.34,11.34,0,0,0,1.407-2.651,6.724,6.724,0,0,1,4.226-2.8c5.728-1.555,18.786,1.767,22.19,6.583a8.94,8.94,0,0,1,1.563,4.942,9.238,9.238,0,0,0-1.559-5.756c-3.4-4.815-16.45-8.137-22.19-6.583a6.757,6.757,0,0,0-4.226,2.8,11.341,11.341,0,0,1-1.407,2.651c-1.035,1.035-2.774,1.056-4.165,1.636a2.471,2.471,0,0,0-1.559,2.6A2.815,2.815,0,0,1,553.469,636.841Z" transform="translate(-549.823 -628.555)"/>
      <path id="パス_128" data-name="パス 128" d="M546.934,658.442a3.035,3.035,0,0,1,2.655-2.692,1.088,1.088,0,0,1-.626-.7,3.179,3.179,0,0,0-2.046,2.573,4.321,4.321,0,0,0,0,1A.7.7,0,0,0,546.934,658.442Z" transform="translate(-546.889 -644.211)"/>
    </g>
    <rect id="長方形_56" data-name="長方形 56" width="37.229" height="48.549" transform="translate(249.521 94.2)" fill="#fff"/>
    <rect id="長方形_57" data-name="長方形 57" width="37.229" height="48.549" transform="translate(249.521 94.2)" opacity="0.1"/>
    <rect id="長方形_58" data-name="長方形 58" width="37.229" height="48.549" transform="translate(264.285 103.36) rotate(-9.76)" fill="#fff"/>
    <rect id="長方形_59" data-name="長方形 59" width="8.747" height="11.406" transform="translate(273.177 135.977) rotate(-9.76)" fill="#6c63ff"/>
    <rect id="長方形_60" data-name="長方形 60" width="8.747" height="11.406" transform="translate(285.106 133.923) rotate(-9.76)" fill="#6c63ff"/>
    <rect id="長方形_61" data-name="長方形 61" width="30.673" height="11.457" transform="translate(271.924 121.162) rotate(-9.744)" fill="#6c63ff"/>
    <rect id="長方形_62" data-name="長方形 62" width="30.673" height="2.556" transform="translate(269.404 107.685) rotate(-9.744)" fill="#6c63ff"/>
    <rect id="長方形_63" data-name="長方形 63" width="30.673" height="2.556" transform="translate(270.396 112.319) rotate(-9.744)" fill="#6c63ff"/>
    <path id="パス_129" data-name="パス 129" d="M703.207,268.71s-17.113,17.183-8.522,21.548,14.184-14.523,14.184-14.523l1.358-4.3Z" transform="translate(-432.751 -187.7)" fill="#ae6e79"/>
    <path id="パス_130" data-name="パス 130" d="M712.285,261.431,710.17,266.1s10.432,1.465,12.613,4.619l-1.293-8.244-1.534-3.518Z" transform="translate(-443.327 -181.939)" opacity="0.1"/>
    <path id="パス_131" data-name="パス 131" d="M713.285,260.431,711.17,265.1s10.432,1.465,12.613,4.619l-1.293-8.244-1.534-3.518Z" transform="translate(-443.918 -181.348)" fill="#4c4981"/>
    <path id="パス_132" data-name="パス 132" d="M812.455,403.26l-.225.155.311.139.335-.029.041-.233Z" transform="translate(-479.937 -238.276)" fill="#464a5f"/>
    <path id="パス_133" data-name="パス 133" d="M812.455,403.26l-.225.155.311.139.335-.029.041-.233Z" transform="translate(-479.937 -238.276)" opacity="0.1"/>
    <path id="パス_134" data-name="パス 134" d="M812.189,402.846l-.229.147-.18-.221.11-.18.1-.033Z" transform="translate(-479.671 -237.862)" fill="#9c9ca1"/>
    <path id="パス_135" data-name="パス 135" d="M812.189,402.846l-.229.147-.18-.221.11-.18.1-.033Z" transform="translate(-479.671 -237.862)" opacity="0.1"/>
    <path id="パス_136" data-name="パス 136" d="M885.754,368.673,869,344.482a1.992,1.992,0,0,0-2.774-.511L828.9,369.6a2,2,0,0,0-.52,2.778l16.7,24.5Z" transform="translate(-512.967 -231.962)" fill="#9c9ca1"/>
    <path id="パス_137" data-name="パス 137" d="M885.754,368.673,869,344.482a1.992,1.992,0,0,0-2.774-.511L828.9,369.6a2,2,0,0,0-.52,2.778l16.7,24.5Z" transform="translate(-512.967 -231.962)" opacity="0.1"/>
    <path id="パス_138" data-name="パス 138" d="M886.752,368.812,870,344.621a2,2,0,0,0-2.778-.511l-37.331,25.643a2,2,0,0,0-.524,2.778l16.7,24.51Z" transform="translate(-513.557 -232.044)" fill="#9c9ca1"/>
    <path id="パス_139" data-name="パス 139" d="M925.5,410.237l-13.91-4.467-40.682,28.2,14.131,4.623a2.14,2.14,0,0,0,1.894-.286l38.681-27.312a.409.409,0,0,0-.115-.757Z" transform="translate(-538.306 -268.687)" fill="#464a5f"/>
    <path id="パス_140" data-name="パス 140" d="M925.5,410.237l-13.91-4.467-40.682,28.2,14.131,4.623a2.14,2.14,0,0,0,1.894-.286l38.681-27.312a.409.409,0,0,0-.115-.757Z" transform="translate(-538.306 -268.687)" opacity="0.1"/>
    <path id="パス_141" data-name="パス 141" d="M925.292,409.542l-13.91-4.472L870.7,433.27l14.131,4.615a2.123,2.123,0,0,0,1.894-.282l38.682-27.312a.409.409,0,0,0-.115-.749Z" transform="translate(-538.182 -268.273)" fill="#464a5f"/>
    <g id="グループ_17" data-name="グループ 17" transform="translate(326.306 125.554)" opacity="0.1">
      <path id="パス_142" data-name="パス 142" d="M949.329,399.988l-1.027-1.473a.409.409,0,0,0-.556-.1l-1.526,1.019a.409.409,0,0,0-.11.552l.945,1.452a.409.409,0,0,0,.552.119l1.608-1.01A.409.409,0,0,0,949.329,399.988Z" transform="translate(-909.009 -389.854)"/>
      <path id="パス_143" data-name="パス 143" d="M942.625,404.634l-1.031-1.469a.409.409,0,0,0-.556-.1l-1.522,1.027a.409.409,0,0,0-.115.552l.945,1.452a.409.409,0,0,0,.552.123l1.612-1.01a.409.409,0,0,0,.115-.573Z" transform="translate(-905.046 -392.602)"/>
      <path id="パス_144" data-name="パス 144" d="M935.58,409.5l-1.031-1.469a.409.409,0,0,0-.556-.1l-1.526,1.027a.409.409,0,0,0-.11.556l.945,1.452a.409.409,0,0,0,.552.119l1.608-1.01a.409.409,0,0,0,.119-.573Z" transform="translate(-900.882 -395.479)"/>
      <path id="パス_145" data-name="パス 145" d="M928.459,414.44l-1.031-1.473a.409.409,0,0,0-.552-.1L925.35,413.9a.409.409,0,0,0-.11.552l.945,1.452a.409.409,0,0,0,.548.123l1.612-1.015a.409.409,0,0,0,.115-.569Z" transform="translate(-896.677 -398.395)"/>
      <path id="パス_146" data-name="パス 146" d="M921.335,419.374l-1.031-1.469a.409.409,0,0,0-.556-.1l-1.522,1.027a.409.409,0,0,0-.115.552l.945,1.452a.409.409,0,0,0,.552.123l1.612-1.015a.409.409,0,0,0,.115-.569Z" transform="translate(-892.466 -401.311)"/>
      <path id="パス_147" data-name="パス 147" d="M914.22,424.367l-1.281-1.825a.184.184,0,0,0-.258-.049l-1.874,1.264a.184.184,0,0,0-.053.258l1.174,1.8a.188.188,0,0,0,.258.057l1.98-1.227a.188.188,0,0,0,.053-.282Z" transform="translate(-888.137 -404.103)"/>
      <path id="パス_148" data-name="パス 148" d="M907.088,429.3l-1.289-1.825a.188.188,0,0,0-.262-.049l-1.874,1.264a.188.188,0,0,0-.049.258l1.174,1.8a.18.18,0,0,0,.258.057l1.976-1.227a.184.184,0,0,0,.065-.282Z" transform="translate(-883.919 -407.016)"/>
      <path id="パス_149" data-name="パス 149" d="M900.792,433.7l-1.281-1.808a.188.188,0,0,0-.258-.045l-1.874,1.26a.192.192,0,0,0-.053.262l1.174,1.8a.192.192,0,0,0,.258.057l1.98-1.227a.188.188,0,0,0,.053-.3Z" transform="translate(-880.204 -409.628)"/>
      <path id="パス_150" data-name="パス 150" d="M893.729,438.553l-1.281-1.825a.188.188,0,0,0-.258-.045l-1.874,1.26a.188.188,0,0,0-.053.262l1.174,1.8a.192.192,0,0,0,.258.057l1.98-1.227a.192.192,0,0,0,.053-.286Z" transform="translate(-876.03 -412.488)"/>
      <path id="パス_151" data-name="パス 151" d="M886.89,443.247l-1.281-1.825a.184.184,0,0,0-.258-.049l-1.874,1.264a.184.184,0,0,0-.053.258l1.174,1.8a.188.188,0,0,0,.258.057l1.98-1.227a.188.188,0,0,0,.053-.282Z" transform="translate(-871.988 -415.259)"/>
      <path id="パス_152" data-name="パス 152" d="M880.067,448.027,878.8,446.2a.188.188,0,0,0-.258-.045l-1.874,1.26a.188.188,0,0,0-.053.262l1.174,1.8a.192.192,0,0,0,.258.057l1.98-1.227a.188.188,0,0,0,.041-.282Z" transform="translate(-867.964 -418.084)"/>
      <path id="パス_153" data-name="パス 153" d="M873.21,452.757l-1.281-1.825a.184.184,0,0,0-.258-.049l-1.874,1.256a.184.184,0,0,0-.053.258l1.174,1.8a.188.188,0,0,0,.258.057l1.98-1.227a.188.188,0,0,0,.053-.274Z" transform="translate(-863.905 -420.879)"/>
      <path id="パス_154" data-name="パス 154" d="M944.842,393.478l-1.031-1.473a.409.409,0,0,0-.556-.1l-1.51,1.031a.409.409,0,0,0-.115.552l.945,1.452a.409.409,0,0,0,.552.119l1.612-1.01a.409.409,0,0,0,.1-.569Z" transform="translate(-906.364 -386.007)"/>
      <path id="パス_155" data-name="パス 155" d="M934.975,379.239l-1.031-1.481a.409.409,0,0,0-.552-.1l-1.526,1.027a.409.409,0,0,0-.115.552l.945,1.452a.409.409,0,0,0,.552.123l1.612-1.01A.409.409,0,0,0,934.975,379.239Z" transform="translate(-900.526 -377.59)"/>
      <path id="パス_156" data-name="パス 156" d="M938.119,398.126l-1.031-1.469a.409.409,0,0,0-.552-.1l-1.526,1.027a.409.409,0,0,0-.11.552l.941,1.452a.409.409,0,0,0,.552.123L938,398.7a.409.409,0,0,0,.115-.573Z" transform="translate(-902.385 -388.758)"/>
      <path id="パス_157" data-name="パス 157" d="M931.072,402.994l-1.031-1.469a.409.409,0,0,0-.556-.1l-1.522,1.015a.409.409,0,0,0-.115.556l.945,1.452a.409.409,0,0,0,.552.119l1.612-1.01A.409.409,0,0,0,931.072,402.994Z" transform="translate(-898.219 -391.633)"/>
      <path id="パス_158" data-name="パス 158" d="M923.949,407.928l-1.027-1.473a.409.409,0,0,0-.556-.1L920.84,407.4a.409.409,0,0,0-.11.552l.945,1.452a.409.409,0,0,0,.552.119l1.608-1.01a.409.409,0,0,0,.115-.581Z" transform="translate(-894.013 -394.546)"/>
      <path id="パス_159" data-name="パス 159" d="M928.425,384.126l-1.031-1.469a.409.409,0,0,0-.552-.1l-1.526,1.027a.409.409,0,0,0-.115.552l.945,1.452a.409.409,0,0,0,.552.123l1.612-1.01a.409.409,0,0,0,.115-.573Z" transform="translate(-896.656 -380.485)"/>
      <path id="パス_160" data-name="パス 160" d="M921.385,389l-1.031-1.473a.409.409,0,0,0-.556-.1l-1.522,1.015a.409.409,0,0,0-.115.552l.945,1.452a.409.409,0,0,0,.552.119l1.612-1.01A.409.409,0,0,0,921.385,389Z" transform="translate(-892.496 -383.36)"/>
      <path id="パス_161" data-name="パス 161" d="M914.259,393.932l-1.031-1.469a.409.409,0,0,0-.552-.106L911.15,393.4a.409.409,0,0,0-.11.552l.945,1.452a.409.409,0,0,0,.552.123l1.608-1.015a.409.409,0,0,0,.115-.581Z" transform="translate(-888.287 -386.278)"/>
      <path id="パス_162" data-name="パス 162" d="M916.847,412.862l-1.031-1.469a.409.409,0,0,0-.552-.106l-1.514,1.031a.409.409,0,0,0-.11.552l.929,1.452a.409.409,0,0,0,.548.123l1.612-1.015a.409.409,0,0,0,.119-.569Z" transform="translate(-889.823 -397.463)"/>
      <path id="パス_163" data-name="パス 163" d="M909.7,417.794l-1.031-1.469a.409.409,0,0,0-.556-.1L906.6,417.25a.409.409,0,0,0-.115.552l.945,1.452a.409.409,0,0,0,.552.123l1.612-1.011a.409.409,0,0,0,.115-.573Z" transform="translate(-885.594 -400.378)"/>
      <path id="パス_164" data-name="パス 164" d="M902.59,422.787l-1.281-1.825a.184.184,0,0,0-.258-.049l-1.874,1.264a.184.184,0,0,0-.053.258l1.174,1.8a.184.184,0,0,0,.258.057l1.98-1.227a.188.188,0,0,0,.053-.282Z" transform="translate(-881.265 -403.17)"/>
      <path id="パス_165" data-name="パス 165" d="M896.287,427.157l-1.281-1.829a.188.188,0,0,0-.258-.045l-1.87,1.26a.192.192,0,0,0-.053.262l1.174,1.8a.192.192,0,0,0,.258.057l1.98-1.227a.18.18,0,0,0,.049-.282Z" transform="translate(-877.545 -405.752)"/>
      <path id="パス_166" data-name="パス 166" d="M889.22,432.043l-1.281-1.825a.188.188,0,0,0-.258-.045l-1.874,1.26a.184.184,0,0,0-.053.258l1.174,1.808a.192.192,0,0,0,.258.057l1.98-1.227a.192.192,0,0,0,.053-.286Z" transform="translate(-873.365 -408.642)"/>
      <path id="パス_167" data-name="パス 167" d="M882.38,436.777l-1.281-1.825a.184.184,0,0,0-.258-.049l-1.874,1.248a.184.184,0,0,0-.053.258l1.174,1.8a.188.188,0,0,0,.258.057l1.98-1.227a.188.188,0,0,0,.053-.266Z" transform="translate(-869.323 -411.436)"/>
      <path id="パス_168" data-name="パス 168" d="M926.389,396.226l-1.031-1.469a.409.409,0,0,0-.552-.1l-1.526,1.031a.409.409,0,0,0-.11.552l.945,1.452a.409.409,0,0,0,.548.119l1.612-1.01a.409.409,0,0,0,.115-.573Z" transform="translate(-895.454 -387.635)"/>
      <path id="パス_169" data-name="パス 169" d="M919.255,401.158l-1.031-1.473a.409.409,0,0,0-.556-.1l-1.522,1.031a.409.409,0,0,0-.115.552l.945,1.452a.409.409,0,0,0,.552.123l1.612-1.015a.409.409,0,0,0,.115-.569Z" transform="translate(-891.237 -390.545)"/>
      <path id="パス_170" data-name="パス 170" d="M912.143,406.094l-1.031-1.469a.409.409,0,0,0-.556-.1l-1.526,1.027a.409.409,0,0,0-.11.552l.945,1.452a.409.409,0,0,0,.552.123l1.608-1.015a.409.409,0,0,0,.119-.569Z" transform="translate(-887.034 -393.464)"/>
      <path id="パス_171" data-name="パス 171" d="M905.019,411.026l-1.031-1.469a.409.409,0,0,0-.552-.1l-1.526,1.027a.409.409,0,0,0-.11.552l.945,1.469a.409.409,0,0,0,.548.123l1.612-1.01a.409.409,0,0,0,.115-.589Z" transform="translate(-882.827 -396.38)"/>
      <path id="パス_172" data-name="パス 172" d="M897.952,416.017l-1.281-1.825a.184.184,0,0,0-.258-.049l-1.874,1.264a.188.188,0,0,0-.053.258l1.174,1.808a.184.184,0,0,0,.258.053l1.98-1.227a.188.188,0,0,0,.053-.282Z" transform="translate(-878.526 -399.169)"/>
      <path id="パス_173" data-name="パス 173" d="M891.6,420.386l-1.281-1.829a.192.192,0,0,0-.262-.045l-1.87,1.26a.192.192,0,0,0-.053.262l1.174,1.8a.188.188,0,0,0,.258.057l1.98-1.227a.188.188,0,0,0,.053-.282Z" transform="translate(-874.773 -401.751)"/>
      <path id="パス_174" data-name="パス 174" d="M884.538,425.246l-1.281-1.829a.192.192,0,0,0-.262-.045l-1.874,1.26a.2.2,0,0,0-.053.262l1.178,1.8a.188.188,0,0,0,.258.057l1.976-1.227a.184.184,0,0,0,.057-.282Z" transform="translate(-870.598 -404.623)"/>
      <path id="パス_175" data-name="パス 175" d="M877.7,430.006l-1.281-1.825a.188.188,0,0,0-.262-.049l-1.874,1.264a.188.188,0,0,0-.049.258l1.174,1.8a.18.18,0,0,0,.258.057l1.976-1.227a.184.184,0,0,0,.057-.282Z" transform="translate(-866.559 -407.435)"/>
      <path id="パス_176" data-name="パス 176" d="M875.54,441.513l-1.281-1.825a.188.188,0,0,0-.258-.045l-1.874,1.26a.184.184,0,0,0-.053.258l1.174,1.808a.192.192,0,0,0,.258.057l1.98-1.227a.192.192,0,0,0,.053-.286Z" transform="translate(-865.282 -414.237)"/>
      <path id="パス_177" data-name="パス 177" d="M868.7,446.247l-1.281-1.825a.184.184,0,0,0-.258-.049l-1.874,1.264a.184.184,0,0,0-.053.258l1.174,1.8a.188.188,0,0,0,.258.057l1.98-1.227a.188.188,0,0,0,.053-.282Z" transform="translate(-861.24 -417.032)"/>
      <path id="パス_178" data-name="パス 178" d="M879.5,418.027l-1.227-1.718a.254.254,0,0,0-.348-.061l-1.767,1.191a.25.25,0,0,0-.07.348l1.1,1.7a.245.245,0,0,0,.344.078l1.87-1.174a.254.254,0,0,0,.094-.36Z" transform="translate(-867.647 -400.406)"/>
      <path id="パス_179" data-name="パス 179" d="M872.69,422.76l-1.207-1.718a.249.249,0,0,0-.348-.065l-1.767,1.211a.245.245,0,0,0-.07.344l1.1,1.7a.254.254,0,0,0,.344.078l1.87-1.174a.254.254,0,0,0,.074-.376Z" transform="translate(-863.635 -403.201)"/>
      <path id="パス_180" data-name="パス 180" d="M865.85,427.5l-1.207-1.722a.254.254,0,0,0-.348-.061l-1.767,1.19a.25.25,0,0,0-.07.348l1.1,1.7a.246.246,0,0,0,.344.078l1.87-1.174a.25.25,0,0,0,.074-.356Z" transform="translate(-859.593 -406.002)"/>
      <path id="パス_181" data-name="パス 181" d="M859.012,432.247l-1.281-1.829a.188.188,0,0,0-.258-.045l-1.874,1.26a.192.192,0,0,0-.053.262l1.174,1.8a.192.192,0,0,0,.258.057l1.98-1.227a.18.18,0,0,0,.053-.282Z" transform="translate(-855.516 -408.76)"/>
      <path id="パス_182" data-name="パス 182" d="M936.1,386.334l-1.109-1.575a.409.409,0,0,0-.556-.1l-4.328,3.032a.409.409,0,0,0-.106.548l1.043,1.612a.409.409,0,0,0,.569.11l4.394-3.072A.409.409,0,0,0,936.1,386.334Z" transform="translate(-899.491 -381.728)"/>
      <path id="パス_183" data-name="パス 183" d="M866.687,434.462l-1.358-1.919a.184.184,0,0,0-.262-.045l-4.672,3.273a.184.184,0,0,0-.049.254L861.622,438a.188.188,0,0,0,.266.053l4.75-3.326a.192.192,0,0,0,.049-.266Z" transform="translate(-858.352 -410.013)"/>
      <path id="パス_184" data-name="パス 184" d="M894.935,398.717l-1.252-1.833a.188.188,0,0,0-.258-.049l-10.375,7a.188.188,0,0,0-.053.258l1.281,1.964a.188.188,0,0,0,.266.053l10.342-7.135a.188.188,0,0,0,.049-.262Z" transform="translate(-871.737 -388.943)"/>
    </g>
    <path id="パス_185" data-name="パス 185" d="M949.995,400.108l-1.031-1.473a.409.409,0,0,0-.556-.1l-1.522,1.031a.409.409,0,0,0-.115.552l.945,1.452a.409.409,0,0,0,.552.123l1.612-1.015a.409.409,0,0,0,.115-.569Z" transform="translate(-583.095 -264.371)" fill="#464a5f"/>
    <path id="パス_186" data-name="パス 186" d="M943.255,404.756l-1.031-1.469a.409.409,0,0,0-.552-.1l-1.526,1.027a.409.409,0,0,0-.115.552l.945,1.452a.409.409,0,0,0,.552.123l1.612-1.01a.409.409,0,0,0,.115-.573Z" transform="translate(-579.113 -267.121)" fill="#464a5f"/>
    <path id="パス_187" data-name="パス 187" d="M936.255,409.634l-1.031-1.469a.409.409,0,0,0-.556-.1l-1.522,1.031a.409.409,0,0,0-.115.552l.945,1.452a.409.409,0,0,0,.552.119l1.612-1.01a.409.409,0,0,0,.115-.573Z" transform="translate(-574.977 -270.002)" fill="#464a5f"/>
    <path id="パス_188" data-name="パス 188" d="M929.109,414.56l-1.031-1.473a.409.409,0,0,0-.552-.1L926,414.016a.409.409,0,0,0-.106.573l.945,1.452a.409.409,0,0,0,.552.123L929,415.15a.409.409,0,0,0,.11-.589Z" transform="translate(-570.752 -272.912)" fill="#464a5f"/>
    <path id="パス_189" data-name="パス 189" d="M922,419.5l-1.031-1.469a.409.409,0,0,0-.552-.1l-1.526,1.027a.409.409,0,0,0-.11.552l.941,1.452a.409.409,0,0,0,.552.123l1.612-1.015A.409.409,0,0,0,922,419.5Z" transform="translate(-566.555 -275.831)" fill="#464a5f"/>
    <path id="パス_190" data-name="パス 190" d="M914.88,424.487l-1.281-1.825a.184.184,0,0,0-.258-.049l-1.874,1.264a.184.184,0,0,0-.053.258l1.174,1.8a.188.188,0,0,0,.258.057l1.98-1.227a.188.188,0,0,0,.053-.282Z" transform="translate(-562.222 -278.62)" fill="#464a5f"/>
    <path id="パス_191" data-name="パス 191" d="M907.76,429.416l-1.281-1.825a.188.188,0,0,0-.262-.049l-1.87,1.264a.184.184,0,0,0-.053.258l1.174,1.808a.184.184,0,0,0,.258.053l1.98-1.227a.192.192,0,0,0,.053-.282Z" transform="translate(-558.014 -281.533)" fill="#464a5f"/>
    <path id="パス_192" data-name="パス 192" d="M901.452,433.787l-1.281-1.829a.188.188,0,0,0-.258-.045l-1.874,1.244a.192.192,0,0,0-.053.262l1.174,1.8a.192.192,0,0,0,.258.057l1.98-1.227a.188.188,0,0,0,.053-.266Z" transform="translate(-554.288 -284.116)" fill="#464a5f"/>
    <path id="パス_193" data-name="パス 193" d="M894.389,438.7l-1.281-1.812a.188.188,0,0,0-.258-.045l-1.874,1.26a.188.188,0,0,0-.053.262l1.174,1.8a.192.192,0,0,0,.258.057l1.98-1.227a.188.188,0,0,0,.053-.3Z" transform="translate(-550.114 -287.029)" fill="#464a5f"/>
    <path id="パス_194" data-name="パス 194" d="M887.55,443.407l-1.281-1.825a.184.184,0,0,0-.258-.049l-1.874,1.264a.184.184,0,0,0-.053.258l1.174,1.8a.184.184,0,0,0,.258.057l1.98-1.227a.188.188,0,0,0,.053-.282Z" transform="translate(-546.073 -289.8)" fill="#464a5f"/>
    <path id="パス_195" data-name="パス 195" d="M880.712,448.147l-1.281-1.829a.188.188,0,0,0-.258-.045l-1.874,1.26a.192.192,0,0,0-.053.262l1.174,1.8a.192.192,0,0,0,.258.057l1.98-1.227a.188.188,0,0,0,.053-.282Z" transform="translate(-542.033 -292.601)" fill="#464a5f"/>
    <path id="パス_196" data-name="パス 196" d="M873.87,452.877l-1.281-1.825a.184.184,0,0,0-.258-.049l-1.874,1.264a.184.184,0,0,0-.053.258l1.174,1.8a.184.184,0,0,0,.258.057l1.98-1.227a.188.188,0,0,0,.053-.282Z" transform="translate(-537.989 -295.395)" fill="#464a5f"/>
    <path id="パス_197" data-name="パス 197" d="M945.489,393.63l-1.031-1.473a.409.409,0,0,0-.552-.1l-1.526,1.031a.409.409,0,0,0-.11.552l.941,1.452a.409.409,0,0,0,.552.123l1.612-1.015a.409.409,0,0,0,.115-.569Z" transform="translate(-580.435 -260.545)" fill="#464a5f"/>
    <path id="パス_198" data-name="パス 198" d="M935.639,379.376l-1.031-1.469a.409.409,0,0,0-.552-.1l-1.526,1.027a.409.409,0,0,0-.11.552l.945,1.452a.409.409,0,0,0,.548.123l1.612-1.01a.409.409,0,0,0,.115-.573Z" transform="translate(-574.614 -252.124)" fill="#464a5f"/>
    <path id="パス_199" data-name="パス 199" d="M938.779,398.235l-1.031-1.477a.409.409,0,0,0-.552-.1l-1.526,1.027a.409.409,0,0,0-.11.552l.945,1.452a.409.409,0,0,0,.548.123l1.612-1.01A.409.409,0,0,0,938.779,398.235Z" transform="translate(-576.47 -263.263)" fill="#464a5f"/>
    <path id="パス_200" data-name="パス 200" d="M931.76,403.116l-1.015-1.469a.409.409,0,0,0-.552-.1l-1.526,1.027a.409.409,0,0,0-.11.556l.941,1.452a.409.409,0,0,0,.552.119l1.612-1.01a.409.409,0,0,0,.1-.573Z" transform="translate(-572.331 -266.152)" fill="#464a5f"/>
    <path id="パス_201" data-name="パス 201" d="M924.615,408.048l-1.031-1.473a.409.409,0,0,0-.556-.1l-1.522,1.031a.409.409,0,0,0-.115.552l.945,1.452a.409.409,0,0,0,.552.123l1.612-1.015a.409.409,0,0,0,.115-.569Z" transform="translate(-568.099 -269.063)" fill="#464a5f"/>
    <path id="パス_202" data-name="パス 202" d="M929.089,384.235l-1.031-1.477a.409.409,0,0,0-.552-.1l-1.526,1.027a.409.409,0,0,0-.11.552l.945,1.452a.409.409,0,0,0,.548.123l1.612-1.01A.409.409,0,0,0,929.089,384.235Z" transform="translate(-570.744 -254.99)" fill="#464a5f"/>
    <path id="パス_203" data-name="パス 203" d="M922.045,389.12l-1.031-1.473a.409.409,0,0,0-.552-.1l-1.526,1.031a.409.409,0,0,0-.115.552l.945,1.452a.409.409,0,0,0,.552.123l1.612-1.015a.409.409,0,0,0,.115-.569Z" transform="translate(-566.58 -257.88)" fill="#464a5f"/>
    <path id="パス_204" data-name="パス 204" d="M914.925,394.054l-1.031-1.469a.409.409,0,0,0-.556-.1l-1.522,1.027a.409.409,0,0,0-.115.552l.945,1.456a.409.409,0,0,0,.552.123l1.608-1.015a.409.409,0,0,0,.119-.573Z" transform="translate(-562.373 -260.796)" fill="#464a5f"/>
    <path id="パス_205" data-name="パス 205" d="M917.489,412.986l-1.031-1.469a.409.409,0,0,0-.552-.1l-1.526,1.019a.409.409,0,0,0-.11.552l.945,1.452a.409.409,0,0,0,.548.123l1.612-1.015A.409.409,0,0,0,917.489,412.986Z" transform="translate(-563.89 -271.984)" fill="#464a5f"/>
    <path id="パス_206" data-name="パス 206" d="M910.365,417.916l-1.031-1.469a.409.409,0,0,0-.552-.1l-1.526,1.047a.409.409,0,0,0-.115.552l.945,1.452a.409.409,0,0,0,.552.123l1.612-1.01a.409.409,0,0,0,.115-.593Z" transform="translate(-559.678 -274.897)" fill="#464a5f"/>
    <path id="パス_207" data-name="パス 207" d="M903.273,422.907l-1.281-1.825a.184.184,0,0,0-.258-.049l-1.857,1.264a.184.184,0,0,0-.053.258l1.174,1.8a.184.184,0,0,0,.258.057l1.98-1.227a.192.192,0,0,0,.037-.282Z" transform="translate(-555.373 -277.686)" fill="#464a5f"/>
    <path id="パス_208" data-name="パス 208" d="M896.948,427.246l-1.281-1.829a.192.192,0,0,0-.262-.045l-1.874,1.26a.2.2,0,0,0-.053.262l1.178,1.8a.188.188,0,0,0,.258.057l1.976-1.227a.184.184,0,0,0,.057-.282Z" transform="translate(-551.625 -280.251)" fill="#464a5f"/>
    <path id="パス_209" data-name="パス 209" d="M889.882,432.167l-1.281-1.829a.188.188,0,0,0-.258-.045l-1.874,1.26a.192.192,0,0,0-.053.262l1.174,1.8a.192.192,0,0,0,.258.057l1.98-1.227a.18.18,0,0,0,.053-.282Z" transform="translate(-547.451 -283.158)" fill="#464a5f"/>
    <path id="パス_210" data-name="パス 210" d="M883.07,436.9l-1.268-1.825a.184.184,0,0,0-.258-.049l-1.874,1.264a.188.188,0,0,0-.053.258l1.174,1.8a.188.188,0,0,0,.258.057l1.98-1.227a.184.184,0,0,0,.041-.282Z" transform="translate(-543.434 -285.953)" fill="#464a5f"/>
    <path id="パス_211" data-name="パス 211" d="M927.049,396.348l-1.027-1.473a.409.409,0,0,0-.556-.1L923.94,395.8a.409.409,0,0,0-.11.552l.945,1.452a.409.409,0,0,0,.552.119l1.608-1.01a.409.409,0,0,0,.115-.569Z" transform="translate(-569.539 -262.149)" fill="#464a5f"/>
    <path id="パス_212" data-name="パス 212" d="M919.929,401.282l-1.031-1.469a.409.409,0,0,0-.552-.106l-1.526,1.031a.409.409,0,0,0-.11.552l.945,1.452a.409.409,0,0,0,.548.123l1.612-1.015a.409.409,0,0,0,.115-.569Z" transform="translate(-565.331 -265.067)" fill="#464a5f"/>
    <path id="パス_213" data-name="パス 213" d="M912.834,406.22l-1.043-1.465a.409.409,0,0,0-.556-.1l-1.489,1.023a.409.409,0,0,0-.115.552l.945,1.452a.409.409,0,0,0,.552.123l1.612-1.01a.409.409,0,0,0,.094-.573Z" transform="translate(-561.15 -267.987)" fill="#464a5f"/>
    <path id="パス_214" data-name="パス 214" d="M905.679,411.146l-1.031-1.469a.409.409,0,0,0-.552-.1L902.57,410.6a.409.409,0,0,0-.11.552l.945,1.452a.409.409,0,0,0,.548.123l1.612-1.01a.409.409,0,0,0,.115-.573Z" transform="translate(-556.911 -270.897)" fill="#464a5f"/>
    <path id="パス_215" data-name="パス 215" d="M898.566,416.136l-1.281-1.825a.188.188,0,0,0-.262-.049l-1.874,1.264a.188.188,0,0,0-.053.258l1.174,1.808a.188.188,0,0,0,.262.053l1.976-1.227a.188.188,0,0,0,.057-.282Z" transform="translate(-552.581 -273.686)" fill="#464a5f"/>
    <path id="パス_216" data-name="パス 216" d="M892.279,420.507,891,418.682a.184.184,0,0,0-.258-.049l-1.862,1.26a.192.192,0,0,0-.053.262l1.174,1.8a.192.192,0,0,0,.258.057l1.98-1.227a.188.188,0,0,0,.041-.282Z" transform="translate(-548.875 -276.268)" fill="#464a5f"/>
    <path id="パス_217" data-name="パス 217" d="M885.2,425.4l-1.281-1.829a.192.192,0,0,0-.262-.045l-1.87,1.26a.192.192,0,0,0-.053.262l1.174,1.8a.188.188,0,0,0,.258.057l1.98-1.227a.188.188,0,0,0,.053-.282Z" transform="translate(-544.686 -279.158)" fill="#464a5f"/>
    <path id="パス_218" data-name="パス 218" d="M878.36,430.126l-1.281-1.825a.188.188,0,0,0-.262-.049l-1.87,1.264a.184.184,0,0,0-.053.258l1.174,1.808a.184.184,0,0,0,.258.053l1.98-1.227a.192.192,0,0,0,.053-.282Z" transform="translate(-540.642 -281.952)" fill="#464a5f"/>
    <path id="パス_219" data-name="パス 219" d="M876.206,441.636l-1.281-1.829a.192.192,0,0,0-.262-.045l-1.874,1.26a.192.192,0,0,0-.053.262l1.174,1.8a.192.192,0,0,0,.258.057l1.98-1.227a.184.184,0,0,0,.057-.282Z" transform="translate(-539.368 -288.754)" fill="#464a5f"/>
    <path id="パス_220" data-name="パス 220" d="M869.366,446.366l-1.281-1.825a.188.188,0,0,0-.262-.049l-1.874,1.264a.188.188,0,0,0-.053.258l1.174,1.8a.188.188,0,0,0,.262.057l1.976-1.227a.184.184,0,0,0,.057-.282Z" transform="translate(-535.327 -291.548)" fill="#464a5f"/>
    <path id="パス_221" data-name="パス 221" d="M880.175,418.151l-1.207-1.722a.254.254,0,0,0-.348-.061l-1.78,1.19a.254.254,0,0,0-.069.348l1.1,1.7a.254.254,0,0,0,.348.074l1.866-1.174a.25.25,0,0,0,.086-.356Z" transform="translate(-541.745 -274.923)" fill="#464a5f"/>
    <path id="パス_222" data-name="パス 222" d="M873.353,422.88l-1.207-1.718a.25.25,0,0,0-.348-.065l-1.767,1.195a.25.25,0,0,0-.07.344l1.1,1.7a.258.258,0,0,0,.348.078l1.87-1.174a.258.258,0,0,0,.07-.36Z" transform="translate(-537.722 -277.717)" fill="#464a5f"/>
    <path id="パス_223" data-name="パス 223" d="M866.483,427.621l-1.227-1.722a.25.25,0,0,0-.344-.061l-1.771,1.19a.254.254,0,0,0-.07.348l1.1,1.7a.254.254,0,0,0,.348.074l1.87-1.174a.25.25,0,0,0,.09-.356Z" transform="translate(-533.65 -280.519)" fill="#464a5f"/>
    <path id="パス_224" data-name="パス 224" d="M859.68,432.376l-1.281-1.829a.192.192,0,0,0-.262-.045l-1.874,1.26a.192.192,0,0,0-.049.262l1.174,1.8a.188.188,0,0,0,.258.057l1.98-1.227a.188.188,0,0,0,.053-.282Z" transform="translate(-529.604 -283.282)" fill="#464a5f"/>
    <path id="パス_225" data-name="パス 225" d="M936.758,386.478l-1.092-1.579a.409.409,0,0,0-.556-.1l-4.353,3.031a.409.409,0,0,0-.106.548l1.047,1.612a.409.409,0,0,0,.569.11l4.39-3.072A.409.409,0,0,0,936.758,386.478Z" transform="translate(-573.569 -256.256)" fill="#464a5f"/>
    <path id="パス_226" data-name="パス 226" d="M867.346,434.582l-1.358-1.919a.184.184,0,0,0-.262-.045l-4.672,3.273a.188.188,0,0,0-.049.258l1.281,1.972a.188.188,0,0,0,.266.053l4.75-3.326A.192.192,0,0,0,867.346,434.582Z" transform="translate(-532.435 -284.53)" fill="#464a5f"/>
    <path id="パス_227" data-name="パス 227" d="M895.628,398.85,894.4,397.03a.192.192,0,0,0-.262-.053l-10.371,7a.184.184,0,0,0-.053.258l1.276,1.964a.188.188,0,0,0,.266.053l10.342-7.135A.188.188,0,0,0,895.628,398.85Z" transform="translate(-545.854 -263.473)" fill="#464a5f"/>
    <path id="パス_228" data-name="パス 228" d="M880.4,374.1l-5.515-8.014a1.023,1.023,0,0,0-1.416-.27l-15.19,10.2a1.027,1.027,0,0,0-.274,1.428l5.621,8.244a1.023,1.023,0,0,0,1.428.27l15.084-10.436a1.019,1.019,0,0,0,.262-1.42Z" transform="translate(-530.575 -244.976)" opacity="0.1"/>
    <path id="パス_229" data-name="パス 229" d="M881.041,374.224l-5.515-8.014a1.027,1.027,0,0,0-1.416-.27l-15.17,10.207a1.023,1.023,0,0,0-.278,1.428l5.6,8.235a1.023,1.023,0,0,0,1.428.27l15.092-10.436a1.019,1.019,0,0,0,.254-1.42Z" transform="translate(-530.965 -245.049)" fill="#939498"/>
    <path id="パス_230" data-name="パス 230" d="M926.108,412.463l-11.7-3.9L876.88,434.629l11.615,3.784a2.127,2.127,0,0,0,1.878-.278l35.842-24.923a.409.409,0,0,0-.106-.749Z" transform="translate(-541.834 -270.336)" fill="#6c63ff"/>
  </g>
</svg>
