<svg xmlns="http://www.w3.org/2000/svg" xmlns:xlink="http://www.w3.org/1999/xlink" width="525.873" height="279.856" viewBox="0 0 525.873 279.856">
	<defs>
	  <linearGradient id="linear-gradient" x1="0.5" y1="1" x2="0.5" y2="-0.001" gradientUnits="objectBoundingBox">
		<stop offset="0" stop-color="gray" stop-opacity="0.251"/>
		<stop offset="0.54" stop-color="gray" stop-opacity="0.122"/>
		<stop offset="1" stop-color="gray" stop-opacity="0.102"/>
	  </linearGradient>
	</defs>
	<g id="グループ_30" data-name="グループ 30" transform="translate(-0.011 -0.035)">
	  <path id="パス_413" data-name="パス 413" d="M564.919,394.235q-.879,1.894-1.752,3.737-1.364,2.864-2.692,5.616c-.394.813-.788,1.611-1.172,2.409-4.343,8.873-8.4,16.721-11.843,23.176a36.973,36.973,0,0,1-32.226,19.544l-76.587.833h-.808l-6.565.071-5.616.061-17.221.187h-.7l-8.767.1H398.7l-54.038.586-48.235.505-5.611.061-34.847.379h-.04l-22.6.242h-.242l-71.461.773-21.378.232a44.476,44.476,0,0,1-13.469-1.929,43.629,43.629,0,0,1-19.742-12.5,100.976,100.976,0,0,1-20.368-34.726q-.975-2.773-1.818-5.616C69.3,345.374,88.264,277.513,122.4,232.1q2.146-2.848,4.363-5.555l.035-.04c10.5-12.888,22.272-23.655,34.812-31.312,22.221-13.59,46.841-17.418,71.057-6.01,20.489,9.656,39.619,14.2,58.164,15.429,1.874.121,3.747.212,5.611.268,42.538,1.338,82.405-13.989,129.221-23.883,1.864-.394,3.732-.783,5.616-1.151,33.4-6.646,70.446-10.151,114.5-2.783A95.494,95.494,0,0,1,559.3,180.3q2.914.939,5.616,2.02c21.029,8.555,32.5,24.363,37.372,44.17q.692,2.757,1.2,5.611C612.129,279.741,586.822,347.323,564.919,394.235Z" transform="translate(-79.34 -172.91)" fill="#6c63ff" opacity="0.1"/>
	  <g id="グループ_28" data-name="グループ 28" transform="translate(5.515 6.921)" opacity="0.1">
		<path id="パス_414" data-name="パス 414" d="M208.087,217V474.372l-21.378.232a44.48,44.48,0,0,1-13.469-1.929V248.312h.035C183.775,235.408,195.547,224.641,208.087,217Z" transform="translate(-131.328 -201.637)" fill="#6c63ff"/>
		<path id="パス_415" data-name="パス 415" d="M645.709,284.6H164.6q2.146-2.848,4.363-5.555V279H644.512Q645.2,281.742,645.709,284.6Z" transform="translate(-127.051 -232.325)" fill="#6c63ff"/>
		<path id="パス_416" data-name="パス 416" d="M1035.316,189.51V405.157h-1.752q-1.364,2.863-2.692,5.616c-.394.813-.788,1.611-1.172,2.409V187.47Q1032.614,188.409,1035.316,189.51Z" transform="translate(-555.252 -187.021)" fill="#6c63ff"/>
		<path id="パス_417" data-name="パス 417" d="M770.706,186.58V456.391l-5.616.061V187.731C766.954,187.338,768.822,186.949,770.706,186.58Z" transform="translate(-424.277 -186.58)" fill="#6c63ff"/>
		<path id="パス_418" data-name="パス 418" d="M503.721,235.888V482.129l-5.611.061V235.62C499.984,235.741,501.857,235.812,503.721,235.888Z" transform="translate(-292.129 -210.853)" fill="#6c63ff"/>
		<path id="パス_419" data-name="パス 419" d="M568.562,618.52q-1.364,2.863-2.692,5.616H92.068q-.975-2.772-1.818-5.616Z" transform="translate(-90.25 -400.378)" fill="#6c63ff"/>
	  </g>
	  <rect id="長方形_129" data-name="長方形 129" width="9.596" height="29.12" transform="translate(106.869 134.269)" fill="#3f3d56"/>
	  <rect id="長方形_130" data-name="長方形 130" width="9.596" height="30.807" transform="translate(365.105 132.754)" fill="#3f3d56"/>
	  <path id="パス_420" data-name="パス 420" d="M488.406,519.543v6.565l-76.724.707-.818.015-29.16.268-.7.01-8.863.076h-.263l-54.028.5-88.688.823h-.076l-22.549.212-.242.005-100.2.919v-7.575l23.56-14.141,47.271-.394,1.01-.005.333-.005,1.01-.015,22.7-.187,1.015-.005.323-.005,1.01-.005,7.277-.061.192-.005,17.954-.152h.146l140.095-1.182,3.429-.025h.343l2.616-.025,19.014-.157,1.01-.015.934-.01h.485l5.914-.045,1.172-.015,1.571-.01,4.924-.045,7.813-.066,1.01-.01,1.758-.01h.328l37.731-.323Z" transform="translate(-52.511 -250.018)" fill="#65617d"/>
	  <path id="パス_421" data-name="パス 421" d="M488.406,519.543v6.565l-76.724.707-.818.015-29.16.268-.7.01-8.863.076h-.263l-54.028.5-88.688.823h-.076l-22.549.212-.242.005-100.2.919v-7.575l23.56-14.141,47.271-.394,1.01-.005.333-.005,1.01-.015,22.7-.187,1.015-.005.323-.005,1.01-.005,7.277-.061.192-.005,17.954-.152h.146l140.095-1.182,3.429-.025h.343l2.616-.025,19.014-.157,1.01-.015.934-.01h.485l5.914-.045,1.172-.015,1.571-.01,4.924-.045,7.813-.066,1.01-.01,1.758-.01h.328l37.731-.323Z" transform="translate(-52.511 -250.018)" opacity="0.2"/>
	  <path id="パス_422" data-name="パス 422" d="M352.092,656.57v12.368a3.1,3.1,0,0,1-1.768,2.8,3.029,3.029,0,0,1-1.263.3l-17.625.374a3.031,3.031,0,0,1-1.364-.288,3.091,3.091,0,0,1-1.8-2.813V656.57Z" transform="translate(-202.548 -412.291)" fill="#3f3d56"/>
	  <path id="パス_423" data-name="パス 423" d="M352.092,656.57v12.368a3.1,3.1,0,0,1-1.768,2.8,3.029,3.029,0,0,1-1.263.3l-17.625.374a3.031,3.031,0,0,1-1.364-.288,3.091,3.091,0,0,1-1.8-2.813V656.57Z" transform="translate(-202.548 -412.291)" opacity="0.1"/>
	  <path id="パス_424" data-name="パス 424" d="M354.092,656.57v12.368a3.1,3.1,0,0,1-1.768,2.8,3.029,3.029,0,0,1-1.263.3l-17.625.374a3.031,3.031,0,0,1-1.364-.288,3.091,3.091,0,0,1-1.8-2.813V656.57Z" transform="translate(-203.538 -412.291)" fill="#3f3d56"/>
	  <rect id="長方形_131" data-name="長方形 131" width="23.822" height="15.908" transform="translate(343.894 244.279)" fill="#3f3d56"/>
	  <rect id="長方形_132" data-name="長方形 132" width="23.822" height="15.908" transform="translate(343.894 244.279)" opacity="0.1"/>
	  <rect id="長方形_133" data-name="長方形 133" width="23.822" height="15.908" transform="translate(342.884 244.279)" fill="#3f3d56"/>
	  <path id="パス_425" data-name="パス 425" d="M221.2,265.82v2.894l-9.6-.247V265.82Z" transform="translate(-104.731 -131.556)" opacity="0.1"/>
	  <path id="パス_426" data-name="パス 426" d="M327.26,268.742l-11.53,82.824a2.172,2.172,0,0,1-2.207,1.874L221.2,351.046,219.452,351a2.172,2.172,0,0,1-2.1-2.46l12.944-86.7a2.172,2.172,0,0,1,2.293-1.833l92.652,6.272a2.167,2.167,0,0,1,2.02,2.465Z" transform="translate(-147.637 -216)" fill="#65617d"/>
	  <path id="パス_427" data-name="パス 427" d="M166.362,99.16,156.6,175.586l84.845,2.692,10.434-73.734Z" transform="translate(-77.507 -49.064)" fill="#6c63ff"/>
	  <rect id="長方形_134" data-name="長方形 134" width="103.364" height="87.536" rx="5.33" transform="translate(194.239 48.914)" fill="#65617d"/>
	  <rect id="長方形_135" data-name="長方形 135" width="93.935" height="72.891" transform="translate(199.117 54.808)" fill="#6c63ff"/>
	  <path id="パス_428" data-name="パス 428" d="M732.526,262.82v1.914l-9.6.2V262.82Z" transform="translate(-357.825 -130.071)" opacity="0.1"/>
	  <path id="パス_429" data-name="パス 429" d="M803.336,345.6a1.555,1.555,0,0,1-1.515,1.656l-94.541,1.954A1.556,1.556,0,0,1,705.7,347.8l-8.126-84.481a1.555,1.555,0,0,1,1.475-1.7l93.824-4.666,1.01-.051a1.55,1.55,0,0,1,1.626,1.414Z" transform="translate(-385.34 -214.463)" fill="#65617d"/>
	  <path id="パス_430" data-name="パス 430" d="M628.93,99.032l85.688-4.212,7.237,76.764-85.011,2.02Z" transform="translate(-311.298 -46.916)" fill="#6c63ff"/>
	  <path id="パス_431" data-name="パス 431" d="M896.744,345.6a1.556,1.556,0,0,1-1.515,1.656l-8.949-90.3,1.01-.051a1.551,1.551,0,0,1,1.626,1.414Z" transform="translate(-478.748 -214.463)" opacity="0.1"/>
	  <path id="パス_432" data-name="パス 432" d="M232.6,259.994,221.2,351.04l-1.752-.045a2.172,2.172,0,0,1-2.1-2.459l12.944-86.7A2.172,2.172,0,0,1,232.6,259.994Z" transform="translate(-147.637 -215.994)" opacity="0.1"/>
	  <rect id="長方形_136" data-name="長方形 136" width="9.596" height="8.626" transform="translate(106.869 154.763)" opacity="0.1"/>
	  <path id="パス_433" data-name="パス 433" d="M274.752,483.65v2.51l-23.822.636V483.65Z" transform="translate(-124.198 -239.376)" opacity="0.1"/>
	  <path id="パス_434" data-name="パス 434" d="M361.943,483.315V568.26A2.02,2.02,0,0,1,360,570.255l-96.788,2.576h-.025a2.02,2.02,0,0,1-1.995-1.995V483.315a2.02,2.02,0,0,1,1.995-1.995h96.763A2.02,2.02,0,0,1,361.943,483.315Z" transform="translate(-169.345 -325.547)" fill="#65617d"/>
	  <path id="パス_435" data-name="パス 435" d="M263.21,481.32v91.511h-.025a2.02,2.02,0,0,1-1.995-1.995V483.315a2.02,2.02,0,0,1,1.995-1.995Z" transform="translate(-169.345 -325.547)" opacity="0.1"/>
	  <path id="パス_436" data-name="パス 436" d="M194.6,319.15h89.642v74.87L194.6,396.04Z" transform="translate(-96.316 -157.953)" fill="#d4dfec"/>
	  <rect id="長方形_137" data-name="長方形 137" width="9.596" height="8.798" transform="translate(365.105 154.763)" opacity="0.1"/>
	  <path id="パス_437" data-name="パス 437" d="M702.752,483.65v3.237l-23.822-.636v-2.6Z" transform="translate(-336.046 -239.376)" opacity="0.1"/>
	  <path id="パス_438" data-name="パス 438" d="M768.923,483.315v87.521a2.02,2.02,0,0,1-2.02,1.995h0l-96.809-2.576a2.02,2.02,0,0,1-1.944-1.995V483.315a2.02,2.02,0,0,1,1.995-1.995h96.763A2.02,2.02,0,0,1,768.923,483.315Z" transform="translate(-370.779 -325.547)" fill="#65617d"/>
	  <path id="パス_439" data-name="パス 439" d="M865.71,483.315v87.521a2.02,2.02,0,0,1-2.02,1.995h0V481.32h0a2.02,2.02,0,0,1,2.02,1.995Z" transform="translate(-467.566 -325.547)" opacity="0.1"/>
	  <path id="パス_440" data-name="パス 440" d="M687.742,319.15H598.1v74.87l89.642,2.02Z" transform="translate(-296.038 -157.953)" fill="#d4dfec"/>
	  <path id="パス_441" data-name="パス 441" d="M564.443,483.315V568.26a2.02,2.02,0,0,1-1.944,1.995l-96.789,2.576h0a2.02,2.02,0,0,1-2.02-1.995V483.315a2.02,2.02,0,0,1,1.995-1.995h96.763A2.02,2.02,0,0,1,564.443,483.315Z" transform="translate(-269.577 -325.547)" fill="#65617d"/>
	  <path id="パス_442" data-name="パス 442" d="M397.1,319.15h89.642v74.87L397.1,396.04Z" transform="translate(-196.548 -157.953)" fill="#d4dfec"/>
	  <path id="パス_443" data-name="パス 443" d="M488.406,533.65v6.565l-76.724.707-.818.015-29.16.268-.7.01-8.863.076h-.263l-54.028.5-88.688.823h-.076l-22.549.212-.242.005-100.2.919v-7.575l102.273-.672h.242l20.7-.141h.1l142.963-.944h.146l.086-.005h.237l2.419-.015H376l37.62-.253,2.222-.01.495-.005Z" transform="translate(-52.511 -264.125)" opacity="0.1"/>
	  <circle id="楕円形_63" data-name="楕円形 63" cx="25.923" cy="25.923" r="25.923" transform="translate(220.162 111.543)" fill="#fbbebe"/>
	  <path id="パス_444" data-name="パス 444" d="M383.74,538.433a.626.626,0,0,1,.051-.177c.505-1.813,1.4-4.879,2.076-7.328.086-.3.167-.6.242-.884.742-2.762,2.187-9.232,2.99-13.267.283-1.419.505-2.525.55-3.081a84.07,84.07,0,0,1,3.343-8.7c1.207-2.949,2.525-6.171,3.49-8.888a31,31,0,0,0,1.48-4.975,2.575,2.575,0,0,0,0-1.076,7.418,7.418,0,0,1-.242-1.768h0c-.116-3.131.818-8.08,2.263-10.156,1.768-2.525,3.03-11.949,3.03-11.949s2.616.379,3.03-1.783a3.107,3.107,0,0,0,.051-.707,3.743,3.743,0,0,0-.045-.561c-.449-3.151,7.434-6.5,11.868-7.227a9.928,9.928,0,0,1,1.515-.141,13.759,13.759,0,0,0,3.156-.727q.707-.217,1.515-.505c1.859-.626,4.081-1.454,6.439-2.364,8.868-3.439,19.605-8.08,19.605-8.08.076-.359.162-.7.258-1.04a13.994,13.994,0,0,1,8.257-9.56h0v-1.01c0-1.742-.076-3.535-.151-5.323,0-.348-.03-.7-.051-1.045v-.571c0-.354-.035-.707-.056-1.056l-.091-.071a8.286,8.286,0,0,1-1.97-2.121,7.705,7.705,0,0,1-.717-1.515,46.282,46.282,0,0,1-1.2-5.429l-.091-.374a42.43,42.43,0,0,0-2.02-5.343c-1.116-2.737-1.975-5.555-2.828-8.409q-.778-2.591-1.571-5.192l-.8-2.646c-.151-.505-.3-1.01-.419-1.515h0a6.713,6.713,0,0,1-.131-.707h0a5.051,5.051,0,0,1,.121-2.328,16.223,16.223,0,0,1,.667-1.515,3.976,3.976,0,0,0,.253-.7h0a1.519,1.519,0,0,0,.04-.162,2.855,2.855,0,0,0,.056-.545,9.325,9.325,0,0,0-.263-1.965.036.036,0,0,1,0-.025,1.291,1.291,0,0,0-.025-.136,12.875,12.875,0,0,1-.182-1.515,14.369,14.369,0,0,1,1.752-7.863l.1-.182a12.736,12.736,0,0,1,.929-1.4h0a7.1,7.1,0,0,1,.505-.616,2.016,2.016,0,0,1-2.8-.727,1.926,1.926,0,0,1-.116-.227c-.025-.061-.045-.126-.066-.192a4.126,4.126,0,0,1,1.071-3.56,9.337,9.337,0,0,1,2.9-2.374h0a1.943,1.943,0,0,1,.2-.106,8.648,8.648,0,0,1,1.333-.535h0a7.6,7.6,0,0,1,.823-.222l-1.874-.172-.758-.071a7.318,7.318,0,0,1,6.565-5.51h.545a5.931,5.931,0,0,1,.793.066,2.242,2.242,0,0,1-1.338-2.187,7.277,7.277,0,0,0,4.641,1.545h.192a15.151,15.151,0,0,1-.172-1.651h0a16.756,16.756,0,0,1,0-2.252,4.262,4.262,0,0,0,3.424,1.141l-1.05-1.465a4.793,4.793,0,0,0,3.313,1.035l.242-.025a3.539,3.539,0,0,0,.6-.116h.045c-.1-.121-.182-.247-.268-.379l-.03-.061a4.886,4.886,0,0,1-.505-1.055,3.334,3.334,0,0,1-.121-.439h0a4.419,4.419,0,0,1,.227-2.752c1.631,1.364,3.419,3.227,5.555,1.818s2.207-3.995,5.555-3.732a5.151,5.151,0,0,1,4.247,3.091,3.409,3.409,0,0,1,3.874-.884,3.459,3.459,0,0,1,1.959,3.48,6.979,6.979,0,0,1,4.217-.167c1.333.525,2.192,2.227,1.434,3.363a.723.723,0,0,1-.071.1c-.621.8-1.995,1.242-1.848,2.252l.212.152.657.475q3.864,2.788,7.525,5.858c1.253,1.05,2.586,2.313,2.672,3.954a4.365,4.365,0,0,1-.121,1.2h0c-.081.394-.192.788-.278,1.182a9.853,9.853,0,0,0-.172,3.055h0c.035.3.081.591.136.889.773,3.9,3.894,7.126,4.2,11.111v.283a8.976,8.976,0,0,1-.035,1.278c-.232,2.424-1.353,4.752-2.263,7.07-.056.141-.111.283-.162.424a70.357,70.357,0,0,0-3.535,14.222,50.618,50.618,0,0,1-1.01,5.1,13.5,13.5,0,0,1-2.571,5.267,8.192,8.192,0,0,1-1.7,1.515,9.429,9.429,0,0,1-1.338.712v.03c.056.308.1.616.157.924.03.162.056.323.086.505h0a.071.071,0,0,0,0,.03c.424,2.389.909,4.727,1.419,6.949l.258,1.106c6.363,2.3,7.116,7,7.161,8.808a4.867,4.867,0,0,1,0,.722s9.6.253,13.383,3.03a10.272,10.272,0,0,0,2.278,1.162,41.905,41.905,0,0,0,4.672,1.46c.813.212,1.661.419,2.525.621,1.515.348,3.121.687,4.671,1.01,4.136.833,8.03,1.515,10,2.02,4.712,1.192,15.489,11.525,15.489,11.525s1.263,10.424,2.525,11.944,3.535,6.863,3.535,6.863l8.353,14.853,3.535,6.247H577.8a3.864,3.864,0,0,1,1.621,1.061c.6.535,1.268,1.2,1.853,1.808l.97,1.035.606.672s3.672.091,4.666,2.995c2.99-.086,6.661.111,9.232,1.263a7.138,7.138,0,0,1,1.01.545,4.384,4.384,0,0,1,2.086,2.858,4.213,4.213,0,0,1,.091.727c0,.288,0,.576,0,.859-.182,3.823-2.672,7-4.959,9.146l.162.288s-.076.182-.222.505c-.04.1-.091.2-.146.323h0c-.3.636-.773,1.591-1.394,2.707a31.978,31.978,0,0,1-4.833,6.651l-.146.152-29.16.268-.086-.1-5.656-6.747-2.813-3.353-.086-.106-.081.8-.273,2.677-.657,6.469-.035.323v.086l-.076.747.056-.747h-.146l-54.038.505-88.693.98v.424h-.071v-.424l-22.6.242Z" transform="translate(-230.004 -259.549)" fill="url(#linear-gradient)"/>
	  <path id="パス_445" data-name="パス 445" d="M573.076,495.609s-50.25,6.06-45.452,0c1.737-2.192,2.217-8.687,2.121-16.085-.03-2.247-.111-4.576-.227-6.894-.556-11.111-1.894-21.969-1.894-21.969s43.937-20.706,38.887-4.293c-2.02,6.631-1.358,15.944.177,24.686.449,2.55.97,5.05,1.515,7.424A174.071,174.071,0,0,0,573.076,495.609Z" transform="translate(-301.063 -305.116)" fill="#fbbebe"/>
	  <path id="パス_446" data-name="パス 446" d="M573.076,532.1s-50.25,6.06-45.452,0c1.737-2.192,2.217-8.686,2.121-16.085,7.661-3.273,17.408-.833,17.408-.833,10.262-2.045,16.843-1.646,21.049-.212a174.08,174.08,0,0,0,4.874,17.131Z" transform="translate(-301.063 -341.611)" opacity="0.1"/>
	  <path id="パス_447" data-name="パス 447" d="M406.851,621.644v-.424l88.693-.965,54.038-.505h.152l-.056.747.076-.747h.1v-.086l.692-6.793.263-2.571.081-.8.071-.672,3.121-10.409,3.121-10.393,2.626-8.752,4.01-13.373s-2.273-5.3-3.535-6.818-2.525-11.868-2.525-11.868S547,536.946,542.284,535.764c-1.975-.505-5.873-1.177-10.015-2.02-1.55-.313-3.141-.646-4.672-1.01-.864-.2-1.712-.4-2.525-.611a44.394,44.394,0,0,1-4.672-1.444,10.453,10.453,0,0,1-2.273-1.156c-3.712-2.722-13.015-3.03-13.373-3.03h0a.214.214,0,0,1,0-.035v-.045a5.184,5.184,0,0,0,0-.636,4.063,4.063,0,0,0-.045-.707.636.636,0,0,0-.035-.253c-.025-.182-.055-.374-.1-.576a2.506,2.506,0,0,0-.061-.268,8.7,8.7,0,0,0-.631-1.763c-.035-.081-.081-.167-.121-.247a9.212,9.212,0,0,0-.859-1.328c-.066-.086-.136-.177-.212-.263a9.891,9.891,0,0,0-1.374-1.333c-.136-.106-.278-.217-.424-.318a2.353,2.353,0,0,0-.258-.182l-.449-.293-.419-.242c-.369-.2-.758-.4-1.182-.586-.131-.061-.273-.116-.414-.172s-.364-.141-.55-.212h-.03l-.379-.151c-.288-.1-.581-.182-.889-.268l-.47-.121-.505-.116-.505-.106c-.505-.1-1.045-.192-1.611-.263l-.576-.071-.591-.061-.611-.05-.869-.051-1.01-.035a62.979,62.979,0,0,0-13.258,1.41,36.494,36.494,0,0,0-9.216-.85h-.439l-.505.03h-.323l-.651.061a4.84,4.84,0,0,0-.657.076c-.217.03-.444.056-.662.091l-.333.056c-.328.056-.662.116-1.01.187q-.167.03-.333.076c-.439.1-.879.212-1.313.343-.217.061-.434.131-.651.207-.111.03-.217.071-.323.111l-.323.116-.318.126-.379.152c-.192.081-.379.167-.566.258-.106.045-.212.1-.313.151s-.207.1-.3.157a14.014,14.014,0,0,0-3.136,2.212l-.258.247-.253.258c-.086.086-.167.177-.247.268a12.038,12.038,0,0,0-.919,1.136c-.081.106-.157.212-.232.323a13.485,13.485,0,0,0-.869,1.475c-.066.121-.126.247-.187.369a16.511,16.511,0,0,0-1.01,2.651q-.141.505-.258,1.01s-10.691,4.717-19.56,8.131c-2.358.909-4.581,1.732-6.439,2.353-.54.182-1.045.348-1.515.505a13.478,13.478,0,0,1-3.156.727,9.937,9.937,0,0,0-1.515.141c-4.076.662-11.06,3.535-11.823,6.419a1.865,1.865,0,0,0-.051.707v.056c.505,3.535-3.03,3.03-3.03,3.03s-1.263,9.343-3.03,11.868c-1.278,1.818-2.151,5.873-2.263,8.934h0a9.9,9.9,0,0,0,.222,2.843v.071c.2.677-.283,2.525-1.106,4.894-.894,2.6-2.2,5.833-3.449,8.883-1.889,4.606-3.667,8.787-3.778,9.707-.045.409-.177,1.141-.359,2.086-.737,3.848-2.374,11.176-3.182,14.141-.6,2.212-1.475,5.242-2.076,7.323a.71.71,0,0,1-.051.177l22.64-.222v.424h.071Z" transform="translate(-230.217 -342.584)" fill="#6c63ff"/>
	  <path id="パス_448" data-name="パス 448" d="M445.44,607.57s28.787,14.9,39.14,13.131Z" transform="translate(-260.544 -388.038)" opacity="0.1"/>
	  <path id="パス_449" data-name="パス 449" d="M561.44,595.57s28.029,9.091,37.372,10.353S561.44,595.57,561.44,595.57Z" transform="translate(-317.961 -382.098)" opacity="0.1"/>
	  <path id="パス_450" data-name="パス 450" d="M569.939,527.811c-14.646,2.7-42.22,2.116-54.139,1.707,4.368-15.656,25.671-10.333,25.671-10.333C567.838,513.923,569.858,524.842,569.939,527.811Z" transform="translate(-295.37 -343.59)" opacity="0.1"/>
	  <path id="パス_451" data-name="パス 451" d="M569.939,525.811c-14.646,2.7-42.22,2.116-54.139,1.707,4.368-15.656,25.671-10.333,25.671-10.333C567.838,511.923,569.858,522.842,569.939,525.811Z" transform="translate(-295.37 -342.6)" fill="#6c63ff"/>
	  <path id="パス_452" data-name="パス 452" d="M776.94,671.879s17.252-2.651,17.59,4.924-8.8,12.868-8.8,12.868Z" transform="translate(-424.628 -419.646)" fill="#fbbebe"/>
	  <path id="パス_453" data-name="パス 453" d="M566.974,471.055a23.757,23.757,0,0,1-2.273.879c-5.444,1.879-10.934,3.773-16.666,4.459s-11.747.081-16.747-2.778a14.52,14.52,0,0,1-1.515-.985c-.556-11.111-1.894-21.969-1.894-21.969s43.937-20.706,38.887-4.293C564.757,453,565.439,462.313,566.974,471.055Z" transform="translate(-301.35 -305.116)" opacity="0.1"/>
	  <path id="パス_454" data-name="パス 454" d="M530.445,358.412a4.783,4.783,0,0,1-4.2-.884l1.051,1.46a4.278,4.278,0,0,1-3.424-1.136,17.218,17.218,0,0,0,.162,3.914,7.333,7.333,0,0,1-4.828-1.515,2.232,2.232,0,0,0,1.333,2.177,7.242,7.242,0,0,0-7.878,5.409l2.636.242a9.328,9.328,0,0,0-5.273,3.217,4.086,4.086,0,0,0-1.071,3.535c.354,1.232,2.061,2.02,2.99,1.141a14.11,14.11,0,0,0-3.081,11.51,7.307,7.307,0,0,1,.232,2.656,22.549,22.549,0,0,1-.955,2.369c-.505,1.475-.025,3.076.424,4.545l2.369,7.788c.859,2.813,1.712,5.631,2.833,8.353a41.456,41.456,0,0,1,2.02,5.308c.636,2.444.662,5.121,2.02,7.257a10.065,10.065,0,0,0,3.626,3.2c4.995,2.858,11.03,3.464,16.747,2.778s11.2-2.581,16.641-4.459a15.653,15.653,0,0,0,3.454-1.515c3.763-2.465,4.6-7.5,5.3-11.944a67.815,67.815,0,0,1,3.682-14.545c1.1-2.773,2.525-5.586,2.283-8.555-.308-3.944-3.429-7.141-4.2-11.02a9.6,9.6,0,0,1,.035-3.924,8.92,8.92,0,0,0,.4-2.374c-.086-1.626-1.419-2.879-2.672-3.924q-4.076-3.4-8.414-6.434c-.146-1.01,1.227-1.444,1.848-2.242.879-1.126-.03-2.914-1.364-3.439a6.979,6.979,0,0,0-4.217.167,3.328,3.328,0,0,0-5.833-2.581,5.152,5.152,0,0,0-4.252-3.071c-3.348-.263-3.414,2.3-5.555,3.707s-3.909-.449-5.555-1.8A4.687,4.687,0,0,0,530.445,358.412Z" transform="translate(-291.471 -261.465)" fill="#3f3d56"/>
	  <path id="パス_455" data-name="パス 455" d="M754.094,655.426s-.45,1.071-1.278,2.621a34.846,34.846,0,0,1-4.545,6.651l-.136.146h-.818l-29.16.268h-.7l-.086-.1-5.656-6.712-2.131-2.53-.086-.106-.182-.212-.1-.121-.131-.156-4.146-4.919,1.515-6.313,2.581-10.636.066-.258.505-2.02.359-1.515,1.2-4.939,4.121-16.994,7.323,3.788L730.333,625l4.146,7.323h2.273c.429,0,1.414.828,2.4,1.783.353.338.707.7,1.01,1.01.9.929,1.611,1.727,1.611,1.727s3.682.081,4.671,2.98a3.525,3.525,0,0,1,.126.429,20.348,20.348,0,0,0,1.278,3.313c.651,1.419,1.47,3.03,2.3,4.641,1.54,2.954,3.106,5.767,3.682,6.788l.071.126Z" transform="translate(-388.99 -388.042)" fill="#6c63ff"/>
	  <path id="パス_456" data-name="パス 456" d="M574.115,651.409l-.05.722v.051l-.086,1.161-.672,9.348-.813,11.262-.232,3.172-.505,6.788V684l-54.038.505-88.678.96v.424h-.071v-.566l.227-7.252.434-14.171.374-12.015.035-1.2a5.318,5.318,0,0,1,5.767-5.136c2.384.2,5.48.449,9.181.712l1.515.111c21.378,1.485,60.886,3.4,100.753,1.01.838-.045,1.682-.1,2.525-.157,6.182-.389,12.358-.889,18.474-1.515a5.318,5.318,0,0,1,5.858,5.671Z" transform="translate(-252.392 -406.828)" opacity="0.1"/>
	  <path id="パス_457" data-name="パス 457" d="M429.08,687.883v-.424l88.693-.965,54.038-.505h.151V685.9l.505-6.788.217-3.03.828-11.419.651-9.04V655.4a5.365,5.365,0,0,0-.056-1.247.152.152,0,0,0,0-.05,5.248,5.248,0,0,0-1.01-2.343,5.323,5.323,0,0,0-4.757-2.02c-6.116.626-12.292,1.126-18.474,1.515-.843.061-1.687.111-2.525.157-39.867,2.369-79.375.449-100.753-1.01l-1.515-.111c-3.7-.263-6.8-.505-9.181-.712a5.323,5.323,0,0,0-5.676,4.308,5.555,5.555,0,0,0-.091.828l-.343,11.191-.47,14.176-.222,7.252v.566Z" transform="translate(-252.446 -408.823)" fill="#3f3d56"/>
	  <path id="パス_458" data-name="パス 458" d="M574.336,660.665l-.621,7.742-.924,11.54-.232,2.889-.505,6.469-.03.323v.086h0l-.076.747.056-.747h-.146l-54.038.505-88.708.96v-.141l.247-7.252.505-14.171.323-9.419a3.212,3.212,0,0,1,1.545-2.651,3.157,3.157,0,0,1,1.909-.455c1.061.086,2.364.187,3.884.3,2.47.182,5.515.394,9.06.616,6.565.414,14.8.859,24.241,1.222,26.261,1.01,61.714,1.348,95.39-1.6,1.515-.131,3.081-.278,4.611-.424a3.161,3.161,0,0,1,1.757.333,2.608,2.608,0,0,1,.434.273,3.1,3.1,0,0,1,1.01,1.242,1.8,1.8,0,0,1,.126.308A3.172,3.172,0,0,1,574.336,660.665Z" transform="translate(-252.461 -412.543)" opacity="0.1"/>
	  <path id="パス_459" data-name="パス 459" d="M354.092,677.87v1.611a3.1,3.1,0,0,1-1.768,2.8l-20.252.389a3.091,3.091,0,0,1-1.8-2.813V678.34Z" transform="translate(-203.538 -422.834)" opacity="0.1"/>
	  <path id="パス_460" data-name="パス 460" d="M272.738,511.279l-26.388.505v-4.379l26.388-.505Z" transform="translate(-121.931 -250.884)" fill="#3f3d56"/>
	  <path id="パス_461" data-name="パス 461" d="M272.738,511.279l-26.388.505v-4.379l26.388-.505Z" transform="translate(-121.931 -250.884)" opacity="0.1"/>
	  <path id="パス_462" data-name="パス 462" d="M274.738,511.279l-26.388.505v-4.379l26.388-.505Z" transform="translate(-122.921 -250.884)" fill="#3f3d56"/>
	  <g id="グループ_29" data-name="グループ 29" transform="translate(216.654 93.099)" opacity="0.1">
		<path id="パス_463" data-name="パス 463" d="M551.938,359.412a4.924,4.924,0,0,1-.955-2.192,4.792,4.792,0,0,0,.212,2.323A4.543,4.543,0,0,0,551.938,359.412Z" transform="translate(-529.411 -357.22)"/>
		<path id="パス_464" data-name="パス 464" d="M540.047,366.369a17.758,17.758,0,0,1-.187-1.869v1.874Z" transform="translate(-523.934 -360.823)"/>
		<path id="パス_465" data-name="パス 465" d="M621.7,397.412a9.255,9.255,0,0,1,.182-1.338,9.091,9.091,0,0,0,.4-2.369,3.115,3.115,0,0,0-.081-.535c-.086.465-.222.929-.323,1.389A9.666,9.666,0,0,0,621.7,397.412Z" transform="translate(-564.423 -375.014)"/>
		<path id="パス_466" data-name="パス 466" d="M600.919,368.161l.551.4a9.958,9.958,0,0,0,1.3-1.121,1.853,1.853,0,0,0,.192-1.838,1.513,1.513,0,0,1-.192.323C602.147,366.721,600.773,367.161,600.919,368.161Z" transform="translate(-554.151 -361.368)"/>
		<path id="パス_467" data-name="パス 467" d="M518.329,380.29a6.216,6.216,0,0,0-.439,1.151,9.169,9.169,0,0,1,2.525-.954Z" transform="translate(-513.059 -368.639)"/>
		<path id="パス_468" data-name="パス 468" d="M531.615,368.8a7.5,7.5,0,0,1-.949-.621,2.148,2.148,0,0,0,.045.6A5.994,5.994,0,0,1,531.615,368.8Z" transform="translate(-519.381 -362.645)"/>
		<path id="パス_469" data-name="パス 469" d="M569.936,428.33c-.207,2.449-1.348,4.808-2.273,7.131a67.787,67.787,0,0,0-3.682,14.55c-.7,4.439-1.515,9.479-5.3,11.939a15.149,15.149,0,0,1-3.449,1.515c-5.444,1.884-10.934,3.773-16.666,4.459s-11.747.086-16.747-2.773a10.1,10.1,0,0,1-3.626-3.2c-1.348-2.136-1.374-4.813-2.02-7.257a41.515,41.515,0,0,0-2.02-5.313c-1.116-2.717-1.975-5.555-2.828-8.348q-1.187-3.894-2.369-7.793a14.551,14.551,0,0,1-.576-2.4,9.052,9.052,0,0,0,.576,3.914q1.182,3.9,2.369,7.793c.853,2.813,1.712,5.631,2.828,8.348a41.531,41.531,0,0,1,2.02,5.313c.636,2.444.662,5.121,2.02,7.257a10.1,10.1,0,0,0,3.626,3.2c5,2.858,11.03,3.459,16.747,2.773s11.2-2.576,16.666-4.459a15.149,15.149,0,0,0,3.449-1.515c3.762-2.46,4.6-7.5,5.3-11.939a67.788,67.788,0,0,1,3.682-14.55c1.1-2.768,2.525-5.581,2.283-8.555C569.946,428.391,569.936,428.36,569.936,428.33Z" transform="translate(-508.324 -392.418)"/>
		<path id="パス_470" data-name="パス 470" d="M510.189,420.164v-.056a7.07,7.07,0,0,0-.232-2.651,13.426,13.426,0,0,1-.2-1.677,13.812,13.812,0,0,0,.2,3.192C510.038,419.366,510.129,419.765,510.189,420.164Z" transform="translate(-509.025 -386.206)"/>
		<path id="パス_471" data-name="パス 471" d="M511.944,397.075a14.014,14.014,0,0,1,1.318-1.853c-.924.884-2.631.1-2.99-1.131a2.945,2.945,0,0,0,0,1.515,2.217,2.217,0,0,0,1.672,1.47Z" transform="translate(-509.24 -375.47)"/>
	  </g>
	  <path id="パス_472" data-name="パス 472" d="M762.743,656.57s1.6,5.808,0,10.858S762.743,656.57,762.743,656.57Z" transform="translate(-417.248 -412.291)" opacity="0.1"/>
	  <path id="パス_473" data-name="パス 473" d="M775.616,668.3s.672,7.373-.843,8.681S775.616,668.3,775.616,668.3Z" transform="translate(-423.303 -418.097)" opacity="0.1"/>
	  <line id="線_3" data-name="線 3" y1="0.505" x2="51.316" transform="translate(100.501 172.666)" fill="none" stroke="#6c63ff" stroke-miterlimit="10" stroke-width="2"/>
	  <line id="線_4" data-name="線 4" y1="0.5" x2="51.316" transform="translate(100.501 178.969)" fill="none" stroke="#6c63ff" stroke-miterlimit="10" stroke-width="2"/>
	  <line id="線_5" data-name="線 5" y1="0.505" x2="51.316" transform="translate(100.501 185.266)" fill="none" stroke="#6c63ff" stroke-miterlimit="10" stroke-width="2"/>
	</g>
  </svg>
  