<?xml version="1.0" encoding="utf-8"?>
<!-- Generator: Adobe Illustrator 24.3.0, SVG Export Plug-In . SVG Version: 6.00 Build 0)  -->
<svg version="1.1" id="レイヤー_1" xmlns="http://www.w3.org/2000/svg" xmlns:xlink="http://www.w3.org/1999/xlink" x="0px"
	 y="0px" width="1536px" height="933px" viewBox="0 0 1536 933" style="enable-background:new 0 0 1536 933;" xml:space="preserve">
<style type="text/css">
	.st0{fill:#EDEFF6;}
	.st1{fill:#5110A8;}
	.st2{fill:#EF74AD;}
	.st3{fill:#FF5958;}
	.st4{opacity:0.45;fill:#4DD6E5;}
	.st5{fill:#FFAA02;}
</style>
<g transform="matrix(1, 0, 0, 1, 0, 0)">
	<path id="長方形_3-2" class="st0" d="M-111.115-41.271l1631.217-203.07l0,0l177.547,918.193
		c6.002,31.038-19.779,60.015-57.582,64.721L145.749,924.6c-37.804,4.706-73.315-16.64-79.317-47.679L-111.115-41.271
		L-111.115-41.271z"/>
</g>
<rect id="長方形_148" x="169.472" y="798.851" transform="matrix(0.7071 -0.7071 0.7071 0.7071 -519.6294 364.4193)" class="st1" width="21.213" height="21.213"/>
<circle id="楕円形_64" class="st2" cx="689.078" cy="708.458" r="15"/>
<path id="多角形_1" class="st3" d="M1361.078,615.761l14.034,6.782l3.466,15.238l-9.712,12.22h-15.577l-9.712-12.22l3.466-15.238
	L1361.078,615.761z"/>
<path id="多角形_2" class="st1" d="M1173.578,266.593l7.5,12.907l-7.5,12.907h-15l-7.5-12.907l7.5-12.907H1173.578z"/>
<circle id="楕円形_65" class="st4" cx="418.078" cy="323.458" r="15"/>
<rect id="長方形_145" x="908.06" y="437.968" transform="matrix(0.7071 -0.7071 0.7071 0.7071 -48.119 780.9799)" class="st5" width="21.213" height="21.213"/>
</svg>
