<svg id="グループ_72" data-name="グループ 72" xmlns="http://www.w3.org/2000/svg" width="358" height="378.948" viewBox="0 0 358 378.948">
	<path id="パス_494" data-name="パス 494" d="M299.69,632.315,295.425,615.5a218.4,218.4,0,0,0-23.171-8.311L271.716,615l-2.184-8.611c-9.765-2.788-16.407-4.016-16.407-4.016s8.975,34.121,27.8,60.205l21.93,3.851-17.036,2.457a88.377,88.377,0,0,0,7.621,8.075c27.379,25.411,57.873,37.068,68.111,26.038s-3.659-40.572-31.038-65.983c-8.488-7.878-19.15-14.2-29.823-19.174Z" transform="translate(-250.519 -335.415)" fill="#6c63ff"/>
	<path id="パス_495" data-name="パス 495" d="M393.368,577.3l5.042-16.6A218.4,218.4,0,0,0,382.871,541.6l-4.5,6.413,2.582-8.5c-6.918-7.434-11.97-11.919-11.97-11.919s-9.954,33.848-7.326,65.906l16.782,14.632-15.854-6.7a88.349,88.349,0,0,0,2.35,10.852c10.3,35.905,30.382,61.647,44.847,57.5s17.84-36.622,7.537-72.527c-3.194-11.131-9.054-22.054-15.619-31.829Z" transform="translate(-303.642 -298.663)" fill="#6c63ff"/>
	<ellipse id="楕円形_66" data-name="楕円形 66" cx="179" cy="9.153" rx="179" ry="9.153" transform="translate(0 360.641)" fill="#3f3d56"/>
	<path id="パス_496" data-name="パス 496" d="M627.3,165.35h-2.034V109.644A32.241,32.241,0,0,0,593.027,77.4H475.006a32.241,32.241,0,0,0-32.241,32.241V415.253a32.241,32.241,0,0,0,32.241,32.241H593.027a32.241,32.241,0,0,0,32.241-32.241V205H627.3Z" transform="translate(-343.722 -77.403)" fill="#3f3d56"/>
	<path id="パス_497" data-name="パス 497" d="M627,117.976V423.135a24.079,24.079,0,0,1-24.078,24.078H484.339a24.079,24.079,0,0,1-24.079-24.078V117.976A24.079,24.079,0,0,1,484.338,93.9h14.387a11.445,11.445,0,0,0,10.592,15.759H576.93A11.445,11.445,0,0,0,587.523,93.9h15.4A24.079,24.079,0,0,1,627,117.975Z" transform="translate(-352.321 -85.509)" fill="#fff"/>
	<path id="パス_498" data-name="パス 498" d="M627,580.063v65.564a24.079,24.079,0,0,1-24.078,24.078H484.339a24.079,24.079,0,0,1-24.079-24.078V586.455A113.386,113.386,0,0,1,627,580.063Z" transform="translate(-352.321 -308.001)" fill="#e6e6e6"/>
	<path id="パス_499" data-name="パス 499" d="M317.542,420.685H312.75l1.6-93.621h1.6Z" transform="translate(-153.71 -160.745)" fill="#e6e6e6"/>
	<path id="パス_500" data-name="パス 500" d="M548.693,245.328l7.736-11.956a179.259,179.259,0,0,0-7.937-18.58l-5,4.041,3.961-6.122c-3.775-7.431-6.745-12.113-6.745-12.113s-15.516,24.45-20.7,50.338l9.928,15.343-10.99-8.877a72.525,72.525,0,0,0-.6,9.094c0,30.659,10.013,55.514,22.365,55.514s22.365-24.854,22.365-55.514c0-9.5-2.15-19.449-5.116-28.647Z" transform="translate(-380.866 -137.95)" fill="#e6e6e6"/>
	<path id="パス_501" data-name="パス 501" d="M265.232,480.284h-2.324l.775-45.4h.774Z" transform="translate(-129.213 -213.733)" fill="#e6e6e6"/>
	<path id="パス_502" data-name="パス 502" d="M505.06,435.1l3.752-5.8a86.932,86.932,0,0,0-3.849-9.011l-2.426,1.96,1.921-2.969c-1.831-3.6-3.271-5.875-3.271-5.875s-7.525,11.858-10.039,24.413l4.815,7.441-5.33-4.305a35.159,35.159,0,0,0-.292,4.41c0,14.869,4.856,26.923,10.847,26.923s10.847-12.054,10.847-26.923a46.305,46.305,0,0,0-2.481-13.894Z" transform="translate(-367.104 -242.541)" fill="#e6e6e6"/>
	<path id="パス_503" data-name="パス 503" d="M384.232,480.284h-2.324l.775-45.4h.774Z" transform="translate(-187.699 -213.733)" fill="#e6e6e6"/>
	<path id="パス_504" data-name="パス 504" d="M624.06,435.1l3.752-5.8a86.928,86.928,0,0,0-3.849-9.011l-2.426,1.96,1.921-2.969c-1.831-3.6-3.271-5.875-3.271-5.875s-7.525,11.858-10.039,24.413l4.815,7.441-5.33-4.305a35.171,35.171,0,0,0-.292,4.41c0,14.869,4.856,26.923,10.847,26.923s10.847-12.054,10.847-26.923a46.306,46.306,0,0,0-2.481-13.894Z" transform="translate(-425.59 -242.541)" fill="#e6e6e6"/>
	<circle id="楕円形_67" data-name="楕円形 67" cx="21.358" cy="21.358" r="21.358" transform="translate(112.892 73.326)" fill="#e6e6e6"/>
	<path id="パス_505" data-name="パス 505" d="M415.872,190.182l38.984.968,5.247-46.485H415.872Z" transform="translate(-204.392 -71.1)" fill="#2f2e41"/>
	<path id="パス_506" data-name="パス 506" d="M634.377,181.3l-10.754-41.23s2.971-19.792,10.157-19.465-1.866,19.349-1.866,19.349l12.176,35.616Z" transform="translate(-432.61 -98.632)" fill="#ffb8b8"/>
	<path id="パス_507" data-name="パス 507" d="M634.958,443.109l1.684,16.84s-53.044,36.2-53.044,51.361-1.684,63.148-1.684,63.148l19.365.842,1.684-22.733s4.21-25.259,1.684-34.521L632.432,497s-8.42,10.1-6.736,27.785-2.526,52.2-2.526,52.2l20.207,1.684s2.526-18.524,3.368-20.208,5.052-32,.842-40.415l34.521-40.415s11.788-15.156,0-30.311l-6.736-3.368Z" transform="translate(-412.111 -257.139)" fill="#2f2e41"/>
	<path id="パス_508" data-name="パス 508" d="M561.735,694.78l-1.684,10.946-10.946,26.1s-18.524,9.262-5.052,10.946,18.523-1.684,21.049-5.894,7.578-10.946,7.578-10.946l-.842,17.682h4.21l6.9-24.151a15.232,15.232,0,0,0-2.59-13.612l-.1-.126c-3.368-4.21-1.684-10.1-1.684-10.1Z" transform="translate(-391.091 -380.829)" fill="#2f2e41"/>
	<path id="パス_509" data-name="パス 509" d="M644.521,694.78l-1.684,10.946-10.946,26.1s-18.523,9.262-5.052,10.946,18.523-1.684,21.049-5.894,7.578-10.946,7.578-10.946l-.842,17.682h4.21l6.9-24.151a15.232,15.232,0,0,0-2.59-13.612l-.1-.126c-3.368-4.21-1.684-10.1-1.684-10.1Z" transform="translate(-431.778 -380.829)" fill="#2f2e41"/>
	<circle id="楕円形_68" data-name="楕円形 68" cx="16.84" cy="16.84" r="16.84" transform="translate(216.111 65.567)" fill="#ffb8b8"/>
	<path id="パス_510" data-name="パス 510" d="M704.437,259.464l7.578,17.681,15.156-11.788s-9.262-12.63-9.262-14.314Z" transform="translate(-472.328 -162.744)" fill="#ffb8b8"/>
	<path id="パス_511" data-name="パス 511" d="M675.2,278.763l3.592,2.207s11.606-6.154,14.532-10.5c0,0,10.5-3.5,14.713,4.92s-2.526,66.516-2.526,66.516,4.21,5.894,3.368,8.42,2.526,6.736,2.526,6.736v5.052s-47.993.842-47.993-3.368V345.279l-5.052-1.684s-5.052,10.946-6.736,10.1-10.1-7.578-10.1-7.578,13.472-44.625,21.049-52.2l9.262-16Z" transform="translate(-441.406 -171.939)" fill="#6c63ff"/>
	<path id="パス_512" data-name="パス 512" d="M671.073,255.762s-1.684-3.368-4.21-4.21-15.156-18.523-15.156-18.523l1.684-9.262-16.84-2.526s.842,9.262,4.21,15.156,21.891,36.2,21.891,36.2l9.262-16.84Z" transform="translate(-438.965 -148.096)" fill="#6c63ff"/>
	<path id="パス_513" data-name="パス 513" d="M707.919,420.756l-10.1,30.311s-21.049,23.575-9.262,23.575,17.681-21.049,17.681-21.049l14.314-30.311Z" transform="translate(-462.76 -246.153)" fill="#ffb8b8"/>
	<path id="パス_514" data-name="パス 514" d="M666.4,222.549c13.487-5.406,26.784-6.559,39.734,0v-10.9a7.1,7.1,0,0,0-7.1-7.1h-27.03a5.606,5.606,0,0,0-5.606,5.606Z" transform="translate(-453.636 -139.896)" fill="#2f2e41"/>
	<path id="パス_515" data-name="パス 515" d="M736.7,283.274s7.682-6.507,11.84.956,1.632,39.458.79,43.668S742.6,358.21,742.6,358.21L722.39,354s-1.684-11.788,3.368-10.946Z" transform="translate(-481.019 -177.292)" fill="#6c63ff"/>
	<path id="パス_516" data-name="パス 516" d="M699.952,230.311c-3.8-2.087-5.57-6.773-5.7-11.108s.925-8.625,1.008-12.961a10.02,10.02,0,0,0-.225-2.643,10.165,10.165,0,0,0-1.454-3.009c-4.943-7.574-13.536-12.9-22.587-12.986a10.032,10.032,0,0,0-3.822.7c-.936.375-1.242.329-1.421,1.478a9.564,9.564,0,0,0-6.564.209,22.206,22.206,0,0,0-5.74,3.419,25.892,25.892,0,0,0-2.9,2.513c-4.783,4.955-5.885,12.592-4.5,19.338.451,2.193-1.711,4.311-3.5,5.658s-3.854,2.584-4.732,4.644c-.845,1.981-.381,4.247-.551,6.394a10.936,10.936,0,0,1-6.977,9.189,3.366,3.366,0,0,0,3.247,1.142,7.993,7.993,0,0,0,3.384-1.611,20.128,20.128,0,0,0,7.5-11.134,32.66,32.66,0,0,1,.3,7.3,20.391,20.391,0,0,1-1.479,7.973,11.675,11.675,0,0,1-5.375,5.919c2.346,1.149,4.932.316,6.92-1.379a14.46,14.46,0,0,0,3.982-6.635,33.067,33.067,0,0,0,1.593-12.55,17.92,17.92,0,0,1,2.249,12.217,18.678,18.678,0,0,1-6.335,11,36.389,36.389,0,0,0,16.655-4.194,9.426,9.426,0,0,0,3.416-2.631c1.653-2.293,1.262-5.421.8-8.21-.367-2.205,2.389-5.393.811-6.977a2.616,2.616,0,0,0-1.754-.754,15.523,15.523,0,0,1-11.823-6.968,17.948,17.948,0,0,1-2.988-9.2,16.746,16.746,0,1,1,32.741,4.97,33.608,33.608,0,0,0-1.219,5.675,44.6,44.6,0,0,1-1.359,6.6c-1.194,4.157-3.217,8.4-6.959,10.568a10.861,10.861,0,0,0,4.138.876c4.7.517,9.635.4,13.886-1.659S700.255,235.025,699.952,230.311Z" transform="translate(-435.887 -131.564)" fill="#2f2e41"/>
	<path id="パス_517" data-name="パス 517" d="M486.133,252.288l-4.394,36.173.184-34.489Z" transform="translate(-236.764 -123.994)" opacity="0.2"/>
	<path id="パス_518" data-name="パス 518" d="M517.024,336.291l-1.808,11.169,4.21,1.684Z" transform="translate(-253.217 -165.279)" opacity="0.2"/>
  </svg>
  