<svg xmlns="http://www.w3.org/2000/svg" width="324.762" height="130.584" viewBox="0 0 324.762 130.584">
	<g id="グループ_3" data-name="グループ 3" transform="translate(0 -77.227)">
	  <path id="パス_23" data-name="パス 23" d="M488.733,583.647c0-3.39-12.76-6.139-28.5-6.139s-28.5,2.748-28.5,6.139c0,2.173,5.246,4.081,13.154,5.171v33.633a2.85,2.85,0,0,0,5.7,0V589.424c3.013.233,6.26.361,9.646.361s6.633-.128,9.646-.361v33.027a2.85,2.85,0,0,0,5.7,0V588.818C483.487,587.727,488.733,585.819,488.733,583.647Z" transform="translate(-343.131 -417.694)" fill="#ccc"/>
	  <path id="パス_24" data-name="パス 24" d="M319.562,434.352h5.376l2.557-20.734h-7.934Z" transform="translate(-179.444 -232.26)" fill="#a0616a"/>
	  <path id="パス_25" data-name="パス 25" d="M0,0H16.894V6.527H6.527A6.527,6.527,0,0,1,0,0Z" transform="translate(155.859 207.084) rotate(179.997)" fill="#2f2e41"/>
	  <path id="パス_26" data-name="パス 26" d="M330.75,425.686l5.129-1.61-3.767-20.549-7.57,2.375Z" transform="translate(-182.241 -226.594)" fill="#a0616a"/>
	  <path id="パス_27" data-name="パス 27" d="M0,0H16.894V6.527H6.527A6.527,6.527,0,0,1,0,0H0Z" transform="translate(165.024 199.142) rotate(162.577)" fill="#2f2e41"/>
	  <path id="パス_28" data-name="パス 28" d="M510.582,591.433l-9.834-25.813c-2.206.518-20.707,4.612-26.9-1.986-2.124-2.261-2.538-5.537-1.231-9.737l3.616-4.544.112.006c1.367.072,33.514,1.874,35.718,11.571,1.858,8.175,5.251,23.417,6.247,27.893a1.98,1.98,0,0,1-1.234,2.273l-3.955,1.483a1.958,1.958,0,0,1-.689.125,1.979,1.979,0,0,1-1.847-1.27Z" transform="translate(-365.669 -401.884)" fill="#2f2e41"/>
	  <path id="パス_29" data-name="パス 29" d="M497.582,598.433l-9.834-25.813c-2.206.518-20.707,4.612-26.9-1.986-2.124-2.261-2.538-5.537-1.231-9.737l3.616-4.544.112.006c1.367.072,33.514,1.874,35.718,11.571,1.858,8.175,5.251,23.417,6.247,27.893a1.98,1.98,0,0,1-1.234,2.273l-3.955,1.483a1.974,1.974,0,0,1-2.537-1.145Z" transform="translate(-358.369 -405.815)" fill="#2f2e41"/>
	  <path id="パス_30" data-name="パス 30" d="M536.255,508.869a4.616,4.616,0,0,0-.388.615l-21.625,2.278-3.113-4.268-7.055,3.856,6.114,10.357,26.522-6.762a4.6,4.6,0,1,0-.454-6.076Z" transform="translate(-383.753 -378.128)" fill="#a0616a"/>
	  <path id="パス_31" data-name="パス 31" d="M457.013,515.5a1.976,1.976,0,0,1-.8-1.907c1.22-8.043-.184-19.564-1.576-27.813a10.872,10.872,0,0,1,12.084-12.611,35.028,35.028,0,0,1,4.346.857h0a10.785,10.785,0,0,1,8.148,10.728c-.208,7.96,1.408,17.892,2.113,21.792a1.981,1.981,0,0,1-.366,1.539,1.926,1.926,0,0,1-1.357.767c-7.808.8-16.229,4.6-20.553,6.8a1.974,1.974,0,0,1-.9.22A1.941,1.941,0,0,1,457.013,515.5Z" transform="translate(-355.907 -359.058)" fill="#6c63ff"/>
	  <path id="パス_32" data-name="パス 32" d="M500.822,499.261a1.96,1.96,0,0,1-1.085-1.051l-4.355-10.06a5.042,5.042,0,1,1,9.255-4.006l4.355,10.06a1.976,1.976,0,0,1-1.027,2.594l-5.633,2.439a1.96,1.96,0,0,1-1.51.024Z" transform="translate(-378.64 -363.56)" fill="#6c63ff"/>
	  <path id="パス_33" data-name="パス 33" d="M489.255,506.869a4.616,4.616,0,0,0-.388.615l-21.625,2.278-3.113-4.268-7.055,3.856,6.114,10.357,26.522-6.762a4.6,4.6,0,1,0-.454-6.076Z" transform="translate(-357.361 -377.005)" fill="#a0616a"/>
	  <path id="パス_34" data-name="パス 34" d="M453.822,500.261a1.96,1.96,0,0,1-1.085-1.051l-4.355-10.06a5.042,5.042,0,1,1,9.255-4.006l4.355,10.06a1.976,1.976,0,0,1-1.027,2.594l-5.633,2.439A1.959,1.959,0,0,1,453.822,500.261Z" transform="translate(-352.247 -364.122)" fill="#6c63ff"/>
	  <circle id="楕円形_4" data-name="楕円形 4" cx="10.769" cy="10.769" r="10.769" transform="translate(99.245 89.153)" fill="#a0616a"/>
	  <path id="パス_35" data-name="パス 35" d="M456.227,429.111a.936.936,0,0,1,.814-1.236,2.162,2.162,0,0,1,1.524.752,6.066,6.066,0,0,0,1.347,1.156,1.159,1.159,0,0,0,1.524-.275,2.12,2.12,0,0,0-.081-1.646,16.183,16.183,0,0,1-.715-4.284A7.543,7.543,0,0,1,461.719,419a6.061,6.061,0,0,1,5.194-2.208,34.91,34.91,0,0,1,5.835,1.033,1.96,1.96,0,0,0,1.908-.32,2.459,2.459,0,0,0,.1-2.194,15.238,15.238,0,0,0-2.309-5.5,8.286,8.286,0,0,0-5.288-2.977,12.688,12.688,0,0,0-5.9.67,15.827,15.827,0,0,0-7.753,5.4,12.819,12.819,0,0,0-2.446,9.471,11.693,11.693,0,0,0,4.335,7.39Z" transform="translate(-353.913 -321.798)" fill="#2f2e41"/>
	  <path id="パス_36" data-name="パス 36" d="M368.391,489.064a53.511,53.511,0,0,1,4.429-16.889q1-2.233,2.2-4.367a.326.326,0,0,0-.563-.329,54.251,54.251,0,0,0-6.037,16.654q-.453,2.448-.681,4.931C367.7,489.482,368.353,489.479,368.391,489.064Z" transform="translate(-307.196 -355.824)" fill="#3f3d56"/>
	  <circle id="楕円形_5" data-name="楕円形 5" cx="4.128" cy="4.128" r="4.128" transform="translate(65.275 104.773)" fill="#6c63ff"/>
	  <path id="パス_37" data-name="パス 37" d="M369.648,499.092a34.715,34.715,0,0,1,2.873-10.956q.648-1.449,1.427-2.833a.212.212,0,0,0-.365-.213,35.194,35.194,0,0,0-3.916,10.8q-.294,1.588-.442,3.2C369.2,499.363,369.624,499.361,369.648,499.092Z" transform="translate(-308.031 -365.743)" fill="#3f3d56"/>
	  <circle id="楕円形_6" data-name="楕円形 6" cx="2.678" cy="2.678" r="2.678" transform="translate(64.264 114.882)" fill="#6c63ff"/>
	  <path id="パス_38" data-name="パス 38" d="M361.917,499.038a34.715,34.715,0,0,1-4.473-10.406q-.38-1.541-.617-3.112a.212.212,0,0,0-.419.056,35.2,35.2,0,0,0,3.557,10.928q.745,1.433,1.619,2.794C361.73,499.527,362.063,499.265,361.917,499.038Z" transform="translate(-300.833 -365.941)" fill="#3f3d56"/>
	  <circle id="楕円形_7" data-name="楕円形 7" cx="2.678" cy="2.678" r="2.678" transform="translate(52.893 114.694)" fill="#6c63ff"/>
	  <path id="パス_39" data-name="パス 39" d="M350.224,512.714v-5.262a1.975,1.975,0,0,1,1.973-1.973h12.277a1.975,1.975,0,0,1,1.973,1.973v5.262a1.975,1.975,0,0,1-1.973,1.973H352.2A1.975,1.975,0,0,1,350.224,512.714Z" transform="translate(-297.362 -377.248)" fill="#ccc"/>
	  <rect id="長方形_32" data-name="長方形 32" width="37.708" height="3.069" rx="1.535" transform="translate(126.748 133.944)" fill="#ccc"/>
	  <path id="パス_40" data-name="パス 40" d="M600.606,490.693H561.582a2.853,2.853,0,0,1-2.85-2.85V466.358a2.853,2.853,0,0,1,2.85-2.85h39.024a2.853,2.853,0,0,1,2.85,2.85v21.485a2.853,2.853,0,0,1-2.85,2.85Z" transform="translate(-414.446 -353.68)" fill="#ccc"/>
	  <circle id="楕円形_8" data-name="楕円形 8" cx="2.631" cy="2.631" r="2.631" transform="translate(164.017 120.79)" fill="#fff"/>
	  <path id="パス_41" data-name="パス 41" d="M807.733,583.647c0-3.39-12.76-6.139-28.5-6.139s-28.5,2.748-28.5,6.139c0,2.173,5.246,4.081,13.154,5.171v33.633a2.85,2.85,0,0,0,5.7,0V589.424c3.013.233,6.26.361,9.646.361s6.633-.128,9.646-.361v33.027a2.85,2.85,0,0,0,5.7,0V588.818C802.487,587.727,807.733,585.819,807.733,583.647Z" transform="translate(-522.26 -417.694)" fill="#ccc"/>
	  <circle id="楕円形_9" data-name="楕円形 9" cx="12.277" cy="12.277" r="12.277" transform="translate(247.847 85.212)" fill="#2f2e41"/>
	  <path id="パス_42" data-name="パス 42" d="M513.418,435.352h-5.376l-2.557-20.734h7.934Z" transform="translate(-283.846 -232.822)" fill="#ffb8b8"/>
	  <path id="パス_43" data-name="パス 43" d="M494.2,458.4h10.367v6.527H487.673A6.527,6.527,0,0,1,494.2,458.4Z" transform="translate(-273.844 -257.408)" fill="#2f2e41"/>
	  <path id="パス_44" data-name="パス 44" d="M497.871,426.686l-5.129-1.61,3.767-20.549,7.57,2.375Z" transform="translate(-276.691 -227.156)" fill="#ffb8b8"/>
	  <path id="パス_45" data-name="パス 45" d="M6.527,0H16.894V6.527H0A6.527,6.527,0,0,1,6.527,0Z" transform="translate(206.618 193.352) rotate(17.423)" fill="#2f2e41"/>
	  <path id="パス_46" data-name="パス 46" d="M730.5,593.7a1.956,1.956,0,0,1-.689-.125L725.86,592.1a1.98,1.98,0,0,1-1.234-2.273c1-4.477,4.389-19.718,6.247-27.893,2.2-9.7,34.351-11.5,35.718-11.571l.112-.006,3.616,4.544c1.307,4.2.893,7.476-1.231,9.737-6.2,6.6-24.7,2.5-26.9,1.986l-9.834,25.813A1.979,1.979,0,0,1,730.5,593.7Z" transform="translate(-507.575 -402.446)" fill="#2f2e41"/>
	  <path id="パス_47" data-name="パス 47" d="M743.5,600.7a1.956,1.956,0,0,1-.689-.125L738.86,599.1a1.98,1.98,0,0,1-1.234-2.273c1-4.477,4.389-19.718,6.247-27.893,2.2-9.7,34.351-11.5,35.718-11.571l.112-.006,3.616,4.544c1.307,4.2.893,7.476-1.231,9.737-6.2,6.6-24.7,2.5-26.9,1.986l-9.834,25.813A1.979,1.979,0,0,1,743.5,600.7Z" transform="translate(-514.875 -406.377)" fill="#2f2e41"/>
	  <path id="パス_48" data-name="パス 48" d="M714.405,509.869a4.616,4.616,0,0,1,.388.615l21.625,2.278,3.113-4.268,7.055,3.856-6.114,10.357-26.522-6.762a4.6,4.6,0,1,1,.454-6.076Z" transform="translate(-497.218 -378.69)" fill="#ffb8b8"/>
	  <path id="パス_49" data-name="パス 49" d="M809.89,516.879a1.974,1.974,0,0,1-.9-.22c-4.324-2.2-12.745-6.007-20.553-6.8a1.926,1.926,0,0,1-1.357-.767,1.981,1.981,0,0,1-.366-1.539c.7-3.9,2.321-13.832,2.113-21.792a10.785,10.785,0,0,1,8.148-10.728h0a35.021,35.021,0,0,1,4.346-.857,10.872,10.872,0,0,1,12.084,12.611c-1.393,8.249-2.8,19.77-1.576,27.813a1.976,1.976,0,0,1-.8,1.907A1.942,1.942,0,0,1,809.89,516.879Z" transform="translate(-542.448 -359.619)" fill="#e5e4fc"/>
	  <path id="パス_50" data-name="パス 50" d="M782.746,500.4a1.97,1.97,0,0,1-.783-.164l-5.633-2.439A1.976,1.976,0,0,1,775.3,495.2l4.355-10.059a5.042,5.042,0,0,1,9.255,4.006l-4.355,10.06a1.978,1.978,0,0,1-1.811,1.191Z" transform="translate(-535.966 -364.122)" fill="#e5e4fc"/>
	  <circle id="楕円形_10" data-name="楕円形 10" cx="10.769" cy="10.769" r="10.769" transform="translate(248.906 89.592)" fill="#ffb8b8"/>
	  <path id="パス_51" data-name="パス 51" d="M796.893,420.325a38.844,38.844,0,0,0,16.8,5.537l-1.771-2.122a13.017,13.017,0,0,0,4.021.8,4.4,4.4,0,0,0,3.589-1.68,4.1,4.1,0,0,0,.274-3.784,7.757,7.757,0,0,0-2.441-3.052,14.531,14.531,0,0,0-13.524-2.417,8.684,8.684,0,0,0-4.039,2.591c-1.021,1.259-2.986,2.382-2.464,3.916Z" transform="translate(-548.181 -325.255)" fill="#2f2e41"/>
	  <path id="パス_52" data-name="パス 52" d="M775.957,398.307a33.1,33.1,0,0,0-12.042-7.787,16.942,16.942,0,0,0-9.122-1.132c-3.043.612-5.921,2.718-6.77,5.7-.694,2.442.023,5.07,1.1,7.369s2.516,4.43,3.387,6.814a15.551,15.551,0,0,1-15.648,20.855c2.99.4,5.746,1.806,8.669,2.554s6.372.7,8.544-1.4c2.3-2.215,2.344-5.817,2.233-9.007l-.5-14.226a18.074,18.074,0,0,1,.716-7.171c.872-2.257,2.945-4.234,5.365-4.213,1.834.016,3.457,1.127,4.928,2.222s3.027,2.265,4.854,2.428,3.912-1.189,3.776-3.018" transform="translate(-514.471 -311.928)" fill="#2f2e41"/>
	  <path id="パス_53" data-name="パス 53" d="M482.2,281.087l24.8.585,3.592,26.508-22.9.514Z" transform="translate(-270.769 -157.84)" fill="#e6e6e6"/>
	  <path id="パス_54" data-name="パス 54" d="M761.405,507.869a4.614,4.614,0,0,1,.388.615l21.625,2.278,3.113-4.268,7.055,3.856-6.114,10.357-26.522-6.762a4.6,4.6,0,1,1,.454-6.076Z" transform="translate(-523.61 -377.567)" fill="#ffb8b8"/>
	  <path id="パス_55" data-name="パス 55" d="M829.746,501.4a1.971,1.971,0,0,1-.783-.164l-5.633-2.439A1.976,1.976,0,0,1,822.3,496.2l4.355-10.059a5.042,5.042,0,0,1,9.255,4.006l-4.355,10.059A1.978,1.978,0,0,1,829.746,501.4Z" transform="translate(-562.358 -364.683)" fill="#e5e4fc"/>
	  <path id="パス_56" data-name="パス 56" d="M496.092,524.508H321.582a2.85,2.85,0,0,0,0,5.7h5.042v62.043a2.85,2.85,0,1,0,5.7,0V535.685L364.276,593.6a2.85,2.85,0,0,0,4.936-2.85l-33.4-60.538H488.419v.037l-33.38,60.5a2.85,2.85,0,0,0,4.936,2.85l28.444-51.554v50.209a2.85,2.85,0,1,0,5.7,0v-60.54l.829-1.5h1.144a2.85,2.85,0,1,0,0-5.7Z" transform="translate(-279.678 -387.933)" fill="#3f3d56"/>
	  <path id="パス_57" data-name="パス 57" d="M553.9,685.637H230.184a.522.522,0,1,1,0-1.044H553.9a.522.522,0,1,1,0,1.044Z" transform="translate(-229.662 -477.826)" fill="#3f3d56"/>
	</g>
  </svg>
  