<svg id="グループ_20" data-name="グループ 20" xmlns="http://www.w3.org/2000/svg" width="389.079" height="288.288" viewBox="0 0 389.079 288.288">
  <circle id="楕円形_33" data-name="楕円形 33" cx="0.919" cy="0.919" r="0.919" transform="translate(324.79 266.967)" fill="#6c63ff"/>
  <path id="パス_231" data-name="パス 231" d="M893.68,725.541a.917.917,0,0,1-1.005,1.511.918.918,0,1,0,1.005-1.511Z" transform="translate(-567.583 -458.487)" opacity="0.2" style="isolation: isolate"/>
  <ellipse id="楕円形_34" data-name="楕円形 34" cx="2.258" cy="0.919" rx="2.258" ry="0.919" transform="translate(347.066 267.962)" fill="#3f3d56"/>
  <path id="パス_232" data-name="パス 232" d="M946.716,727.577q-.116,0-.23,0c1.139.047,2.029.438,2.029.914s-.889.867-2.029.914q.113,0,.23,0c1.247,0,2.258-.411,2.258-.919S947.963,727.577,946.716,727.577Z" transform="translate(-597.391 -459.615)" opacity="0.2" style="isolation: isolate"/>
  <path id="パス_233" data-name="パス 233" d="M916.819,727.83H905.49v-1.225a.23.23,0,0,0-.23-.23h-6.277a.23.23,0,0,0-.23.23v1.225H892.17v-.766a.23.23,0,0,0-.23-.23h-3.368a.23.23,0,0,0-.23.23v.766h-.919a.229.229,0,0,0-.23.229V743.14a.229.229,0,0,0,.229.23h29.4a.229.229,0,0,0,.23-.229V728.06a.229.229,0,0,0-.229-.23Z" transform="translate(-564.547 -458.949)" fill="#3f3d56"/>
  <rect id="長方形_64" data-name="長方形 64" width="29.855" height="2.909" transform="translate(322.647 275.158)" fill="#6c63ff"/>
  <circle id="楕円形_35" data-name="楕円形 35" cx="5.818" cy="5.818" r="5.818" transform="translate(331.756 270.795)" fill="#6c63ff"/>
  <circle id="楕円形_36" data-name="楕円形 36" cx="4.33" cy="4.33" r="4.33" transform="translate(333.245 272.283)" fill="#3f3d56"/>
  <path id="パス_234" data-name="パス 234" d="M919.843,742.786a3.345,3.345,0,0,1-.273,1.33,3.3,3.3,0,0,1-.364.641,3.368,3.368,0,1,1-4.7-4.7,3.293,3.293,0,0,1,.641-.364,3.369,3.369,0,0,1,4.7,3.095Z" transform="translate(-578.9 -466.174)" fill="#fff"/>
  <rect id="長方形_65" data-name="長方形 65" width="0.892" height="83.414" transform="translate(49.177)" fill="#e6e6e6"/>
  <path id="パス_235" data-name="パス 235" d="M164.415,230.2a.539.539,0,0,0-.538.538v70.386a.539.539,0,0,0,.538.538h98.059a.539.539,0,0,0,.538-.538V230.742a.539.539,0,0,0-.538-.538Z" transform="translate(-163.877 -184.102)" fill="#e6e6e6"/>
  <path id="パス_236" data-name="パス 236" d="M264.2,241.661v50.02a1.259,1.259,0,0,1-1.258,1.259H178.032a1.061,1.061,0,0,1-.18-.014,1.258,1.258,0,0,1-1.079-1.245v-50.02a1.259,1.259,0,0,1,1.258-1.259h84.913a1.259,1.259,0,0,1,1.259,1.259Z" transform="translate(-171.02 -189.751)" fill="#fff"/>
  <path id="パス_237" data-name="パス 237" d="M234.87,302.344h-54.2a1.107,1.107,0,0,1-.2-.016l25.634-44.4a1.795,1.795,0,0,1,3.124,0l17.2,29.8.824,1.426Z" transform="translate(-173.067 -198.954)" fill="#e6e6e6"/>
  <path id="パス_238" data-name="パス 238" d="M115.571,213.625h-18.5l9.084-13.2.654-.951.327-.475.824,1.426Z" transform="translate(-53.768 -110.235)" opacity="0.2" style="isolation: isolate"/>
  <path id="パス_239" data-name="パス 239" d="M311.867,318.593H264.989l9.084-13.195.654-.951,11.837-17.2a2.4,2.4,0,0,1,3.555-.213,2.144,2.144,0,0,1,.17.213Z" transform="translate(-219.886 -215.204)" fill="#e6e6e6"/>
  <circle id="楕円形_37" data-name="楕円形 37" cx="1.784" cy="1.784" r="1.784" transform="translate(47.839 45.945)" fill="#fff"/>
  <rect id="長方形_66" data-name="長方形 66" width="0.892" height="83.414" transform="translate(194.148)" fill="#e6e6e6"/>
  <path id="パス_240" data-name="パス 240" d="M489.415,230.2a.539.539,0,0,0-.538.538v70.386a.539.539,0,0,0,.538.538h98.059a.539.539,0,0,0,.538-.538V230.742a.539.539,0,0,0-.538-.538Z" transform="translate(-343.906 -184.102)" fill="#e6e6e6"/>
  <path id="パス_241" data-name="パス 241" d="M589.2,241.661v50.02a1.259,1.259,0,0,1-1.258,1.259H503.032a1.061,1.061,0,0,1-.18-.014,1.258,1.258,0,0,1-1.079-1.245v-50.02a1.259,1.259,0,0,1,1.258-1.259h84.913a1.259,1.259,0,0,1,1.259,1.259Z" transform="translate(-351.049 -189.751)" fill="#fff"/>
  <path id="パス_242" data-name="パス 242" d="M559.87,302.344h-54.2a1.107,1.107,0,0,1-.2-.016l25.634-44.4a1.795,1.795,0,0,1,3.124,0l17.2,29.8.824,1.426Z" transform="translate(-353.096 -198.954)" fill="#6c63ff"/>
  <path id="パス_243" data-name="パス 243" d="M440.571,213.625h-18.5l9.084-13.2.654-.951.327-.475.824,1.426Z" transform="translate(-233.797 -110.235)" opacity="0.2" style="isolation: isolate"/>
  <path id="パス_244" data-name="パス 244" d="M636.867,318.593H589.989l9.084-13.195.654-.951,11.837-17.2a2.4,2.4,0,0,1,3.555-.213,2.132,2.132,0,0,1,.17.213Z" transform="translate(-399.915 -215.204)" fill="#6c63ff"/>
  <circle id="楕円形_38" data-name="楕円形 38" cx="1.784" cy="1.784" r="1.784" transform="translate(192.81 45.945)" fill="#fff"/>
  <rect id="長方形_67" data-name="長方形 67" width="0.892" height="83.414" transform="translate(339.12)" fill="#e6e6e6"/>
  <path id="パス_245" data-name="パス 245" d="M814.415,230.2a.539.539,0,0,0-.538.538v70.386a.539.539,0,0,0,.538.538h98.059a.539.539,0,0,0,.538-.538V230.742a.539.539,0,0,0-.539-.538Z" transform="translate(-523.934 -184.102)" fill="#e6e6e6"/>
  <path id="パス_246" data-name="パス 246" d="M914.2,241.661v50.02a1.259,1.259,0,0,1-1.258,1.259H828.032a1.06,1.06,0,0,1-.18-.014,1.258,1.258,0,0,1-1.079-1.245v-50.02a1.259,1.259,0,0,1,1.258-1.259h84.913a1.259,1.259,0,0,1,1.259,1.259Z" transform="translate(-531.078 -189.751)" fill="#fff"/>
  <path id="パス_247" data-name="パス 247" d="M884.87,302.344h-54.2a1.1,1.1,0,0,1-.2-.016l25.634-44.4a1.795,1.795,0,0,1,3.124,0l17.2,29.8.824,1.426Z" transform="translate(-533.125 -198.954)" fill="#e6e6e6"/>
  <path id="パス_248" data-name="パス 248" d="M765.571,213.625h-18.5l9.084-13.2.654-.951.327-.475.824,1.426Z" transform="translate(-413.826 -110.235)" opacity="0.2" style="isolation: isolate"/>
  <path id="パス_249" data-name="パス 249" d="M961.867,318.593H914.989l9.084-13.195.654-.951,11.837-17.2a2.4,2.4,0,0,1,3.555-.213,2.159,2.159,0,0,1,.17.213Z" transform="translate(-579.944 -215.204)" fill="#e6e6e6"/>
  <circle id="楕円形_39" data-name="楕円形 39" cx="1.784" cy="1.784" r="1.784" transform="translate(337.781 45.945)" fill="#fff"/>
  <path id="パス_250" data-name="パス 250" d="M837.18,471.154l.833,5.693a5.034,5.034,0,0,1-5.677,5.715h0a5.034,5.034,0,0,1-4-6.8l2.827-7.316-1.5-49.344,8.725-3.31Z" transform="translate(-531.756 -286.906)" fill="#a0616a"/>
  <circle id="楕円形_40" data-name="楕円形 40" cx="12.035" cy="12.035" r="12.035" transform="translate(268.716 78.338)" fill="#a0616a"/>
  <path id="パス_251" data-name="パス 251" d="M798,359.492l-22.265-.9c2.472-5.413,3.453-10.65,2.407-15.646h14.743C792.109,347.655,794.249,353.313,798,359.492Z" transform="translate(-502.806 -246.553)" fill="#a0616a"/>
  <path id="パス_252" data-name="パス 252" d="M775.217,419.507l-32.8,2.407,1.192-18.532c-3.78-8.99-3.176-15.481,1.273-19.782l.4-6.261a9.6,9.6,0,0,1,7.1-8.66l5.683-1.525c7.358,4.31,13.223,4.251,17.451-.6l6.763,3.464a9.073,9.073,0,0,1,4.881,9.077Z" transform="translate(-483.634 -259.631)" fill="#6c63ff"/>
  <path id="パス_253" data-name="パス 253" d="M686.156,445.6l-9.257,4.86a3.99,3.99,0,0,1-4.851-.9h0a3.991,3.991,0,0,1,2.2-6.546l6.5-1.329,20.159-7.823,3.31-23.469,9.327,2.407-1.805,27.681Z" transform="translate(-444.819 -283.917)" fill="#a0616a"/>
  <path id="パス_254" data-name="パス 254" d="M839.179,396l-10.23,6.018-.6-24.07,1.764-.6a9.068,9.068,0,0,1,9.068,9.068Z" transform="translate(-531.95 -265.609)" fill="#6c63ff"/>
  <path id="パス_255" data-name="パス 255" d="M752.523,600.747l-8.7-1.361c-1.756-29.721-5.294-57.467-11.61-82.133-14.607,19.355-26.851,47.881-37.309,83.343l-10.23-2.708,26.778-116.741,31.893-.6C756.39,498.4,752.571,553.561,752.523,600.747Z" transform="translate(-452.365 -322.775)" fill="#2f2e41"/>
  <path id="パス_256" data-name="パス 256" d="M675.525,756.162l-15.114-2.119a2.98,2.98,0,0,1-2.461-3.735h0a2.98,2.98,0,0,1,2.449-2.165l2.686-.388,8.492-5.187,7.025,1.873,2.083,6.147a4.625,4.625,0,0,1-5.159,5.574Z" transform="translate(-437.502 -467.919)" fill="#2f2e41"/>
  <path id="パス_257" data-name="パス 257" d="M808.4,756.162l-15.114-2.119a2.98,2.98,0,0,1-2.461-3.735h0a2.98,2.98,0,0,1,2.449-2.165l2.686-.388,8.492-5.187,7.025,1.873,2.083,6.147a4.625,4.625,0,0,1-5.159,5.574Z" transform="translate(-511.109 -467.919)" fill="#2f2e41"/>
  <path id="パス_258" data-name="パス 258" d="M751.283,397.9c-2.736-6.013-7.46-8.343-15.345-4.814L737,385.242a15.235,15.235,0,0,1,10.972-12.619h0Z" transform="translate(-480.761 -262.993)" fill="#6c63ff"/>
  <path id="パス_259" data-name="パス 259" d="M761.339,302.1s-1.893-14.735,13.555-9.9c0,0,11.033-2.024,14.651,11.777l3.664,14.467-1.786-.972-.832,1.82-2.893.733-1.238-2.457-.6,2.984-23.7,2.363s10.614-6.277,10.782-17.527l-2.022,2.137Z" transform="translate(-494.791 -217.906)" fill="#2f2e41"/>
  <circle id="楕円形_41" data-name="楕円形 41" cx="5.959" cy="5.959" r="5.959" transform="translate(286.848 68.48)" fill="#2f2e41"/>
  <path id="パス_260" data-name="パス 260" d="M805.6,283.478a5.954,5.954,0,0,1,5.956-5.569c-.123-.016-.245-.035-.37-.043a5.959,5.959,0,0,0-.765,11.893c.125.008.249,0,.373.005A5.954,5.954,0,0,1,805.6,283.478Z" transform="translate(-518.928 -210.497)" fill="#2f2e41"/>
  <path id="パス_261" data-name="パス 261" d="M261.988,415.151v11.835a.3.3,0,0,1-.3.3H241.6a.25.25,0,0,1-.043,0,.3.3,0,0,1-.255-.295V415.151a.3.3,0,0,1,.3-.3H261.69a.3.3,0,0,1,.3.3Z" transform="translate(-206.765 -286.386)" fill="#e6e6e6"/>
  <path id="パス_262" data-name="パス 262" d="M597.988,415.151v11.835a.3.3,0,0,1-.3.3H577.6a.251.251,0,0,1-.043,0,.3.3,0,0,1-.255-.295V415.151a.3.3,0,0,1,.3-.3H597.69a.3.3,0,0,1,.3.3Z" transform="translate(-392.887 -286.386)" fill="#6c63ff"/>
  <path id="パス_263" data-name="パス 263" d="M922.988,415.151v11.835a.3.3,0,0,1-.3.3H902.6a.25.25,0,0,1-.043,0,.3.3,0,0,1-.255-.295V415.151a.3.3,0,0,1,.3-.3H922.69a.3.3,0,0,1,.3.3Z" transform="translate(-572.916 -286.386)" fill="#e6e6e6"/>
</svg>
