<svg xmlns="http://www.w3.org/2000/svg" xmlns:xlink="http://www.w3.org/1999/xlink" width="254.668" height="182" viewBox="0 0 254.668 182">
  <defs>
    <linearGradient id="linear-gradient" x1="0.5" y1="1" x2="0.5" gradientUnits="objectBoundingBox">
      <stop offset="0" stop-color="gray" stop-opacity="0.251"/>
      <stop offset="0.54" stop-color="gray" stop-opacity="0.122"/>
      <stop offset="1" stop-color="gray" stop-opacity="0.102"/>
    </linearGradient>
    <linearGradient id="linear-gradient-2" x1="0.5" y1="1" x2="0.5" xlink:href="#linear-gradient"/>
  </defs>
  <g id="グループ_24" data-name="グループ 24" transform="translate(0.035 -0.003)">
    <path id="パス_264" data-name="パス 264" d="M334.2,162.4c-5.9,12.167-17.874,20.3-30.284,25.667a115.125,115.125,0,0,1-53.254,8.879q-4.77-.317-9.512-1.014a119.967,119.967,0,0,1-31.8-9.261q-4.382-1.973-8.586-4.309a109.837,109.837,0,0,1-13.421-8.777q-1.6-1.225-3.165-2.513c-.721-.595-1.436-1.2-2.162-1.794a27.283,27.283,0,0,0-4.866-3.314,17.387,17.387,0,0,0-1.629-.719c-5.567-2.118-11.987-1.319-17.783.333-4.408,1.256-8.706,2.977-13.11,4.2a43.507,43.507,0,0,1-5.973,1.27,31.789,31.789,0,0,1-13.421-1.179l-.371-.115q-.932-.293-1.849-.641l-.371-.142q-.888-.342-1.738-.735l-.371-.169q-.888-.413-1.738-.872c-.2-.107-.406-.222-.606-.331A36.331,36.331,0,0,1,109.5,160.1c-.073-.073-.142-.149-.222-.222-.353-.382-.7-.77-1.034-1.168-.124-.146-.249-.293-.371-.444q-.6-.728-1.152-1.489c-.055-.073-.109-.149-.162-.222a32.1,32.1,0,0,1-3.743-6.768c-.031-.073-.06-.149-.087-.222q-.444-1.143-.81-2.324c-.1-.329-.2-.666-.28-.994-.029-.1-.055-.2-.08-.3a60.043,60.043,0,0,1-1.365-14.824v-1.743a169.5,169.5,0,0,1,1.35-24.22,1.01,1.01,0,0,1,.024-.164,75.642,75.642,0,0,1,1.623-7.951,58.655,58.655,0,0,1,2.733-8.058,74.857,74.857,0,0,1,11.137-17.725c11.132-13.663,25.731-25.132,42.819-29.425A63.014,63.014,0,0,1,213.6,53.474c4.528,3.6,8.6,7.874,13.683,10.637,4.44,2.406,9.636,3.4,14.391,1.509,3.929-1.565,6.486-2.342,10.9-2.1a91.357,91.357,0,0,1,26.717,5.6c.346.127.693.257,1.037.388,22.355,8.553,41.572,25.545,51.561,47.381q.4.866.77,1.745C338.617,132.538,340.77,148.842,334.2,162.4Z" transform="translate(-83.595 -40.04)" fill="#6c63ff" opacity="0.1"/>
    <ellipse id="楕円形_42" data-name="楕円形 42" cx="19.596" cy="3.148" rx="19.596" ry="3.148" transform="translate(7.45 158.633)" fill="#6c63ff" opacity="0.1"/>
    <ellipse id="楕円形_43" data-name="楕円形 43" cx="34.746" cy="3.374" rx="34.746" ry="3.374" transform="translate(168.096 175.255)" fill="#6c63ff" opacity="0.1"/>
    <rect id="長方形_71" data-name="長方形 71" width="210.951" height="119.496" rx="12.49" transform="translate(26.123 23.92)" fill="url(#linear-gradient)"/>
    <rect id="長方形_72" data-name="長方形 72" width="210.305" height="117.419" rx="12.49" transform="translate(26.458 25.601)" fill="#fff"/>
    <rect id="長方形_73" data-name="長方形 73" width="210.305" height="117.419" rx="12.49" transform="translate(26.458 25.601)" fill="#fff"/>
    <rect id="長方形_74" data-name="長方形 74" width="210.305" height="117.419" rx="12.49" transform="translate(26.458 25.601)" fill="#fff" opacity="0.04"/>
    <path id="パス_265" data-name="パス 265" d="M353.857,149.29H145.688a1.068,1.068,0,0,0-1.068,1.068v4.513h210.3v-4.513a1.068,1.068,0,0,0-1.059-1.068Z" transform="translate(-118.162 -125.037)" fill="#5a5773"/>
    <g id="buttons" transform="translate(29.215 25.601)">
      <circle id="楕円形_44" data-name="楕円形 44" cx="1.443" cy="1.443" r="1.443" fill="#fff"/>
      <circle id="楕円形_45" data-name="楕円形 45" cx="1.443" cy="1.443" r="1.443" transform="translate(3.885)" fill="#fff"/>
      <circle id="楕円形_46" data-name="楕円形 46" cx="1.443" cy="1.443" r="1.443" transform="translate(7.769)" fill="#fff"/>
    </g>
    <rect id="長方形_75" data-name="長方形 75" width="56.437" height="4.79" transform="translate(43.779 40.329)" fill="#6c63ff" opacity="0.2"/>
    <rect id="長方形_76" data-name="長方形 76" width="175.663" height="73.687" transform="translate(43.779 59.536)" fill="#5a5773" opacity="0.1"/>
    <path id="パス_266" data-name="パス 266" d="M563.189,266.743h-3.008V260.9a12.013,12.013,0,1,0-24.024-.162v6h-3a5.021,5.021,0,0,0-5.006,5.006v24.022a5.021,5.021,0,0,0,5.006,5.006h30.033a5.019,5.019,0,0,0,5-5.006V271.749A5.019,5.019,0,0,0,563.189,266.743Zm-13.263,15.616v8.6a1.8,1.8,0,0,1-1.665,1.8,1.756,1.756,0,0,1-1.838-1.754v-8.657a4,4,0,1,1,3.5,0Zm6.757-15.616H539.659v-6a8.508,8.508,0,0,1,17.017,0Z" transform="translate(-416.558 -202.401)" opacity="0.1"/>
    <path id="パス_267" data-name="パス 267" d="M563.189,264.743h-3.008V258.9a12.013,12.013,0,1,0-24.024-.162v6h-3a5.021,5.021,0,0,0-5.006,5.006v24.022a5.021,5.021,0,0,0,5.006,5.006h30.033a5.019,5.019,0,0,0,5-5.006V269.749A5.019,5.019,0,0,0,563.189,264.743Zm-13.263,15.616v8.6a1.8,1.8,0,0,1-1.665,1.8,1.756,1.756,0,0,1-1.838-1.754v-8.657a4,4,0,1,1,3.5,0Zm6.757-15.616H539.659v-6a8.508,8.508,0,0,1,17.017,0Z" transform="translate(-416.558 -200.845)" fill="#6c63ff"/>
    <rect id="長方形_77" data-name="長方形 77" width="17.78" height="4.198" transform="translate(201.661 52.444)" fill="#5a5773" opacity="0.1"/>
    <path id="パス_268" data-name="パス 268" d="M890.384,413.6a6.314,6.314,0,0,0-.595-1.689l-2.664-3.978h.016a6.71,6.71,0,0,1,0-2.979c.42-.981-1.5-3.394-1.5-3.394a1.431,1.431,0,0,1,.375-1.352c.608-.746-.375-2.93-.375-2.93s-.466-4.562-.513-5.259-.422-4.559-.422-4.559l-.888-8.189-1.581-21.7-.029-.406c.2-.1.3-.155.3-.155l-.315-12,.273-.246c2.384-2.158,7.882-7.152,7.827-7.261s-.666-8.34-.737-10.4a12.393,12.393,0,0,0-.946-4.258c-.138-.273-.535-2.073-.7-2.835-.044-.209-.073-.34-.073-.34s-1.612-3.072-1.472-4.468.42-2.442-3.017-2.93a13.316,13.316,0,0,1-4.6-1.6,13.1,13.1,0,0,0-3.3-1.651s-.963-1.776-1.634-1.174a9.326,9.326,0,0,1-.633-1.978l-.02-.124a6.541,6.541,0,0,0,2.584-3.7c.022-.084.04-.171.06-.255a.721.721,0,0,0,.206.038c.584,0,.943-.65,1.489-.857.222-.087.495-.1.666-.275a.651.651,0,0,0,.146-.491,1,1,0,0,0,0-.182.629.629,0,0,0,0-.064v.022c-.149-.808-.775-1.525-.706-2.346.067-.772.746-1.452.69-2.2a1.2,1.2,0,0,0-.016-.178v.027a1.9,1.9,0,0,0-.444-.786,2.52,2.52,0,0,0-.915-.768c-.308-.135-.666-.166-.954-.328-.848-.462-.846-1.665-1.35-2.486a2.2,2.2,0,0,0-2.058-1.019c-.63.062-1.2.4-1.825.506a4.771,4.771,0,0,1-2.528-.444,6.96,6.96,0,0,0-2.495-.666,2.119,2.119,0,0,0-2.069,1.263c-.14.444-.071.921-.178,1.372a2.987,2.987,0,0,1-1.609,1.758c-.444.246-.972.528-1.11.994v-.036a.85.85,0,0,0-.022.113.84.84,0,0,0,0,.149,2.8,2.8,0,0,0,.282.928,2.56,2.56,0,0,1-.013,1.789c-.164.422-.444.792-.6,1.212a2.388,2.388,0,0,0-.146.608V299.4a2.451,2.451,0,0,0,0,.284,2,2,0,0,0,.222.932,1.673,1.673,0,0,0,1,.837c.444.1.721-.333,1.19-.222a1.871,1.871,0,0,1,.246.078c.016.1.031.2.049.3a6.524,6.524,0,0,0,2.251,3.811,1.432,1.432,0,0,0,.024.162h0a14.9,14.9,0,0,1,.184,2.677s-.7-1.023-1.658.952a20.143,20.143,0,0,1-3.365,1.607c-.864.164-3.929,1.232-3.929,1.232a2.7,2.7,0,0,1-1.589.513c-.957,0-1.751,2.093-1.636,3.232s-.069,1.978-.959,2.024-.4,1.851-.4,1.882l-.082.388c-.173.795-.551,2.5-.684,2.766a12.43,12.43,0,0,0-.948,4.258c-.069,2.06-.666,10.26-.735,10.4-.047.091,3.72,3.534,6.369,5.94l.384.346-1.219,11.383a3.039,3.039,0,0,0,1.252,2.22c0,.133,0,.269-.013.408a14.234,14.234,0,0,1-.373,3.365c-.373.746-.28,4.746-.28,4.746s-.375,8.142-.841,9.028a6.158,6.158,0,0,0-.422,3.108c.14.364-.468,10.142-.468,10.142l-.466,4.375s.14,4.186-.282,4.28-.655,2.979-.655,2.979-1.494,2.047-.841,2.79-.1,1.072-.164,1.256-1.425.888-.444,3.49a.765.765,0,0,0,.031.075c-.919,1.276-3.831,5.394-3.654,6.02a1.649,1.649,0,0,0,.777.932c.686.411,1.862.6,3.734,0,3.108-1,2.886-1.723,2.886-1.723a1.319,1.319,0,0,1,1.31-1.256,3.678,3.678,0,0,0,2.244-1.279l-.151-.562-.206-.777c.024-.222.182-.61.888-.826,1.077-.326.795-2.373.795-2.373s-.093-2.14.373-2.42.282-3.816.282-3.816a26.216,26.216,0,0,1,1.261-4.282c.746-1.723,1.638-11.956,1.638-11.956a47.19,47.19,0,0,1,1.168-6.468,36.609,36.609,0,0,0,1.077-5.49s3.461-6.7,3.505-8.191c0,0,.444-1.4.888.14s1.691,5.212,1.691,5.212l1.214,4.513,1.45,6.746.937,5.678a8.83,8.83,0,0,0,.222,2.886c.364.746.888,2.464.608,2.79s.559,1.862.795,2.186,0,7.212,0,7.212,1.075,5.862,2.617,6.881a1.883,1.883,0,0,0,.342.178c-.022.635-.044,1.485-.015,1.929a.738.738,0,0,0,.049.291,8.114,8.114,0,0,0,2.058,1.443c.328,0,1.494.815,1.543,1.21s3.416,2.069,3.893,2.118,2.79.464,3.108-.186A1.076,1.076,0,0,0,890.384,413.6Zm-8.273-83.845.24.206s.246,1.92.422,2.495a4.819,4.819,0,0,1-.036,1.694,3.9,3.9,0,0,0,.246,1.221c.209.419-.422,1.332-.422,1.332H882l-.175-7.188Zm-16.7-21.461v-.042a.137.137,0,0,0-.007.042Zm-8.624,27.669a.811.811,0,0,1-.036-.593,1.775,1.775,0,0,0,.118-.329,5.1,5.1,0,0,0,.129-.888.084.084,0,0,0,0-.011,4.7,4.7,0,0,1-.033-1.683c.167-.546.42-2.495.42-2.495l.16-.135.371-.322a2.637,2.637,0,0,1,.027-.317,24.719,24.719,0,0,1,.04,3.645,5.4,5.4,0,0,0-.7,2.069,8.487,8.487,0,0,1-.144,1.727A3.54,3.54,0,0,1,856.788,335.962Z" transform="translate(-664.891 -233.952)" fill="url(#linear-gradient-2)"/>
    <path id="パス_269" data-name="パス 269" d="M935.041,357.953v2.761l-5.665,2.848s-5.625-3.4-4.237-4.757c.888-.857.717-3.21.477-4.828h0c-.14-.941-.3-1.632-.3-1.632s10.1-2.886,8.577-.695a3.446,3.446,0,0,0-.38,2.619A11.9,11.9,0,0,0,935.041,357.953Z" transform="translate(-725.253 -281.84)" fill="#c37098"/>
    <path id="パス_270" data-name="パス 270" d="M867.13,443.441l-.73,8.994s-1.094-.992-2.51-2.284c-2.626-2.4-6.355-5.82-6.311-5.911.069-.14.666-8.3.73-10.351a12.385,12.385,0,0,1,.937-4.235,26.348,26.348,0,0,0,.666-2.755c.053-.246.086-.406.086-.406l1.225-.493s5.105,5.7,5.105,5.8-.349,4.479-.349,4.479l-.362.315-.158.135s-.244,1.911-.417,2.484a4.46,4.46,0,0,0,.033,1.674h0a5.15,5.15,0,0,1-.126.888,1.865,1.865,0,0,1-.118.326.815.815,0,0,0,.036.59,3.569,3.569,0,0,0,.382.73Z" transform="translate(-672.861 -340.324)" fill="#3f3d56"/>
    <path id="パス_271" data-name="パス 271" d="M1006.545,444.263c.053.109-5.392,5.079-7.751,7.225l-1.07.97L997,443.464h1.876s.626-.9.417-1.321a3.861,3.861,0,0,1-.242-1.214,4.838,4.838,0,0,0,.033-1.685c-.173-.575-.417-2.484-.417-2.484l-.238-.2-.282-.246s-.348-4.375-.348-4.479,5.105-5.8,5.105-5.8l1.216.486s.027.131.071.34c.164.757.557,2.548.693,2.821a12.387,12.387,0,0,1,.937,4.235C1005.879,435.963,1006.474,444.123,1006.545,444.263Z" transform="translate(-781.334 -340.347)" fill="#3f3d56"/>
    <path id="パス_272" data-name="パス 272" d="M1003.041,825.572c-.326.648-2.617.222-3.09.187s-3.811-1.716-3.858-2.109-1.2-1.2-1.527-1.2a8.116,8.116,0,0,1-2.038-1.436.707.707,0,0,1-.047-.289c-.049-.761.047-2.721.047-2.721l6.715.371,3.263,4.908a6.329,6.329,0,0,1,.59,1.68,1.11,1.11,0,0,1-.055.613Z" transform="translate(-777.807 -645.309)" fill="#3f3d56"/>
    <path id="パス_273" data-name="パス 273" d="M1003.041,825.572c-.326.648-2.617.222-3.09.187s-3.811-1.716-3.858-2.109-1.2-1.2-1.527-1.2a8.116,8.116,0,0,1-2.038-1.436.707.707,0,0,1-.047-.289c-.049-.761.047-2.721.047-2.721l6.715.371,3.263,4.908a6.329,6.329,0,0,1,.59,1.68,1.11,1.11,0,0,1-.055.613Z" transform="translate(-777.807 -645.309)" opacity="0.1"/>
    <path id="パス_274" data-name="パス 274" d="M1003.086,835.11c-.326.648-2.617.222-3.09.186s-3.811-1.716-3.858-2.109-1.2-1.2-1.527-1.2a8.117,8.117,0,0,1-2.038-1.436.708.708,0,0,1-.047-.289l2.175,1.376a9.184,9.184,0,0,1,1.76,1.414c.371.526,3.292,1.62,3.534,1.643a16.63,16.63,0,0,1,3.145-.2,1.109,1.109,0,0,1-.055.613Z" transform="translate(-777.853 -654.848)" opacity="0.1"/>
    <path id="パス_275" data-name="パス 275" d="M859.105,822.369a3.633,3.633,0,0,1-2.22,1.272,1.307,1.307,0,0,0-1.3,1.25s.222.719-2.848,1.716c-1.853.6-3.019.408-3.7,0a1.652,1.652,0,0,1-.77-.928c-.209-.739,3.889-6.366,3.889-6.366l3.729-.222,2.664,1.2.408,1.525Z" transform="translate(-665.615 -646.157)" fill="#3f3d56"/>
    <path id="パス_276" data-name="パス 276" d="M859.105,822.369a3.633,3.633,0,0,1-2.22,1.272,1.307,1.307,0,0,0-1.3,1.25s.222.719-2.848,1.716c-1.853.6-3.019.408-3.7,0a1.652,1.652,0,0,1-.77-.928c-.209-.739,3.889-6.366,3.889-6.366l3.729-.222,2.664,1.2.408,1.525Z" transform="translate(-665.615 -646.157)" opacity="0.1"/>
    <path id="パス_277" data-name="パス 277" d="M861.832,831.9a3.633,3.633,0,0,1-2.22,1.272,1.307,1.307,0,0,0-1.3,1.25s.222.719-2.848,1.716c-1.853.6-3.019.408-3.7,0a22.736,22.736,0,0,0,5.993-1.667c.464-.464,1.043-1.738,1.436-1.76a15.452,15.452,0,0,0,2.493-1.37Z" transform="translate(-668.341 -655.688)" fill="none"/>
    <path id="パス_278" data-name="パス 278" d="M861.832,831.9a3.633,3.633,0,0,1-2.22,1.272,1.307,1.307,0,0,0-1.3,1.25s.222.719-2.848,1.716c-1.853.6-3.019.408-3.7,0a22.736,22.736,0,0,0,5.993-1.667c.464-.464,1.043-1.738,1.436-1.76a15.452,15.452,0,0,0,2.493-1.37Z" transform="translate(-668.341 -655.688)" opacity="0.1"/>
    <path id="パス_279" data-name="パス 279" d="M898.995,625.391a6.679,6.679,0,0,0,0,2.963s-6.215.324-7.734-.695-2.593-6.855-2.593-6.855.222-6.852,0-7.176-1.065-1.851-.788-2.175-.222-2.038-.6-2.779a8.317,8.317,0,0,1-.222-2.87l-.928-5.652-1.434-6.713-1.219-4.493s-1.25-3.658-1.674-5.185-.872-.14-.872-.14c-.044,1.483-3.472,8.151-3.472,8.151a36.69,36.69,0,0,1-1.066,5.463,47.411,47.411,0,0,0-1.159,6.437s-.888,10.187-1.62,11.9a26.245,26.245,0,0,0-1.236,4.26s.186,3.521-.278,3.8-.388,2.409-.388,2.409.277,2.036-.788,2.362-.888,1.019-.888,1.019-5.927.972-6.9-1.623.371-3.285.444-3.472.812-.508.164-1.252.832-2.777.832-2.777.233-2.87.648-2.963.28-4.26.28-4.26l.462-4.353s.6-9.725.464-10.1a6.167,6.167,0,0,1,.417-3.108c.464-.888.833-8.986.833-8.986s-.093-3.98.277-4.721a13.761,13.761,0,0,0,.368-3.35c.04-1.005.049-1.838.049-1.838l5.185-1.944,6.659-2.129,5.6,2.686,8.2,1.574.1,1.414,1.565,21.6.888,8.149s.371,3.842.417,4.537.508,5.234.508,5.234.972,2.175.371,2.917a1.406,1.406,0,0,0-.371,1.332S899.412,624.419,898.995,625.391Z" transform="translate(-676.911 -454.343)" fill="#3f3d56"/>
    <path id="パス_280" data-name="パス 280" d="M935.3,351.653a3.446,3.446,0,0,0-.38,2.619,6.513,6.513,0,0,1-7.9-.3h0c-.14-.941-.3-1.632-.3-1.632S936.824,349.464,935.3,351.653Z" transform="translate(-726.655 -281.841)" opacity="0.1"/>
    <path id="パス_281" data-name="パス 281" d="M930.408,318.974a6.473,6.473,0,1,1-1.9-4.608A6.5,6.5,0,0,1,930.408,318.974Z" transform="translate(-719.403 -251.994)" fill="#c37098"/>
    <path id="パス_282" data-name="パス 282" d="M899.05,350.008l-2.131,37.947-11.576-2.431-2.293-15.212,2.271-20.422,1.709.22,3.014.384,2.986.184,3.236-.36Z" transform="translate(-686.692 -272.22)" opacity="0.1"/>
    <path id="パス_283" data-name="パス 283" d="M899.05,351.265l-2.131,37.947-11.576-2.431L883.05,371.57l2.271-20.42,1.709.218,3.014.384,2.986.184,3.236-.36Z" transform="translate(-686.692 -273.201)" fill="#6c63ff"/>
    <path id="パス_284" data-name="パス 284" d="M939.23,396.3l4.169.14-1.172,1.64s.082,3.314.639,4.264.393,15.627.393,15.627l-1.11,2.107-1.9-2.362.024-19.379Z" transform="translate(-736.388 -317.216)" fill="#3f3d56"/>
    <path id="パス_285" data-name="パス 285" d="M939.23,396.3l4.169.14-1.172,1.64s.082,3.314.639,4.264.393,15.627.393,15.627l-1.11,2.107-1.9-2.362.024-19.379Z" transform="translate(-736.388 -317.216)" opacity="0.1"/>
    <path id="パス_286" data-name="パス 286" d="M928.039,336.86l-3.889,4.306,2.222,2.315,3.683-3.589Z" transform="translate(-718.668 -262.083)" opacity="0.1"/>
    <path id="パス_287" data-name="パス 287" d="M928.039,335.61l-3.889,4.306,2.222,2.315,3.683-3.589Z" transform="translate(-718.668 -261.11)" fill="#6c63ff"/>
    <path id="パス_288" data-name="パス 288" d="M901.649,341.526l-3.938-3.936-.371,2.06,1.807,4.515Z" transform="translate(-697.81 -262.651)" opacity="0.1"/>
    <path id="パス_289" data-name="パス 289" d="M902.276,340.276l-3.936-3.936-.371,2.06,1.807,4.515Z" transform="translate(-698.3 -261.678)" fill="#6c63ff"/>
    <path id="パス_290" data-name="パス 290" d="M913.574,578.254a19.217,19.217,0,0,1-5.993,1.734c-3.82.486-6.32-4.375-6.32-4.375l-1.458,1.9c-.464,2.016-7.525,2.524-10.4,1.76a4.593,4.593,0,0,1-1.647-.779c.04-1.005.049-1.838.049-1.838l5.185-1.944,6.659-2.129,5.6,2.686,8.2,1.574Z" transform="translate(-696.343 -454.366)" opacity="0.1"/>
    <path id="パス_291" data-name="パス 291" d="M926,391.308l-2.129,37.945L912.3,426.822l-2.3-15.21,2.269-20.422,1.709.222a20.719,20.719,0,0,1-.251,2.22c-.277,1.3,1.436,10.513,1.436,10.513s3.256,10.333,4.721,8.844,3.552-9.354,3.552-9.354c1.414-2.917.024-11.1-.08-11.263a3.3,3.3,0,0,1-.133-.744Z" transform="translate(-713.646 -313.241)" opacity="0.1"/>
    <path id="パス_292" data-name="パス 292" d="M998.694,508.883l.1,3.718-1.07.97-.721-9h1.6Z" transform="translate(-781.334 -401.453)" opacity="0.1"/>
    <path id="パス_293" data-name="パス 293" d="M890.78,493.1h0a5.163,5.163,0,0,1-.127.888c0-.082,0-.129-.018-.135C890.569,493.835,890.649,493.5,890.78,493.1Z" transform="translate(-698.562 -392.529)" opacity="0.1"/>
    <path id="パス_294" data-name="パス 294" d="M889.251,502.01l-.73,8.994s-1.094-.992-2.51-2.284l.169-1.594s.6-3.916.815-5.847a3.566,3.566,0,0,0,.382.73Z" transform="translate(-694.981 -398.893)" opacity="0.1"/>
    <path id="パス_295" data-name="パス 295" d="M881.48,375.17s-.693-1.019-1.643.948a19.862,19.862,0,0,1-3.33,1.6c-.852.162-3.885,1.228-3.885,1.228a2.682,2.682,0,0,1-1.574.508c-.95,0-1.738,2.084-1.623,3.219s-.069,1.969-.948,2.016-.4,1.874-.4,1.874l5.858,6.715s.371,6.182.187,6.368a5.481,5.481,0,0,0-.695,2.06c.162.062-.888,6.9-.888,6.9l-1.412,13.268s0,2.22,2.872,2.986,9.938.26,10.393-1.756l1.458-1.9s2.5,4.863,6.32,4.377a18.371,18.371,0,0,0,6.253-1.876l-.417-15.9-.278-11.461,5.965-9.8s-1.6-3.057-1.458-4.44.415-2.431-2.988-2.917a13.066,13.066,0,0,1-4.562-1.6,13.038,13.038,0,0,0-3.263-1.643s-.955-1.776-1.618-1.168a21.817,21.817,0,0,1,.61,2.886,9.545,9.545,0,0,0,.209,2.246c.1.175,1.494,8.346.08,11.263,0,0-2.075,7.865-3.552,9.354s-4.721-8.844-4.721-8.844-1.714-9.216-1.436-10.513S881.48,375.17,881.48,375.17Z" transform="translate(-680.931 -300.371)" fill="#3f3d56"/>
    <circle id="楕円形_47" data-name="楕円形 47" cx="1.019" cy="1.019" r="1.019" transform="translate(204.485 103.117)" fill="#3f3d56"/>
    <circle id="楕円形_48" data-name="楕円形 48" cx="1.019" cy="1.019" r="1.019" transform="translate(204.485 107.921)" fill="#3f3d56"/>
    <circle id="楕円形_49" data-name="楕円形 49" cx="1.019" cy="1.019" r="1.019" transform="translate(204.485 103.117)" opacity="0.1"/>
    <circle id="楕円形_50" data-name="楕円形 50" cx="1.019" cy="1.019" r="1.019" transform="translate(204.485 107.921)" opacity="0.1"/>
    <path id="パス_296" data-name="パス 296" d="M992.47,804.34s4.182.324,4.6.648S992.47,804.34,992.47,804.34Z" transform="translate(-777.81 -634.681)" stroke="#6c63ff" stroke-miterlimit="10" stroke-width="1" opacity="0.1"/>
    <path id="パス_297" data-name="パス 297" d="M880.3,789.53s.888,1.11.511,1.62S880.3,789.53,880.3,789.53Z" transform="translate(-690.539 -623.159)" stroke="#6c63ff" stroke-miterlimit="10" stroke-width="1" opacity="0.1"/>
    <path id="パス_298" data-name="パス 298" d="M885.1,805.456s1.62-1.066,2.269-.357S885.1,805.456,885.1,805.456Z" transform="translate(-694.273 -635.082)" stroke="#6c63ff" stroke-miterlimit="10" stroke-width="1" opacity="0.1"/>
    <path id="パス_299" data-name="パス 299" d="M930.423,318.981a6.469,6.469,0,0,1-.209,1.645.739.739,0,0,1-.431-.724c.029-.264.2-.506.167-.768-.055-.4-.544-.568-.8-.888a2.066,2.066,0,0,1-.222-1.447c.027-.5-.1-1.11-.568-1.281-.14-.051-.293-.056-.428-.113-.368-.155-.482-.613-.728-.928a1.918,1.918,0,0,0-2.22-.32,10.522,10.522,0,0,1-1,.417,1.3,1.3,0,0,1-1.045-.078c-.146-.093-.264-.222-.415-.315a1.433,1.433,0,0,0-1.594.388,5.507,5.507,0,0,1-1.332,1.148c-.246.111-.551.178-.666.417a.874.874,0,0,0-.071.415,12.407,12.407,0,0,1-.078,2.586c-.115.544-.5,1.161-1.05,1.094a1.033,1.033,0,0,1-.2-.051,6.5,6.5,0,1,1,12.9-1.2Z" transform="translate(-719.418 -252.002)" opacity="0.1"/>
    <path id="パス_300" data-name="パス 300" d="M908.15,303.893c.167.038.324.124.495.146.553.067.935-.551,1.05-1.094a11.976,11.976,0,0,0,.08-2.586.844.844,0,0,1,.069-.415c.127-.24.431-.306.666-.417a5.749,5.749,0,0,0,1.332-1.148,1.418,1.418,0,0,1,1.592-.388c.149.089.269.222.415.315a1.332,1.332,0,0,0,1.048.078c.344-.1.666-.282,1-.417a1.928,1.928,0,0,1,2.22.317c.246.317.36.772.728.928.135.058.289.064.428.115.468.175.588.781.568,1.281a2.152,2.152,0,0,0,.222,1.447c.258.315.746.479.8.888.036.262-.138.506-.167.768a.737.737,0,0,0,.695.786c.577,0,.935-.646,1.474-.852a1.751,1.751,0,0,0,.666-.275.735.735,0,0,0,.138-.6c-.109-.85-.79-1.589-.717-2.442.069-.817.826-1.529.666-2.333a1.891,1.891,0,0,0-.444-.792,2.566,2.566,0,0,0-.906-.766,9.306,9.306,0,0,1-.948-.326c-.839-.46-.837-1.658-1.332-2.475a2.173,2.173,0,0,0-2.024-1.008c-.624.062-1.19.393-1.807.5a4.684,4.684,0,0,1-2.5-.444,6.849,6.849,0,0,0-2.471-.666,2.107,2.107,0,0,0-2.051,1.256c-.138.444-.069.919-.175,1.365a2.98,2.98,0,0,1-1.594,1.749c-.486.271-1.07.582-1.128,1.134a2.337,2.337,0,0,0,.277,1.006,2.559,2.559,0,0,1-.013,1.776c-.162.419-.433.788-.6,1.205a2.164,2.164,0,0,0,.058,1.776,1.656,1.656,0,0,0,1.014.832C907.408,304.224,907.684,303.791,908.15,303.893Z" transform="translate(-710.328 -236.084)" fill="#3f3d56"/>
    <g id="グループ_22" data-name="グループ 22" transform="translate(195.407 61.198)" opacity="0.1">
      <path id="パス_301" data-name="パス 301" d="M909.692,335.411c-.115.544-.5,1.161-1.052,1.094-.171-.022-.326-.109-.495-.146-.464-.1-.739.333-1.177.222a1.66,1.66,0,0,1-1.017-.832,1.922,1.922,0,0,1-.207-.726,2.026,2.026,0,0,0,.207,1.143,1.66,1.66,0,0,0,1.017.832c.444.1.713-.333,1.177-.222a5.021,5.021,0,0,0,.495.144c.553.069.937-.548,1.052-1.092a6.42,6.42,0,0,0,.107-1.458A5.472,5.472,0,0,1,909.692,335.411Z" transform="translate(-905.733 -330.232)"/>
      <path id="パス_302" data-name="パス 302" d="M908.367,317.784a2.553,2.553,0,0,0-.146-1.072,5.68,5.68,0,0,1-.255-.7,1.018,1.018,0,0,0-.022.113,2.378,2.378,0,0,0,.277,1.006,2.548,2.548,0,0,1,.146.655Z" transform="translate(-907.449 -315.947)"/>
      <path id="パス_303" data-name="パス 303" d="M983.9,318.73c-.1.63-.615,1.223-.666,1.887a1.584,1.584,0,0,0,0,.342C983.349,320.184,984.034,319.5,983.9,318.73Z" transform="translate(-966.026 -318.063)"/>
      <path id="パス_304" data-name="パス 304" d="M976.048,339.83a.522.522,0,0,1-.127.249c-.164.175-.444.189-.666.275-.539.206-.888.859-1.474.852a.744.744,0,0,1-.666-.515,1.152,1.152,0,0,0-.031.146.737.737,0,0,0,.695.784c.579,0,.935-.646,1.474-.85.222-.087.493-.1.666-.275a.735.735,0,0,0,.138-.6C976.055,339.868,976.05,339.85,976.048,339.83Z" transform="translate(-958.133 -334.48)"/>
      <path id="パス_305" data-name="パス 305" d="M970.215,333.336c-.055-.4-.544-.568-.8-.888a1.216,1.216,0,0,1-.244-.728,1.638,1.638,0,0,0,.244,1.145c.255.311.644.444.768.764A.711.711,0,0,0,970.215,333.336Z" transform="translate(-955.083 -328.17)"/>
      <path id="パス_306" data-name="パス 306" d="M933.926,318.569c.018-.5-.1-1.11-.57-1.281-.138-.051-.291-.058-.426-.113-.368-.155-.484-.613-.728-.928a1.923,1.923,0,0,0-2.22-.32c-.333.135-.65.315-1,.417a1.305,1.305,0,0,1-1.046-.078c-.147-.093-.266-.222-.415-.315a1.432,1.432,0,0,0-1.594.388,5.515,5.515,0,0,1-1.332,1.148c-.249.111-.55.178-.679.417a.871.871,0,0,0-.069.415q0,.13,0,.26a.63.63,0,0,1,.064-.257c.129-.24.431-.306.679-.417a5.749,5.749,0,0,0,1.332-1.148,1.421,1.421,0,0,1,1.594-.388c.149.089.268.222.415.313a1.3,1.3,0,0,0,1.046.078,10.254,10.254,0,0,0,1-.415,1.924,1.924,0,0,1,2.22.317c.244.315.36.772.728.928.135.058.289.064.426.115a1.065,1.065,0,0,1,.564.99Z" transform="translate(-919.827 -315.727)"/>
    </g>
    <g id="グループ_23" data-name="グループ 23" transform="translate(198.573 64.62)" opacity="0.1">
      <path id="パス_307" data-name="パス 307" d="M920,332.888a1.7,1.7,0,0,1,1.283-1.592,5.328,5.328,0,0,1,2.992.135c2.107.7-.266,3.205-.266,3.205s-1.578,1.554-3.05.468a2.306,2.306,0,0,1-.859-1.332,3.4,3.4,0,0,1-.1-.886Z" transform="translate(-919.997 -331.144)"/>
      <path id="パス_308" data-name="パス 308" d="M954.129,332.889a1.7,1.7,0,0,0-1.285-1.592,5.327,5.327,0,0,0-2.99.135c-2.107.7.266,3.205.266,3.205s1.576,1.554,3.05.468a2.306,2.306,0,0,0,.859-1.332A3.4,3.4,0,0,0,954.129,332.889Z" transform="translate(-942.548 -331.145)"/>
      <path id="パス_309" data-name="パス 309" d="M910.5,291.41v.1h3.847v-.124Z" transform="translate(-906.621 -291.326)"/>
      <path id="パス_310" data-name="パス 310" d="M942.627,334.388h.122v-.353a1.01,1.01,0,0,1,1.039,0v.315h.222v-.206H943.9s.044-.428-.679-.36c0,0-.582-.056-.568.313h-.133Z" transform="translate(-937.52 -333.192)"/>
    </g>
    <path id="パス_311" data-name="パス 311" d="M920,332.242a1.7,1.7,0,0,1,1.283-1.592,5.357,5.357,0,0,1,2.992.135c2.107.7-.266,3.205-.266,3.205s-1.578,1.554-3.05.468a2.293,2.293,0,0,1-.859-1.332,3.375,3.375,0,0,1-.1-.886Z" transform="translate(-721.424 -266.022)" fill="#6c63ff"/>
    <path id="パス_312" data-name="パス 312" d="M954.129,332.241a1.7,1.7,0,0,0-1.285-1.592,5.347,5.347,0,0,0-2.99.135c-2.107.7.266,3.205.266,3.205s1.576,1.554,3.05.468a2.293,2.293,0,0,0,.859-1.332A3.375,3.375,0,0,0,954.129,332.241Z" transform="translate(-743.975 -266.021)" fill="#6c63ff"/>
    <path id="パス_313" data-name="パス 313" d="M910.5,290.78v.107h3.847v-.126Z" transform="translate(-708.048 -226.216)" fill="#6c63ff"/>
    <path id="パス_314" data-name="パス 314" d="M942.627,333.759h.122v-.353a1.017,1.017,0,0,1,1.039,0v.317h.222v-.209H943.9s.044-.426-.679-.36c0,0-.582-.053-.568.313h-.133Z" transform="translate(-738.947 -268.083)" fill="#6c63ff"/>
    <rect id="長方形_78" data-name="長方形 78" width="1.261" height="28.391" transform="translate(26.416 101.488)" fill="#535461"/>
    <path id="パス_315" data-name="パス 315" d="M125.828,618.026l-.08,1.279-.111,1.8-.047.753-.111,1.807-.049.752-.111,1.8-1.272,20.526a3.476,3.476,0,0,1-3.469,3.263h-6.61a3.474,3.474,0,0,1-3.467-3.263l-1.279-20.526-.111-1.8-.047-.753-.109-1.811-.047-.752-.111-1.8-.08-1.279a1.8,1.8,0,0,1,1.8-1.911h13.516a1.8,1.8,0,0,1,1.8,1.916Z" transform="translate(-90.227 -488.234)" fill="#3f3d56"/>
    <path id="パス_316" data-name="パス 316" d="M99.062,590.46l-.111,1.8H82.221l-.111-1.8Z" transform="translate(-63.541 -459.39)" fill="#9d9cb5"/>
    <path id="パス_317" data-name="パス 317" d="M99.457,601.98l-.111,1.807H82.933l-.113-1.807Z" transform="translate(-64.094 -468.352)" fill="#9d9cb5"/>
    <path id="パス_318" data-name="パス 318" d="M99.857,613.51l-.111,1.8H83.653l-.113-1.8Z" transform="translate(-64.654 -477.323)" fill="#9d9cb5"/>
    <path id="パス_319" data-name="パス 319" d="M43.614,525.486a32.73,32.73,0,0,1,10.4,13.623,32.782,32.782,0,0,1-16.2-5.616,32.617,32.617,0,0,1-10.4-13.623A32.757,32.757,0,0,1,43.614,525.486Z" transform="translate(-26.97 -413.357)" fill="#6c63ff"/>
    <path id="パス_320" data-name="パス 320" d="M27.46,519.87s9.185,5.105,12.131,9.323,14.464,9.918,14.464,9.918" transform="translate(-27.009 -413.357)" fill="none" stroke="#535461" stroke-miterlimit="10" stroke-width="2"/>
    <path id="パス_321" data-name="パス 321" d="M90.872,486.287a17.8,17.8,0,0,1,5.663,7.414A16.178,16.178,0,0,1,82.06,483.23,17.664,17.664,0,0,1,90.872,486.287Z" transform="translate(-69.489 -384.85)" fill="#6c63ff"/>
    <path id="パス_322" data-name="パス 322" d="M82.06,483.18s5,2.775,6.6,5.072,7.873,5.4,7.873,5.4" transform="translate(-69.489 -384.811)" fill="none" stroke="#535461" stroke-miterlimit="10" stroke-width="2"/>
    <path id="パス_323" data-name="パス 323" d="M153.943,506.065A24.61,24.61,0,0,0,148.38,517.7a22.372,22.372,0,0,0,16.626-18.273A24.613,24.613,0,0,0,153.943,506.065Z" transform="translate(-121.088 -397.454)" fill="#6c63ff"/>
    <path id="パス_324" data-name="パス 324" d="M165.006,499.43s-5.98,5.172-7.5,8.737-9.125,9.545-9.125,9.545" transform="translate(-121.088 -397.454)" fill="none" stroke="#535461" stroke-miterlimit="10" stroke-width="2"/>
  </g>
</svg>
